<?xml version="1.0" encoding="utf-8"?>
<!-- Generator: Adobe Illustrator 23.0.3, SVG Export Plug-In . SVG Version: 6.00 Build 0)  -->
<svg version="1.1" id="Layer_1" xmlns="http://www.w3.org/2000/svg" xmlns:xlink="http://www.w3.org/1999/xlink" x="0px" y="0px"
	 viewBox="0 0 720 250" style="enable-background:new 0 0 720 250;" xml:space="preserve">
<style type="text/css">
	.st0{fill:#D7BEF6;}
	.st1{enable-background:new    ;}
	.st2{fill:#0F2D4E;}
	.st3{fill:#69FCDC;}
	.st4{fill:#FFFFFF;}
</style>
<g>
	<g>
		<rect class="st0" width="720" height="250"/>
	</g>
	<g class="st1">
		<path class="st2" d="M60,83.1c0.7-0.4,1.6-0.8,3-1.1c1.3-0.4,2.7-0.5,4-0.5c1.9,0,3.6,0.3,5.1,0.9c1.5,0.6,2.4,1.5,2.8,2.7
			c0.7,2.1,1.4,4.5,2.2,7.3c0.8,2.8,1.6,5.6,2.4,8.5c0.8,2.9,1.6,5.8,2.4,8.7c0.8,2.9,1.4,5.4,2,7.6c-0.5,0.6-1.2,1-2.1,1.3
			c-0.9,0.3-2,0.5-3.3,0.5c-0.9,0-1.7-0.1-2.3-0.2c-0.6-0.2-1.2-0.4-1.6-0.7c-0.4-0.3-0.7-0.7-1-1.3c-0.2-0.5-0.5-1.1-0.7-1.8
			l-1-4.1H61.6c-0.3,1.2-0.6,2.4-0.9,3.7c-0.3,1.3-0.6,2.5-0.9,3.7c-0.5,0.2-1.1,0.4-1.7,0.5c-0.6,0.1-1.3,0.2-2.2,0.2
			c-2,0-3.4-0.4-4.3-1c-0.9-0.7-1.4-1.7-1.4-2.9c0-0.6,0.1-1.1,0.2-1.7c0.2-0.6,0.3-1.2,0.5-2c0.3-1.1,0.6-2.4,1.1-4
			c0.5-1.6,1-3.3,1.6-5.2c0.6-1.9,1.2-3.8,1.8-5.7c0.7-2,1.3-3.8,1.8-5.5s1.1-3.3,1.6-4.7C59.4,84.9,59.8,83.8,60,83.1z M66.9,90.9
			c-0.5,1.7-1.1,3.6-1.8,5.6c-0.7,2.1-1.3,4.2-1.8,6.3h7.1c-0.5-2.2-1.1-4.3-1.6-6.3c-0.6-2.1-1.1-3.9-1.5-5.5H66.9z"/>
		<path class="st2" d="M98.7,106.6v11.5c-0.4,0.1-1.1,0.2-2,0.4c-0.9,0.1-1.8,0.2-2.7,0.2c-0.9,0-1.7-0.1-2.3-0.2
			c-0.7-0.1-1.2-0.4-1.7-0.8c-0.4-0.4-0.8-0.9-1-1.5c-0.2-0.6-0.3-1.5-0.3-2.5V85.5c0-0.8,0.2-1.5,0.7-1.9c0.4-0.5,1-0.8,1.8-1.1
			c1.3-0.5,2.8-0.8,4.5-1s3.6-0.3,5.5-0.3c5.3,0,9.3,1.2,12,3.5c2.7,2.3,4,5.5,4,9.4c0,2.5-0.6,4.6-1.8,6.4
			c-1.2,1.8-2.7,3.1-4.4,4.1c1.4,2,2.7,3.8,4.1,5.5c1.3,1.7,2.4,3.3,3.2,4.7c-0.4,1.4-1.1,2.5-2.1,3.2c-1,0.7-2.2,1.1-3.4,1.1
			c-0.8,0-1.6-0.1-2.2-0.3c-0.6-0.2-1.2-0.5-1.6-0.8c-0.5-0.4-0.9-0.8-1.3-1.3c-0.4-0.5-0.7-1.1-1.1-1.7l-4.8-8.1H98.7z M102.3,98.7
			c1.5,0,2.6-0.4,3.5-1.2c0.8-0.8,1.3-1.9,1.3-3.5c0-1.5-0.5-2.7-1.4-3.4c-0.9-0.8-2.4-1.2-4.5-1.2c-0.6,0-1,0-1.4,0.1
			c-0.3,0-0.7,0.1-1.2,0.2v9H102.3z"/>
		<path class="st2" d="M141.1,89.4c-3,0-5.2,0.9-6.8,2.8c-1.6,1.9-2.4,4.5-2.4,8c0,3.5,0.9,6.2,2.6,8c1.7,1.9,4.1,2.8,7.1,2.8
			c1.6,0,2.9-0.2,4-0.7c1.1-0.4,2.1-0.9,3.1-1.5c0.7,0.6,1.2,1.2,1.5,2c0.4,0.8,0.5,1.7,0.5,2.7c0,1.6-0.9,3-2.6,4.2s-4.4,1.7-8,1.7
			c-2.6,0-5-0.4-7.3-1.1c-2.3-0.8-4.2-1.9-5.9-3.5c-1.7-1.6-3-3.6-4-6c-1-2.4-1.5-5.3-1.5-8.7c0-3.1,0.5-5.9,1.4-8.2
			c0.9-2.4,2.2-4.4,3.9-6c1.6-1.6,3.5-2.9,5.7-3.7s4.5-1.3,7-1.3c3.5,0,6.3,0.6,8.2,1.8c1.9,1.2,2.9,2.7,2.9,4.6
			c0,1-0.2,1.9-0.7,2.7c-0.5,0.8-1.1,1.4-1.7,1.8c-1-0.7-2.1-1.3-3.2-1.7C143.9,89.6,142.6,89.4,141.1,89.4z"/>
		<path class="st2" d="M164.4,83.1c0.7-0.4,1.6-0.8,3-1.1s2.7-0.5,4-0.5c1.9,0,3.6,0.3,5.1,0.9c1.5,0.6,2.4,1.5,2.8,2.7
			c0.7,2.1,1.4,4.5,2.2,7.3c0.8,2.8,1.6,5.6,2.4,8.5c0.8,2.9,1.6,5.8,2.4,8.7c0.8,2.9,1.4,5.4,2,7.6c-0.5,0.6-1.2,1-2.1,1.3
			c-0.9,0.3-2,0.5-3.3,0.5c-0.9,0-1.7-0.1-2.3-0.2c-0.6-0.2-1.2-0.4-1.6-0.7c-0.4-0.3-0.7-0.7-1-1.3c-0.2-0.5-0.5-1.1-0.7-1.8
			l-1-4.1H166c-0.3,1.2-0.6,2.4-0.9,3.7c-0.3,1.3-0.6,2.5-0.9,3.7c-0.5,0.2-1.1,0.4-1.7,0.5c-0.6,0.1-1.3,0.2-2.2,0.2
			c-2,0-3.4-0.4-4.3-1c-0.9-0.7-1.4-1.7-1.4-2.9c0-0.6,0.1-1.1,0.2-1.7c0.2-0.6,0.3-1.2,0.5-2c0.3-1.1,0.6-2.4,1.1-4
			c0.5-1.6,1-3.3,1.6-5.2c0.6-1.9,1.2-3.8,1.8-5.7c0.7-2,1.3-3.8,1.8-5.5c0.6-1.7,1.1-3.3,1.6-4.7C163.8,84.9,164.2,83.8,164.4,83.1
			z M171.3,90.9c-0.5,1.7-1.1,3.6-1.8,5.6c-0.7,2.1-1.3,4.2-1.8,6.3h7.1c-0.5-2.2-1.1-4.3-1.6-6.3c-0.6-2.1-1.1-3.9-1.5-5.5H171.3z"
			/>
		<path class="st2" d="M206.3,119.4c-0.7,0-1.4,0-2.2-0.1c-0.8,0-1.7-0.1-2.6-0.2c-0.9-0.1-1.8-0.3-2.7-0.5
			c-0.9-0.2-1.7-0.4-2.5-0.8c-2.1-0.8-3.2-2.3-3.2-4.4v-28c0-0.8,0.2-1.5,0.7-1.9c0.4-0.5,1-0.8,1.8-1.1c1.6-0.6,3.4-0.9,5.2-1.1
			c1.8-0.2,3.5-0.3,5-0.3c3,0,5.7,0.4,8.1,1.1c2.4,0.8,4.5,1.9,6.3,3.5c1.7,1.6,3.1,3.6,4.1,6c1,2.4,1.4,5.2,1.4,8.5
			c0,3.2-0.5,6-1.4,8.4c-0.9,2.4-2.2,4.4-3.9,6c-1.7,1.6-3.8,2.8-6.1,3.6C211.8,119,209.2,119.4,206.3,119.4z M203.1,110.6
			c0.4,0.1,0.9,0.1,1.6,0.2c0.6,0.1,1.2,0.1,1.7,0.1c1.3,0,2.5-0.2,3.6-0.6c1.1-0.4,2-1,2.8-1.9c0.8-0.8,1.4-1.9,1.8-3.3
			c0.4-1.3,0.7-2.9,0.7-4.8c0-3.6-0.8-6.3-2.4-8.1c-1.6-1.8-3.8-2.7-6.4-2.7c-0.5,0-1.1,0-1.6,0.1c-0.6,0-1.1,0.1-1.7,0.2V110.6z"/>
		<path class="st2" d="M231.4,87.6c0-1.7,0.5-3.1,1.4-4.1c1-1,2.3-1.5,3.9-1.5h19c0.3,0.4,0.5,1,0.7,1.7s0.3,1.5,0.3,2.3
			c0,1.5-0.3,2.6-0.9,3.2c-0.6,0.6-1.5,1-2.5,1h-12.1v5.6h13c0.3,0.4,0.5,1,0.7,1.7c0.2,0.7,0.3,1.5,0.3,2.2c0,1.5-0.3,2.6-0.9,3.2
			c-0.6,0.6-1.4,1-2.5,1h-10.6v6.3H256c0.3,0.4,0.5,1,0.7,1.7c0.2,0.7,0.3,1.5,0.3,2.3c0,1.5-0.3,2.6-0.9,3.3c-0.6,0.7-1.5,1-2.5,1
			h-16.8c-1.7,0-3-0.5-3.9-1.5c-1-1-1.4-2.4-1.4-4.1V87.6z"/>
	</g>
	<g class="st1">
		<path class="st2" d="M52.6,147.6c0-1.7,0.5-3.1,1.4-4.1c1-1,2.3-1.5,3.9-1.5h19c0.3,0.4,0.5,1,0.7,1.7s0.3,1.5,0.3,2.3
			c0,1.5-0.3,2.6-0.9,3.2c-0.6,0.6-1.5,1-2.5,1H62.4v5.6h13c0.3,0.4,0.5,1,0.7,1.7c0.2,0.7,0.3,1.5,0.3,2.2c0,1.5-0.3,2.6-0.9,3.2
			c-0.6,0.6-1.4,1-2.5,1H62.4v6.3h14.8c0.3,0.4,0.5,1,0.7,1.7c0.2,0.7,0.3,1.5,0.3,2.3c0,1.5-0.3,2.6-0.9,3.3c-0.6,0.7-1.5,1-2.5,1
			H58c-1.6,0-3-0.5-3.9-1.5c-1-1-1.4-2.4-1.4-4.1V147.6z"/>
		<path class="st2" d="M115.7,177.1c-0.5,0.6-1.3,1-2.3,1.3c-1,0.3-2.2,0.5-3.7,0.5c-1.4,0-2.8-0.2-4-0.7c-1.3-0.4-2.3-1.5-3.1-3.2
			l-5.7-12.1c-0.6-1.2-1.1-2.4-1.6-3.5c-0.5-1.1-1-2.4-1.5-3.8l-0.3,0.1c0.2,2.2,0.2,4.4,0.3,6.6c0,2.2,0,4.4,0,6.6v9.3
			c-0.4,0.1-1.1,0.2-1.9,0.4s-1.7,0.2-2.6,0.2c-0.8,0-1.6-0.1-2.2-0.2s-1.2-0.4-1.6-0.7c-0.4-0.4-0.7-0.8-1-1.5
			c-0.2-0.6-0.3-1.4-0.3-2.4v-30c0.5-0.8,1.4-1.4,2.5-1.8c1.1-0.4,2.3-0.6,3.6-0.6c1.4,0,2.8,0.2,4.1,0.7c1.3,0.5,2.3,1.5,3.1,3.2
			l5.8,12.1c0.6,1.2,1.1,2.4,1.6,3.5c0.5,1.1,1,2.4,1.5,3.8l0.3-0.1c-0.2-2.2-0.2-4.3-0.3-6.5c0-2.2-0.1-4.3-0.1-6.5V142
			c0.4-0.1,1.1-0.2,1.9-0.4c0.9-0.1,1.7-0.2,2.6-0.2c1.7,0,3,0.3,3.9,0.9s1.3,1.9,1.3,3.9V177.1z"/>
		<path class="st2" d="M121.6,150.4c-0.3-0.4-0.5-1-0.7-1.8c-0.2-0.8-0.3-1.6-0.3-2.4c0-1.6,0.3-2.7,1-3.4c0.7-0.7,1.5-1,2.6-1h25.1
			c0.3,0.4,0.5,1,0.7,1.8c0.2,0.8,0.3,1.6,0.3,2.4c0,1.6-0.3,2.7-1,3.4c-0.7,0.7-1.5,1-2.6,1h-6.4v27.7c-0.4,0.1-1.1,0.2-2,0.4
			s-1.8,0.2-2.7,0.2c-0.9,0-1.7-0.1-2.3-0.2c-0.7-0.1-1.2-0.4-1.7-0.8c-0.5-0.4-0.8-0.9-1-1.5c-0.2-0.6-0.3-1.5-0.3-2.5v-23.3H121.6
			z"/>
		<path class="st2" d="M165.2,166.6v11.5c-0.4,0.1-1.1,0.2-2,0.4c-0.9,0.1-1.8,0.2-2.7,0.2c-0.9,0-1.7-0.1-2.3-0.2
			c-0.7-0.1-1.2-0.4-1.7-0.8c-0.4-0.4-0.8-0.9-1-1.5c-0.2-0.6-0.3-1.5-0.3-2.5v-28.3c0-0.8,0.2-1.5,0.7-1.9c0.4-0.5,1-0.8,1.8-1.1
			c1.3-0.5,2.8-0.8,4.5-1s3.6-0.3,5.5-0.3c5.3,0,9.3,1.2,12,3.5c2.7,2.3,4,5.5,4,9.4c0,2.5-0.6,4.6-1.8,6.4
			c-1.2,1.8-2.7,3.1-4.4,4.1c1.4,2,2.7,3.8,4.1,5.5c1.3,1.7,2.4,3.3,3.2,4.7c-0.4,1.4-1.1,2.5-2.1,3.2c-1,0.7-2.2,1.1-3.4,1.1
			c-0.8,0-1.6-0.1-2.2-0.3c-0.6-0.2-1.2-0.5-1.6-0.8c-0.5-0.4-0.9-0.8-1.3-1.3c-0.4-0.5-0.7-1.1-1.1-1.7l-4.8-8.1H165.2z
			 M168.9,158.7c1.5,0,2.6-0.4,3.5-1.2c0.8-0.8,1.3-1.9,1.3-3.5c0-1.5-0.5-2.7-1.4-3.4c-0.9-0.8-2.4-1.2-4.5-1.2c-0.6,0-1,0-1.4,0.1
			c-0.3,0-0.7,0.1-1.2,0.2v9H168.9z"/>
		<path class="st2" d="M198.2,143.1c0.7-0.4,1.6-0.8,3-1.1s2.7-0.5,4-0.5c1.9,0,3.6,0.3,5.1,0.9c1.5,0.6,2.4,1.5,2.8,2.7
			c0.7,2.1,1.4,4.5,2.2,7.3c0.8,2.8,1.6,5.6,2.4,8.5c0.8,2.9,1.6,5.8,2.4,8.7c0.8,2.9,1.4,5.4,2,7.6c-0.5,0.6-1.2,1-2.1,1.3
			c-0.9,0.3-2,0.5-3.3,0.5c-0.9,0-1.7-0.1-2.3-0.2c-0.6-0.2-1.2-0.4-1.6-0.7c-0.4-0.3-0.7-0.7-1-1.3c-0.2-0.5-0.5-1.1-0.7-1.8
			l-1-4.1h-10.4c-0.3,1.2-0.6,2.4-0.9,3.7c-0.3,1.3-0.6,2.5-0.9,3.7c-0.5,0.2-1.1,0.4-1.7,0.5c-0.6,0.1-1.3,0.2-2.2,0.2
			c-2,0-3.4-0.4-4.3-1c-0.9-0.7-1.4-1.7-1.4-2.9c0-0.6,0.1-1.1,0.2-1.7c0.2-0.6,0.3-1.2,0.5-2c0.3-1.1,0.6-2.4,1.1-4
			c0.5-1.6,1-3.3,1.6-5.2c0.6-1.9,1.2-3.8,1.8-5.7c0.7-2,1.3-3.8,1.8-5.5c0.6-1.7,1.1-3.3,1.6-4.7
			C197.5,144.9,197.9,143.8,198.2,143.1z M205.1,150.9c-0.5,1.7-1.1,3.6-1.8,5.6c-0.7,2.1-1.3,4.2-1.8,6.3h7.1
			c-0.5-2.2-1.1-4.3-1.6-6.3c-0.6-2.1-1.1-3.9-1.5-5.5H205.1z"/>
		<path class="st2" d="M258.4,177.1c-0.5,0.6-1.3,1-2.3,1.3c-1,0.3-2.2,0.5-3.7,0.5c-1.4,0-2.8-0.2-4-0.7c-1.3-0.4-2.3-1.5-3.1-3.2
			l-5.7-12.1c-0.6-1.2-1.1-2.4-1.6-3.5c-0.5-1.1-1-2.4-1.5-3.8l-0.3,0.1c0.2,2.2,0.2,4.4,0.3,6.6c0,2.2,0,4.4,0,6.6v9.3
			c-0.4,0.1-1.1,0.2-1.9,0.4s-1.7,0.2-2.6,0.2c-0.8,0-1.6-0.1-2.2-0.2s-1.2-0.4-1.6-0.7c-0.4-0.4-0.7-0.8-1-1.5
			c-0.2-0.6-0.3-1.4-0.3-2.4v-30c0.5-0.8,1.4-1.4,2.5-1.8c1.1-0.4,2.3-0.6,3.6-0.6c1.4,0,2.8,0.2,4.1,0.7c1.3,0.5,2.3,1.5,3.1,3.2
			l5.8,12.1c0.6,1.2,1.1,2.4,1.6,3.5c0.5,1.1,1,2.4,1.5,3.8l0.3-0.1c-0.2-2.2-0.2-4.3-0.3-6.5c0-2.2-0.1-4.3-0.1-6.5V142
			c0.4-0.1,1.1-0.2,1.9-0.4c0.9-0.1,1.7-0.2,2.6-0.2c1.7,0,3,0.3,3.9,0.9s1.3,1.9,1.3,3.9V177.1z"/>
		<path class="st2" d="M283.7,149.4c-3,0-5.2,0.9-6.8,2.8c-1.6,1.9-2.4,4.5-2.4,8c0,3.5,0.9,6.2,2.6,8c1.7,1.9,4.1,2.8,7.1,2.8
			c1.6,0,2.9-0.2,4-0.7c1.1-0.4,2.1-0.9,3.1-1.5c0.7,0.6,1.2,1.2,1.5,2c0.4,0.8,0.5,1.7,0.5,2.7c0,1.6-0.9,3-2.6,4.2s-4.4,1.7-8,1.7
			c-2.6,0-5-0.4-7.3-1.1c-2.3-0.8-4.2-1.9-5.9-3.5c-1.7-1.6-3-3.6-4-6c-1-2.4-1.5-5.3-1.5-8.7c0-3.1,0.5-5.9,1.4-8.2
			c0.9-2.4,2.2-4.4,3.9-6c1.6-1.6,3.5-2.9,5.7-3.7s4.5-1.3,7-1.3c3.5,0,6.3,0.6,8.2,1.8c1.9,1.2,2.9,2.7,2.9,4.6
			c0,1-0.2,1.9-0.7,2.7c-0.5,0.8-1.1,1.4-1.7,1.8c-1-0.7-2.1-1.3-3.2-1.7C286.5,149.6,285.2,149.4,283.7,149.4z"/>
		<path class="st2" d="M298.8,147.6c0-1.7,0.5-3.1,1.4-4.1c1-1,2.3-1.5,3.9-1.5h19c0.3,0.4,0.5,1,0.7,1.7s0.3,1.5,0.3,2.3
			c0,1.5-0.3,2.6-0.9,3.2c-0.6,0.6-1.5,1-2.5,1h-12.1v5.6h13c0.3,0.4,0.5,1,0.7,1.7c0.2,0.7,0.3,1.5,0.3,2.2c0,1.5-0.3,2.6-0.9,3.2
			c-0.6,0.6-1.4,1-2.5,1h-10.6v6.3h14.8c0.3,0.4,0.5,1,0.7,1.7c0.2,0.7,0.3,1.5,0.3,2.3c0,1.5-0.3,2.6-0.9,3.3c-0.6,0.7-1.5,1-2.5,1
			h-16.8c-1.7,0-3-0.5-3.9-1.5c-1-1-1.4-2.4-1.4-4.1V147.6z"/>
	</g>
	<g id="XMLID_59_">
		<circle class="st3" cx="514.8" cy="99.7" r="8.8"/>
	</g>
	<g>
		<path class="st4" d="M671.3,60.2L658,73.4c-4.2,1.6-8.5,1.2-11.2-1.5l-3.2-3.2c-4.1-4.1-2.9-11.8,2.6-17.3l0.5-0.5
			c4.9-4.9,4.9-12.9,0-17.9c-4.9-4.9-12.9-4.9-17.9,0L493.2,168.8c-4.9,4.9-4.9,12.9,0,17.9c4.9,4.9,12.9,4.9,17.9,0l34.2-34.2
			c5.5-5.5,13.3-6.7,17.3-2.6l3.2,3.2c2.7,2.7,3.1,7,1.5,11.2L543.5,188c-4.8,4.8-4.8,12.6,0,17.4l0.5,0.5c4.8,4.8,12.6,4.8,17.4,0
			l22.7-22.7c-4,4-4,10.4,0,14.4l3.5,3.5c4,4,10.4,4,14.4,0l85.5-85.5c4-4,4-10.4,0-14.4l-3.5-3.5c-4-4-10.4-4-14.4,0l19.6-19.6
			c4.8-4.8,4.8-12.6,0-17.4l-0.5-0.5C683.9,55.4,676.1,55.4,671.3,60.2z"/>
	</g>
	<g id="XMLID_58_">
		<circle class="st3" cx="685.5" cy="179.5" r="8.8"/>
	</g>
	<g>
		<path class="st3" d="M665.8,159l-5.3-40.9c-1.3-10.2-10.7-17.8-21.9-17.8c-8.4,0-15.9,4.3-19.7,11.1l-1.4,2.5h-15.2V87.6h-7.9
			v26.3h-15.2l-1.4-2.5c-3.8-6.9-11.3-11.1-19.7-11.1c-11.2,0-20.6,7.7-21.9,17.8l-5.3,40.9c-0.8,5.8,1.2,11.5,5.4,15.9
			c4.2,4.3,10.2,6.8,16.5,6.8c9.4,0,17.8-5.5,20.9-13.6l5.6-14h38.1l5.6,14c3.1,8.2,11.4,13.6,20.9,13.6c6.3,0,12.4-2.5,16.5-6.8
			C664.7,170.5,666.6,164.7,665.8,159z"/>
	</g>
	<g>
		<path class="st2" d="M667.4,161.9l-5.4-45.3c-1.3-11.2-10.9-19.7-22.2-19.7c-8.5,0-16.2,4.7-20,12.3l-1.4,2.7H603V82.8h-8v29.1
			h-15.4l-1.4-2.7c-3.8-7.6-11.5-12.3-20-12.3c-11.3,0-20.9,8.5-22.2,19.7l-5.4,45.2c-0.8,6.4,1.2,12.8,5.4,17.6s10.4,7.6,16.8,7.6
			c9.6,0,18.1-6.1,21.2-15.1l5.7-15.5h38.7l5.7,15.5c3.1,9,11.6,15.1,21.2,15.1c6.4,0,12.5-2.8,16.8-7.6S668.2,168.2,667.4,161.9z
			 M655.9,174.1c-2.7,3.1-6.6,4.9-10.8,4.9c-6.1,0-11.6-3.9-13.6-9.7l-7.7-20.9H574l-7.7,20.8v0.1c-2,5.8-7.4,9.7-13.6,9.7
			c-4.1,0-8-1.8-10.8-4.9c-2.7-3.1-4-7.2-3.5-11.3l5.4-45.3c0.9-7.2,7-12.6,14.2-12.6c5.5,0,10.4,3,12.8,7.9l3.8,7.1h48.6l3.7-7.1
			v-0.1c2.4-4.9,7.4-7.9,12.8-7.9c7.3,0,13.4,5.4,14.2,12.6l5.4,45.3C659.9,166.9,658.6,171,655.9,174.1z"/>
	</g>
	<g>
		<path class="st2" d="M639.5,126.4c-4.4,0-8.1,3.6-8.1,8.1c0,4.4,3.6,8.1,8.1,8.1c4.4,0,8.1-3.6,8.1-8.1S644,126.4,639.5,126.4z"/>
	</g>
	<g>
		<path class="st2" d="M563.3,126.1h-8v4.4h-4.4v8h4.4v4.4h8v-4.4h4.4v-8h-4.4V126.1z"/>
	</g>
	<g>
		<path class="st2" d="M584,130.4h8.2v8H584V130.4z"/>
	</g>
	<g>
		<path class="st2" d="M605.3,130.4h8.2v8h-8.2V130.4z"/>
	</g>
</g>
</svg>
