<?xml version="1.0" encoding="utf-8"?>
<!-- Generator: Adobe Illustrator 23.0.3, SVG Export Plug-In . SVG Version: 6.00 Build 0)  -->
<svg version="1.1" id="Layer_1" xmlns="http://www.w3.org/2000/svg" xmlns:xlink="http://www.w3.org/1999/xlink" x="0px" y="0px"
	 viewBox="0 0 218 200" style="enable-background:new 0 0 218 200;" xml:space="preserve">
<style type="text/css">
	.st0{fill:#0F2D4E;}
</style>
<g>
	<g>
		<path class="st0" d="M82.3,73.4c12.9-12.9,32.7-14.8,47.6-5.6c-5.1,5-10.9,10.9-10.9,10.9c-4.1,4.9,0.5,7.7,2.8,7.7l27.3,0
			c1.4,0,2.6,0,2.6,0s1.2,0,2.6,0h5.3c1.4,0,2.6-1.2,2.6-2.6V46.1c0.2-3.4-3.6-6.8-7.5-2.9c0,0-6.4,6.3-10.9,10.7
			c-22.7-16.6-54.8-14.7-75.4,5.8c-12,12-17.6,27.9-16.9,43.6h19.4C70.4,92.5,74.1,81.6,82.3,73.4z"/>
		<path class="st0" d="M146.9,96.7c0.7,10.7-3,21.7-11.2,29.9c-12.9,12.9-32.7,14.8-47.6,5.6c5.1-5,10.9-10.9,10.9-10.9
			c4.1-4.9-0.5-7.7-2.8-7.6l-27.3,0c-1.4,0-2.6,0-2.6,0s-1.2,0-2.6,0h-5.3c-1.4,0-2.6,1.2-2.6,2.6v37.5c-0.2,3.4,3.6,6.8,7.5,2.9
			c0,0,6.4-6.3,10.9-10.7c22.8,16.6,54.8,14.7,75.4-5.8c12-12,17.6-27.9,16.9-43.6L146.9,96.7L146.9,96.7z"/>
	</g>
</g>
</svg>
