<?xml version="1.0" encoding="utf-8"?>
<!-- Generator: Adobe Illustrator 23.0.3, SVG Export Plug-In . SVG Version: 6.00 Build 0)  -->
<svg version="1.1" id="Layer_1" xmlns="http://www.w3.org/2000/svg" xmlns:xlink="http://www.w3.org/1999/xlink" x="0px" y="0px"
	 viewBox="0 0 720 250" style="enable-background:new 0 0 720 250;" xml:space="preserve">
<style type="text/css">
	.st0{fill:#FB8687;}
	.st1{enable-background:new    ;}
	.st2{fill:#0F2D4E;}
	.st3{fill:#69FCDC;}
	.st4{fill:#FFFFFF;}
	.st5{fill:#99D8E4;}
	.st6{fill:#99D8E4;stroke:#0F2D4E;stroke-width:7;stroke-linejoin:round;stroke-miterlimit:10;}
</style>
<g>
	<rect class="st0" width="720" height="250"/>
	<g class="st1">
		<path class="st2" d="M71.3,83.4c-3,0-5.2,0.9-6.8,2.8c-1.6,1.9-2.4,4.5-2.4,8c0,3.5,0.9,6.2,2.6,8c1.7,1.9,4.1,2.8,7.1,2.8
			c1.6,0,2.9-0.2,4-0.7c1.1-0.4,2.1-0.9,3.1-1.5c0.7,0.6,1.2,1.2,1.5,2c0.4,0.8,0.5,1.7,0.5,2.7c0,1.6-0.9,3-2.6,4.2s-4.4,1.7-8,1.7
			c-2.6,0-5-0.4-7.3-1.1c-2.3-0.8-4.2-1.9-5.9-3.5c-1.7-1.6-3-3.6-4-6c-1-2.4-1.5-5.3-1.5-8.7c0-3.1,0.5-5.9,1.4-8.2
			c0.9-2.4,2.2-4.4,3.9-6c1.6-1.6,3.5-2.9,5.7-3.7c2.2-0.8,4.5-1.3,7-1.3c3.5,0,6.3,0.6,8.2,1.8c1.9,1.2,2.9,2.7,2.9,4.6
			c0,1-0.2,1.9-0.7,2.7c-0.5,0.8-1.1,1.4-1.7,1.8c-1-0.7-2.1-1.3-3.2-1.7C74.1,83.6,72.7,83.4,71.3,83.4z"/>
		<path class="st2" d="M84,94.2c0-3.1,0.5-5.9,1.4-8.3c0.9-2.4,2.2-4.4,3.9-6c1.6-1.6,3.5-2.9,5.8-3.7c2.2-0.8,4.6-1.3,7.2-1.3
			s5,0.4,7.2,1.3c2.2,0.8,4.1,2.1,5.8,3.7c1.6,1.6,2.9,3.6,3.9,6c0.9,2.4,1.4,5.2,1.4,8.3s-0.5,5.9-1.4,8.3s-2.2,4.4-3.8,6.1
			c-1.6,1.6-3.6,2.9-5.8,3.7s-4.6,1.3-7.3,1.3s-5-0.4-7.3-1.3c-2.2-0.9-4.1-2.1-5.8-3.8c-1.6-1.6-2.9-3.7-3.8-6.1
			C84.5,100,84,97.2,84,94.2z M94.4,94.2c0,3.6,0.7,6.4,2.1,8.2s3.3,2.7,5.7,2.7c2.4,0,4.3-0.9,5.8-2.7c1.4-1.8,2.1-4.5,2.1-8.2
			c0-3.6-0.7-6.3-2.1-8.1c-1.4-1.8-3.3-2.7-5.7-2.7c-2.4,0-4.3,0.9-5.7,2.7C95.1,87.8,94.4,90.5,94.4,94.2z"/>
		<path class="st2" d="M150.7,76c0.3,0.4,0.5,1,0.7,1.8s0.3,1.5,0.3,2.3c0,1.6-0.3,2.7-0.9,3.3c-0.6,0.7-1.5,1-2.6,1h-12.1v6.8h12.6
			c0.3,0.4,0.6,1,0.8,1.7c0.2,0.7,0.3,1.5,0.3,2.3c0,1.5-0.3,2.6-0.9,3.3c-0.6,0.7-1.5,1-2.6,1h-10.1v12.7c-0.4,0.1-1.1,0.2-2,0.4
			s-1.8,0.2-2.7,0.2c-0.9,0-1.7-0.1-2.3-0.2c-0.7-0.1-1.2-0.4-1.7-0.8c-0.5-0.4-0.8-0.9-1-1.5c-0.2-0.6-0.3-1.5-0.3-2.5V81.6
			c0-1.7,0.5-3.1,1.4-4.1c1-1,2.3-1.5,3.9-1.5H150.7z"/>
		<path class="st2" d="M181.3,76c0.3,0.4,0.5,1,0.7,1.8s0.3,1.5,0.3,2.3c0,1.6-0.3,2.7-0.9,3.3c-0.6,0.7-1.5,1-2.6,1h-12.1v6.8h12.6
			c0.3,0.4,0.6,1,0.8,1.7c0.2,0.7,0.3,1.5,0.3,2.3c0,1.5-0.3,2.6-0.9,3.3c-0.6,0.7-1.5,1-2.6,1h-10.1v12.7c-0.4,0.1-1.1,0.2-2,0.4
			s-1.8,0.2-2.7,0.2c-0.9,0-1.7-0.1-2.3-0.2c-0.7-0.1-1.2-0.4-1.7-0.8c-0.5-0.4-0.8-0.9-1-1.5c-0.2-0.6-0.3-1.5-0.3-2.5V81.6
			c0-1.7,0.5-3.1,1.4-4.1c1-1,2.3-1.5,3.9-1.5H181.3z"/>
		<path class="st2" d="M187.3,81.6c0-1.7,0.5-3.1,1.4-4.1c1-1,2.3-1.5,3.9-1.5h19c0.3,0.4,0.5,1,0.7,1.7s0.3,1.5,0.3,2.3
			c0,1.5-0.3,2.6-0.9,3.2c-0.6,0.6-1.5,1-2.5,1h-12.1v5.6h13c0.3,0.4,0.5,1,0.7,1.7c0.2,0.7,0.3,1.5,0.3,2.2c0,1.5-0.3,2.6-0.9,3.2
			c-0.6,0.6-1.4,1-2.5,1h-10.6v6.3h14.8c0.3,0.4,0.5,1,0.7,1.7c0.2,0.7,0.3,1.5,0.3,2.3c0,1.5-0.3,2.6-0.9,3.3c-0.6,0.7-1.5,1-2.5,1
			h-16.8c-1.7,0-3-0.5-3.9-1.5c-1-1-1.4-2.4-1.4-4.1V81.6z"/>
		<path class="st2" d="M218.9,81.6c0-1.7,0.5-3.1,1.4-4.1c1-1,2.3-1.5,3.9-1.5h19c0.3,0.4,0.5,1,0.7,1.7s0.3,1.5,0.3,2.3
			c0,1.5-0.3,2.6-0.9,3.2c-0.6,0.6-1.5,1-2.5,1h-12.1v5.6h13c0.3,0.4,0.5,1,0.7,1.7c0.2,0.7,0.3,1.5,0.3,2.2c0,1.5-0.3,2.6-0.9,3.2
			c-0.6,0.6-1.4,1-2.5,1h-10.6v6.3h14.8c0.3,0.4,0.5,1,0.7,1.7c0.2,0.7,0.3,1.5,0.3,2.3c0,1.5-0.3,2.6-0.9,3.3c-0.6,0.7-1.5,1-2.5,1
			h-16.8c-1.7,0-3-0.5-3.9-1.5c-1-1-1.4-2.4-1.4-4.1V81.6z"/>
	</g>
	<g class="st1">
		<path class="st2" d="M63.4,157.9c-1.7-0.6-3.2-1.2-4.6-1.8c-1.4-0.6-2.6-1.4-3.6-2.2c-1-0.9-1.8-1.9-2.3-3.2
			c-0.6-1.2-0.8-2.7-0.8-4.5c0-3.4,1.3-6.1,3.8-8.2c2.5-2,6-3.1,10.6-3.1c1.6,0,3.2,0.1,4.6,0.4c1.4,0.2,2.6,0.6,3.7,1.1
			c1,0.5,1.8,1.1,2.4,1.9c0.6,0.8,0.9,1.7,0.9,2.7s-0.2,1.9-0.7,2.7c-0.5,0.7-1,1.4-1.7,1.9c-0.8-0.6-2-1-3.4-1.5
			c-1.4-0.4-3-0.6-4.7-0.6c-1.7,0-3,0.2-3.8,0.8c-0.8,0.5-1.2,1.1-1.2,1.9c0,0.6,0.2,1.1,0.7,1.5c0.5,0.4,1.2,0.7,2.2,1.1l3.1,1
			c3.6,1.2,6.4,2.7,8.3,4.6c1.9,1.9,2.9,4.4,2.9,7.6c0,3.4-1.3,6.2-3.9,8.2c-2.6,2.1-6.4,3.2-11.3,3.2c-1.8,0-3.4-0.2-4.9-0.5
			c-1.5-0.3-2.8-0.7-4-1.3c-1.1-0.6-2-1.3-2.6-2.2c-0.6-0.9-0.9-1.8-0.9-3c0-1.2,0.3-2.1,1-3c0.7-0.8,1.4-1.4,2.1-1.9
			c1.1,0.9,2.4,1.6,3.9,2.3s3.3,1,5.1,1c1.9,0,3.2-0.3,4-0.9c0.8-0.6,1.2-1.3,1.2-2.1s-0.3-1.4-0.9-1.8c-0.6-0.4-1.5-0.8-2.6-1.2
			L63.4,157.9z"/>
		<path class="st2" d="M116.4,172.2c-0.4,0.1-1.1,0.2-2,0.4c-0.9,0.1-1.8,0.2-2.7,0.2s-1.7-0.1-2.3-0.2c-0.7-0.1-1.2-0.4-1.7-0.8
			c-0.5-0.4-0.8-0.9-1-1.5c-0.2-0.6-0.3-1.5-0.3-2.5v-9.4H95.3v13.8c-0.4,0.1-1.1,0.2-2,0.4s-1.8,0.2-2.7,0.2
			c-0.9,0-1.7-0.1-2.3-0.2c-0.7-0.1-1.2-0.4-1.7-0.8c-0.5-0.4-0.8-0.9-1-1.5c-0.2-0.6-0.3-1.5-0.3-2.5V136c0.4-0.1,1.1-0.2,2-0.3
			c0.9-0.1,1.8-0.2,2.6-0.2c0.9,0,1.7,0.1,2.3,0.2c0.7,0.1,1.2,0.4,1.7,0.8c0.5,0.4,0.8,0.9,1,1.5c0.2,0.6,0.3,1.5,0.3,2.5v9.6h11.1
			v-14c0.4-0.1,1.1-0.2,2-0.3c0.9-0.1,1.8-0.2,2.6-0.2c0.9,0,1.7,0.1,2.3,0.2c0.7,0.1,1.2,0.4,1.7,0.8c0.5,0.4,0.8,0.9,1,1.5
			c0.2,0.6,0.3,1.5,0.3,2.5V172.2z"/>
		<path class="st2" d="M122.1,154.2c0-3.1,0.5-5.9,1.4-8.3c0.9-2.4,2.2-4.4,3.9-6c1.6-1.6,3.5-2.9,5.8-3.7c2.2-0.8,4.6-1.3,7.2-1.3
			s5,0.4,7.2,1.3c2.2,0.8,4.1,2.1,5.8,3.7c1.6,1.6,2.9,3.6,3.9,6c0.9,2.4,1.4,5.2,1.4,8.3s-0.5,5.9-1.4,8.3s-2.2,4.4-3.8,6.1
			c-1.6,1.6-3.6,2.9-5.8,3.7s-4.6,1.3-7.3,1.3s-5-0.4-7.3-1.3c-2.2-0.9-4.1-2.1-5.8-3.8c-1.6-1.6-2.9-3.7-3.8-6.1
			C122.6,160,122.1,157.2,122.1,154.2z M132.5,154.2c0,3.6,0.7,6.4,2.1,8.2s3.3,2.7,5.7,2.7c2.4,0,4.3-0.9,5.8-2.7
			c1.4-1.8,2.1-4.5,2.1-8.2c0-3.6-0.7-6.3-2.1-8.1c-1.4-1.8-3.3-2.7-5.7-2.7c-2.4,0-4.3,0.9-5.7,2.7
			C133.2,147.8,132.5,150.5,132.5,154.2z"/>
		<path class="st2" d="M174.4,172.2c-0.4,0.1-1.1,0.2-2,0.4s-1.8,0.2-2.7,0.2c-0.9,0-1.7-0.1-2.3-0.2c-0.7-0.1-1.2-0.4-1.7-0.8
			c-0.5-0.4-0.8-0.9-1-1.5c-0.2-0.6-0.3-1.5-0.3-2.5v-28.3c0-0.8,0.2-1.5,0.7-1.9c0.4-0.5,1-0.8,1.8-1.1c1.3-0.5,2.8-0.8,4.5-1
			c1.7-0.2,3.3-0.3,5-0.3c5.3,0,9.3,1.2,12.1,3.5c2.8,2.4,4.2,5.6,4.2,9.6c0,2-0.3,3.7-0.9,5.3c-0.6,1.6-1.5,2.9-2.6,4.1
			c-1.2,1.1-2.6,2-4.4,2.6s-3.8,0.9-6.2,0.9h-4.1V172.2z M177.4,152.9c1.6,0,2.8-0.4,3.7-1.2s1.3-2,1.3-3.6c0-1.5-0.5-2.7-1.4-3.5
			c-0.9-0.8-2.2-1.2-3.9-1.2c-0.6,0-1.1,0-1.5,0c-0.4,0-0.8,0.1-1.2,0.2v9.3H177.4z"/>
	</g>
	<circle id="XMLID_45_" class="st3" cx="554.8" cy="65.7" r="8.8"/>
	<path class="st4" d="M671.3,59.2L658,72.4c-4.2,1.6-8.5,1.2-11.2-1.5l-3.2-3.2c-4.1-4.1-2.9-11.8,2.6-17.3l0.5-0.5
		c4.9-4.9,4.9-12.9,0-17.9c-4.9-4.9-12.9-4.9-17.9,0L493.2,167.8c-4.9,4.9-4.9,12.9,0,17.9c4.9,4.9,12.9,4.9,17.9,0l34.2-34.2
		c5.5-5.5,13.3-6.7,17.3-2.6l3.2,3.2c2.7,2.7,3.1,7,1.5,11.2L543.5,187c-4.8,4.8-4.8,12.6,0,17.4l0.5,0.5c4.8,4.8,12.6,4.8,17.4,0
		l22.7-22.7c-4,4-4,10.4,0,14.4l3.5,3.5c4,4,10.4,4,14.4,0l85.5-85.5c4-4,4-10.4,0-14.4l-3.5-3.5c-4-4-10.4-4-14.4,0l19.6-19.6
		c4.8-4.8,4.8-12.6,0-17.4l-0.5-0.5C683.9,54.4,676.1,54.4,671.3,59.2z"/>
	<path id="XMLID_34_" class="st3" d="M598.7,167h-18.6c-27.4,0-49.5-22.2-49.5-49.5V90.9h117.6v26.5
		C648.2,144.8,626.1,167,598.7,167z"/>
	<g id="XMLID_12_">
		<path id="XMLID_13_" class="st2" d="M563.9,102.3h-32c-1.2,0-2.2-1-2.2-2.2l0,0c0-1.2,1-2.2,2.2-2.2h32c1.2,0,2.2,1,2.2,2.2l0,0
			C566.1,101.2,565.2,102.3,563.9,102.3z"/>
	</g>
	<g id="XMLID_14_">
		<path id="XMLID_15_" class="st2" d="M552.5,112.8H532c-1.2,0-2.2-1-2.2-2.2l0,0c0-1.2,1-2.2,2.2-2.2h20.5c1.2,0,2.2,1,2.2,2.2l0,0
			C554.7,111.9,553.6,112.8,552.5,112.8z"/>
	</g>
	<g id="XMLID_22_">
		<path id="XMLID_23_" class="st2" d="M554.2,135.6h-20.5c-1.2,0-2.2-1-2.2-2.2l0,0c0-1.2,1-2.2,2.2-2.2h20.5c1.2,0,2.2,1,2.2,2.2
			l0,0C556.4,134.7,555.4,135.6,554.2,135.6z"/>
	</g>
	<g id="XMLID_16_">
		<path id="XMLID_17_" class="st2" d="M567.4,112.8h-5.8c-1.2,0-2.2-1-2.2-2.2l0,0c0-1.2,1-2.2,2.2-2.2h5.8c1.2,0,2.2,1,2.2,2.2l0,0
			C569.6,111.9,568.5,112.8,567.4,112.8z"/>
	</g>
	<g id="XMLID_18_">
		<path id="XMLID_19_" class="st2" d="M538.7,123.8h-5.8c-1.2,0-2.2-1-2.2-2.2l0,0c0-1.2,1-2.2,2.2-2.2h5.8c1.2,0,2.2,1,2.2,2.2l0,0
			C540.8,122.8,539.9,123.8,538.7,123.8z"/>
	</g>
	<g id="XMLID_20_">
		<path id="XMLID_21_" class="st2" d="M557.6,123.8h-11.5c-1.2,0-2.2-1-2.2-2.2l0,0c0-1.2,1-2.2,2.2-2.2h11.5c1.2,0,2.2,1,2.2,2.2
			l0,0C559.8,122.8,558.7,123.8,557.6,123.8z"/>
	</g>
	<g id="XMLID_24_">
		<path id="XMLID_25_" class="st2" d="M549.7,146.5h-11.5c-1.2,0-2.2-1-2.2-2.2l0,0c0-1.2,1-2.2,2.2-2.2h11.5c1.2,0,2.2,1,2.2,2.2
			l0,0C551.9,145.5,550.8,146.5,549.7,146.5z"/>
	</g>
	<g id="XMLID_10_">
		<path id="XMLID_38_" class="st5" d="M647.4,100.8h10.5c11.4,0,20.6,9.3,20.6,20.6l0,0c0,11.4-9.3,20.7-20.6,20.7h-17l5-12.4h10.2
			c4.9,0,8.9-4,8.9-8.9l0,0c0-4.9-4-8.9-8.9-8.9h-8.7V100.8L647.4,100.8z"/>
		<path id="XMLID_39_" class="st2" d="M657.9,145.1h-21.4l7.4-18.4l12.2-0.1c3.3,0,5.9-2.7,5.9-5.9s-2.7-5.9-5.9-5.9h-11.6V97.9H658
			c13,0,23.6,10.6,23.6,23.6S670.9,145.1,657.9,145.1z M645.2,139.1h12.6c9.7,0,17.7-7.9,17.7-17.7s-7.9-17.7-17.7-17.7h-7.5v5h5.7
			c6.5,0,11.9,5.3,11.9,11.9c0,6.5-5.3,11.9-11.9,11.9h-8.2L645.2,139.1z"/>
	</g>
	<path id="XMLID_35_" class="st2" d="M597.8,170h-18.6c-28.9,0-52.5-23.5-52.5-52.5V87.9h123.6v29.5
		C650.3,146.4,626.8,170,597.8,170z M532.7,93.9v23.6c0,25.7,20.9,46.6,46.6,46.6h18.6c25.7,0,46.6-20.9,46.6-46.6V93.9H532.7z"/>
	<path id="XMLID_42_" class="st6" d="M628.9,181h-80.6c-7.7,0-14-6.3-14-14l0,0H643l0,0C642.9,174.7,636.6,181,628.9,181z"/>
	<circle id="XMLID_43_" class="st3" cx="675.5" cy="145.5" r="8.8"/>
</g>
</svg>
