<?xml version="1.0" encoding="utf-8"?>
<!-- Generator: Adobe Illustrator 23.0.3, SVG Export Plug-In . SVG Version: 6.00 Build 0)  -->
<svg version="1.1" id="Layer_1" xmlns="http://www.w3.org/2000/svg" xmlns:xlink="http://www.w3.org/1999/xlink" x="0px" y="0px"
	 viewBox="0 0 720 250" style="enable-background:new 0 0 720 250;" xml:space="preserve">
<style type="text/css">
	.st0{fill:#FFFFFF;}
	.st1{fill:#BDDCDF;}
	.st2{enable-background:new    ;}
	.st3{fill:#0F2D4E;}
	.st4{fill:#69FCDC;}
	.st5{fill:#99D8E4;}
</style>
<g>
	<g>
		<path class="st0" d="M671.3,60.2L658,73.4c-4.2,1.6-8.5,1.2-11.2-1.5l-3.2-3.2c-4.1-4.1-2.9-11.8,2.6-17.3l0.5-0.5
			c4.9-4.9,4.9-12.9,0-17.9c-4.9-4.9-12.9-4.9-17.9,0L493.2,168.8c-4.9,4.9-4.9,12.9,0,17.9c4.9,4.9,12.9,4.9,17.9,0l34.2-34.2
			c5.5-5.5,13.3-6.7,17.3-2.6l3.2,3.2c2.7,2.7,3.1,7,1.5,11.2L543.5,188c-4.8,4.8-4.8,12.6,0,17.4l0.5,0.5c4.8,4.8,12.6,4.8,17.4,0
			l22.7-22.7c-4,4-4,10.4,0,14.4l3.5,3.5c4,4,10.4,4,14.4,0l85.5-85.5c4-4,4-10.4,0-14.4l-3.5-3.5c-4-4-10.4-4-14.4,0l19.6-19.6
			c4.8-4.8,4.8-12.6,0-17.4l-0.5-0.5C683.9,55.4,676.1,55.4,671.3,60.2z"/>
	</g>
	<g>
		<rect class="st1" width="720" height="250"/>
	</g>
	<g class="st2">
		<path class="st3" d="M68.5,89.4c-3,0-5.2,0.9-6.8,2.8c-1.6,1.9-2.4,4.5-2.4,8c0,3.5,0.9,6.2,2.6,8c1.7,1.9,4.1,2.8,7.1,2.8
			c1.6,0,2.9-0.2,4-0.7c1.1-0.4,2.1-0.9,3.1-1.5c0.7,0.6,1.2,1.2,1.5,2c0.4,0.8,0.5,1.7,0.5,2.7c0,1.6-0.9,3-2.6,4.2s-4.4,1.7-8,1.7
			c-2.6,0-5-0.4-7.3-1.1c-2.3-0.8-4.2-1.9-5.9-3.5c-1.7-1.6-3-3.6-4-6c-1-2.4-1.5-5.3-1.5-8.7c0-3.1,0.5-5.9,1.4-8.2
			c0.9-2.4,2.2-4.4,3.9-6c1.6-1.6,3.5-2.9,5.7-3.7c2.2-0.8,4.5-1.3,7-1.3c3.5,0,6.3,0.6,8.2,1.8c1.9,1.2,2.9,2.7,2.9,4.6
			c0,1-0.2,1.9-0.7,2.7c-0.5,0.8-1.1,1.4-1.7,1.8c-1-0.7-2.1-1.3-3.2-1.7C71.3,89.6,70,89.4,68.5,89.4z"/>
		<path class="st3" d="M81.3,100.2c0-3.1,0.5-5.9,1.4-8.3c0.9-2.4,2.2-4.4,3.9-6c1.6-1.6,3.5-2.9,5.8-3.7c2.2-0.8,4.6-1.3,7.2-1.3
			s5,0.4,7.2,1.3c2.2,0.8,4.1,2.1,5.8,3.7c1.6,1.6,2.9,3.6,3.9,6c0.9,2.4,1.4,5.2,1.4,8.3s-0.5,5.9-1.4,8.3s-2.2,4.4-3.8,6.1
			c-1.6,1.6-3.6,2.9-5.8,3.7s-4.6,1.3-7.3,1.3s-5-0.4-7.3-1.3c-2.2-0.9-4.1-2.1-5.8-3.8c-1.6-1.6-2.9-3.7-3.8-6.1
			C81.8,106,81.3,103.2,81.3,100.2z M91.7,100.2c0,3.6,0.7,6.4,2.1,8.2s3.3,2.7,5.7,2.7c2.4,0,4.3-0.9,5.8-2.7
			c1.4-1.8,2.1-4.5,2.1-8.2c0-3.6-0.7-6.3-2.1-8.1c-1.4-1.8-3.3-2.7-5.7-2.7c-2.4,0-4.3,0.9-5.7,2.7C92.4,93.8,91.7,96.5,91.7,100.2
			z"/>
		<path class="st3" d="M147.4,109.5c-0.5,0.4-1.1,0.8-1.9,1.1c-0.8,0.3-1.7,0.4-2.7,0.4c-1.4,0-2.5-0.2-3.4-0.5s-1.5-1-1.8-1.9
			c-1.1-3.5-2-6.4-2.6-8.5c-0.7-2.2-1.2-4.1-1.6-5.7h-0.3c-0.1,2.4-0.2,4.5-0.3,6.4c-0.1,1.9-0.1,3.8-0.1,5.7s-0.1,3.7-0.1,5.6
			c-0.1,1.9-0.1,4-0.3,6.2c-0.5,0.2-1.2,0.4-2,0.5s-1.6,0.2-2.4,0.2c-1.7,0-3-0.3-3.9-0.8c-0.9-0.6-1.4-1.6-1.4-3.1l1.7-30.6
			c0.3-0.5,1-1.1,2-1.7c1-0.6,2.5-0.9,4.4-0.9c2,0,3.6,0.3,4.8,1c1.2,0.7,2,1.7,2.5,3.2c0.3,1,0.7,2.1,1.1,3.3
			c0.4,1.2,0.8,2.5,1.2,3.8c0.4,1.3,0.8,2.6,1.2,3.9c0.4,1.3,0.7,2.5,1,3.5h0.3c0.9-3.4,1.8-6.6,2.8-9.8c0.9-3.1,1.8-5.8,2.5-7.9
			c0.6-0.3,1.3-0.6,2.2-0.8s1.9-0.3,3-0.3c1.9,0,3.4,0.3,4.6,0.9c1.2,0.6,1.9,1.4,2.1,2.5c0.2,0.8,0.3,2,0.5,3.7
			c0.2,1.7,0.4,3.5,0.5,5.6c0.2,2.1,0.4,4.3,0.6,6.6c0.2,2.3,0.4,4.6,0.5,6.7c0.2,2.1,0.3,4.1,0.4,5.9s0.2,3.1,0.2,4.1
			c-0.7,0.4-1.3,0.7-2,0.9c-0.7,0.2-1.6,0.3-2.7,0.3c-1.5,0-2.7-0.3-3.7-0.8c-1-0.5-1.5-1.5-1.6-3.1c-0.2-4.4-0.4-8.3-0.4-11.8
			c-0.1-3.5-0.1-6.4-0.3-8.8h-0.3c-0.4,1.6-0.9,3.5-1.7,5.9C149.4,102.8,148.5,105.8,147.4,109.5z"/>
		<path class="st3" d="M179.3,118.2c-0.4,0.1-1.1,0.2-2,0.4s-1.8,0.2-2.7,0.2c-0.9,0-1.7-0.1-2.3-0.2c-0.7-0.1-1.2-0.4-1.7-0.8
			c-0.5-0.4-0.8-0.9-1-1.5c-0.2-0.6-0.3-1.5-0.3-2.5V85.5c0-0.8,0.2-1.5,0.7-1.9c0.4-0.5,1-0.8,1.8-1.1c1.3-0.5,2.8-0.8,4.5-1
			c1.7-0.2,3.3-0.3,5-0.3c5.3,0,9.3,1.2,12.1,3.5c2.8,2.4,4.2,5.6,4.2,9.6c0,2-0.3,3.7-0.9,5.3c-0.6,1.6-1.5,2.9-2.6,4.1
			c-1.2,1.1-2.6,2-4.4,2.6s-3.8,0.9-6.2,0.9h-4.1V118.2z M182.3,98.9c1.6,0,2.8-0.4,3.7-1.2s1.3-2,1.3-3.6c0-1.5-0.5-2.7-1.4-3.5
			c-0.9-0.8-2.2-1.2-3.9-1.2c-0.6,0-1.1,0-1.5,0c-0.4,0-0.8,0.1-1.2,0.2v9.3H182.3z"/>
		<path class="st3" d="M233.6,105c0,2.2-0.4,4.1-1.1,5.9c-0.7,1.8-1.7,3.3-3.1,4.6c-1.3,1.3-3,2.2-4.9,2.9c-1.9,0.7-4.1,1-6.5,1
			c-2.4,0-4.6-0.3-6.5-1s-3.5-1.7-4.9-2.9c-1.3-1.3-2.4-2.8-3.1-4.6c-0.7-1.8-1.1-3.8-1.1-5.9V82c0.4-0.1,1.1-0.2,2-0.3
			c0.9-0.1,1.8-0.2,2.6-0.2c0.9,0,1.7,0.1,2.3,0.2c0.7,0.1,1.2,0.4,1.7,0.8c0.5,0.4,0.8,0.9,1,1.5c0.2,0.6,0.3,1.5,0.3,2.5v18.3
			c0,1.9,0.5,3.4,1.5,4.5c1,1.1,2.3,1.6,3.9,1.6c1.6,0,3-0.5,4-1.6c1-1.1,1.5-2.6,1.5-4.5V82c0.4-0.1,1.1-0.2,2-0.3
			c0.9-0.1,1.8-0.2,2.6-0.2c0.9,0,1.7,0.1,2.3,0.2c0.7,0.1,1.2,0.4,1.7,0.8c0.5,0.4,0.8,0.9,1,1.5c0.2,0.6,0.3,1.5,0.3,2.5V105z"/>
		<path class="st3" d="M239.3,90.4c-0.3-0.4-0.5-1-0.7-1.8c-0.2-0.8-0.3-1.6-0.3-2.4c0-1.6,0.3-2.7,1-3.4c0.7-0.7,1.5-1,2.6-1h25.1
			c0.3,0.4,0.5,1,0.7,1.8c0.2,0.8,0.3,1.6,0.3,2.4c0,1.6-0.3,2.7-1,3.4c-0.7,0.7-1.5,1-2.6,1H258v27.7c-0.4,0.1-1.1,0.2-2,0.4
			s-1.8,0.2-2.7,0.2c-0.9,0-1.7-0.1-2.3-0.2c-0.7-0.1-1.2-0.4-1.7-0.8c-0.5-0.4-0.8-0.9-1-1.5c-0.2-0.6-0.3-1.5-0.3-2.5V90.4H239.3z
			"/>
		<path class="st3" d="M272.9,87.6c0-1.7,0.5-3.1,1.4-4.1c1-1,2.3-1.5,3.9-1.5h19c0.3,0.4,0.5,1,0.7,1.7s0.3,1.5,0.3,2.3
			c0,1.5-0.3,2.6-0.9,3.2c-0.6,0.6-1.5,1-2.5,1h-12.1v5.6h13c0.3,0.4,0.5,1,0.7,1.7c0.2,0.7,0.3,1.5,0.3,2.2c0,1.5-0.3,2.6-0.9,3.2
			c-0.6,0.6-1.4,1-2.5,1h-10.6v6.3h14.8c0.3,0.4,0.5,1,0.7,1.7c0.2,0.7,0.3,1.5,0.3,2.3c0,1.5-0.3,2.6-0.9,3.3c-0.6,0.7-1.5,1-2.5,1
			h-16.8c-1.7,0-3-0.5-3.9-1.5c-1-1-1.4-2.4-1.4-4.1V87.6z"/>
		<path class="st3" d="M314.4,106.6v11.5c-0.4,0.1-1.1,0.2-2,0.4c-0.9,0.1-1.8,0.2-2.7,0.2c-0.9,0-1.7-0.1-2.3-0.2
			c-0.7-0.1-1.2-0.4-1.7-0.8c-0.4-0.4-0.8-0.9-1-1.5c-0.2-0.6-0.3-1.5-0.3-2.5V85.5c0-0.8,0.2-1.5,0.7-1.9c0.4-0.5,1-0.8,1.8-1.1
			c1.3-0.5,2.8-0.8,4.5-1S315,81,317,81c5.3,0,9.3,1.2,12,3.5c2.7,2.3,4,5.5,4,9.4c0,2.5-0.6,4.6-1.8,6.4c-1.2,1.8-2.7,3.1-4.4,4.1
			c1.4,2,2.7,3.8,4.1,5.5c1.3,1.7,2.4,3.3,3.2,4.7c-0.4,1.4-1.1,2.5-2.1,3.2c-1,0.7-2.2,1.1-3.4,1.1c-0.8,0-1.6-0.1-2.2-0.3
			c-0.6-0.2-1.2-0.5-1.6-0.8c-0.5-0.4-0.9-0.8-1.3-1.3c-0.4-0.5-0.7-1.1-1.1-1.7l-4.8-8.1H314.4z M318.1,98.7c1.5,0,2.6-0.4,3.5-1.2
			c0.8-0.8,1.3-1.9,1.3-3.5c0-1.5-0.5-2.7-1.4-3.4c-0.9-0.8-2.4-1.2-4.5-1.2c-0.6,0-1,0-1.4,0.1c-0.3,0-0.7,0.1-1.2,0.2v9H318.1z"/>
	</g>
	<g class="st2">
		<path class="st3" d="M60.8,166.6v11.5c-0.4,0.1-1.1,0.2-2,0.4c-0.9,0.1-1.8,0.2-2.7,0.2c-0.9,0-1.7-0.1-2.3-0.2
			c-0.7-0.1-1.2-0.4-1.7-0.8c-0.4-0.4-0.8-0.9-1-1.5c-0.2-0.6-0.3-1.5-0.3-2.5v-28.3c0-0.8,0.2-1.5,0.7-1.9c0.4-0.5,1-0.8,1.8-1.1
			c1.3-0.5,2.8-0.8,4.5-1c1.7-0.2,3.6-0.3,5.5-0.3c5.3,0,9.3,1.2,12,3.5c2.7,2.3,4,5.5,4,9.4c0,2.5-0.6,4.6-1.8,6.4
			c-1.2,1.8-2.7,3.1-4.4,4.1c1.4,2,2.7,3.8,4.1,5.5c1.3,1.7,2.4,3.3,3.2,4.7c-0.4,1.4-1.1,2.5-2.1,3.2c-1,0.7-2.2,1.1-3.4,1.1
			c-0.8,0-1.6-0.1-2.2-0.3c-0.6-0.2-1.2-0.5-1.6-0.8c-0.5-0.4-0.9-0.8-1.3-1.3c-0.4-0.5-0.7-1.1-1.1-1.7l-4.8-8.1H60.8z M64.4,158.7
			c1.5,0,2.6-0.4,3.5-1.2c0.8-0.8,1.3-1.9,1.3-3.5c0-1.5-0.5-2.7-1.4-3.4c-0.9-0.8-2.4-1.2-4.5-1.2c-0.6,0-1,0-1.4,0.1
			c-0.3,0-0.7,0.1-1.2,0.2v9H64.4z"/>
		<path class="st3" d="M85.8,147.6c0-1.7,0.5-3.1,1.4-4.1c1-1,2.3-1.5,3.9-1.5h19c0.3,0.4,0.5,1,0.7,1.7s0.3,1.5,0.3,2.3
			c0,1.5-0.3,2.6-0.9,3.2c-0.6,0.6-1.5,1-2.5,1H95.6v5.6h13c0.3,0.4,0.5,1,0.7,1.7c0.2,0.7,0.3,1.5,0.3,2.2c0,1.5-0.3,2.6-0.9,3.2
			c-0.6,0.6-1.4,1-2.5,1H95.6v6.3h14.8c0.3,0.4,0.5,1,0.7,1.7c0.2,0.7,0.3,1.5,0.3,2.3c0,1.5-0.3,2.6-0.9,3.3c-0.6,0.7-1.5,1-2.5,1
			H91.2c-1.7,0-3-0.5-3.9-1.5c-1-1-1.4-2.4-1.4-4.1V147.6z"/>
		<path class="st3" d="M127.4,178.2c-0.4,0.1-1.1,0.2-2,0.4s-1.8,0.2-2.7,0.2c-0.9,0-1.7-0.1-2.3-0.2c-0.7-0.1-1.2-0.4-1.7-0.8
			c-0.5-0.4-0.8-0.9-1-1.5c-0.2-0.6-0.3-1.5-0.3-2.5v-28.3c0-0.8,0.2-1.5,0.7-1.9c0.4-0.5,1-0.8,1.8-1.1c1.3-0.5,2.8-0.8,4.5-1
			c1.7-0.2,3.3-0.3,5-0.3c5.3,0,9.3,1.2,12.1,3.5c2.8,2.4,4.2,5.6,4.2,9.6c0,2-0.3,3.7-0.9,5.3c-0.6,1.6-1.5,2.9-2.6,4.1
			c-1.2,1.1-2.6,2-4.4,2.6s-3.8,0.9-6.2,0.9h-4.1V178.2z M130.4,158.9c1.6,0,2.8-0.4,3.7-1.2s1.3-2,1.3-3.6c0-1.5-0.5-2.7-1.4-3.5
			c-0.9-0.8-2.2-1.2-3.9-1.2c-0.6,0-1.1,0-1.5,0c-0.4,0-0.8,0.1-1.2,0.2v9.3H130.4z"/>
		<path class="st3" d="M156.5,143.1c0.7-0.4,1.6-0.8,3-1.1s2.7-0.5,4-0.5c1.9,0,3.6,0.3,5.1,0.9c1.5,0.6,2.4,1.5,2.8,2.7
			c0.7,2.1,1.4,4.5,2.2,7.3c0.8,2.8,1.6,5.6,2.4,8.5c0.8,2.9,1.6,5.8,2.4,8.7c0.8,2.9,1.4,5.4,2,7.6c-0.5,0.6-1.2,1-2.1,1.3
			c-0.9,0.3-2,0.5-3.3,0.5c-0.9,0-1.7-0.1-2.3-0.2c-0.6-0.2-1.2-0.4-1.6-0.7c-0.4-0.3-0.7-0.7-1-1.3c-0.2-0.5-0.5-1.1-0.7-1.8
			l-1-4.1h-10.4c-0.3,1.2-0.6,2.4-0.9,3.7c-0.3,1.3-0.6,2.5-0.9,3.7c-0.5,0.2-1.1,0.4-1.7,0.5c-0.6,0.1-1.3,0.2-2.2,0.2
			c-2,0-3.4-0.4-4.3-1c-0.9-0.7-1.4-1.7-1.4-2.9c0-0.6,0.1-1.1,0.2-1.7c0.2-0.6,0.3-1.2,0.5-2c0.3-1.1,0.6-2.4,1.1-4
			c0.5-1.6,1-3.3,1.6-5.2c0.6-1.9,1.2-3.8,1.8-5.7c0.7-2,1.3-3.8,1.8-5.5c0.6-1.7,1.1-3.3,1.6-4.7
			C155.8,144.9,156.2,143.8,156.5,143.1z M163.4,150.9c-0.5,1.7-1.1,3.6-1.8,5.6c-0.7,2.1-1.3,4.2-1.8,6.3h7.1
			c-0.5-2.2-1.1-4.3-1.6-6.3c-0.6-2.1-1.1-3.9-1.5-5.5H163.4z"/>
		<path class="st3" d="M195.2,178.2c-0.4,0.1-1.1,0.2-2,0.4s-1.8,0.2-2.7,0.2c-0.9,0-1.7-0.1-2.3-0.2c-0.7-0.1-1.2-0.4-1.7-0.8
			c-0.5-0.4-0.8-0.9-1-1.5c-0.2-0.6-0.3-1.5-0.3-2.5V142c0.4-0.1,1.1-0.2,2-0.3c0.9-0.1,1.8-0.2,2.6-0.2c0.9,0,1.7,0.1,2.3,0.2
			c0.7,0.1,1.2,0.4,1.7,0.8c0.5,0.4,0.8,0.9,1,1.5c0.2,0.6,0.3,1.5,0.3,2.5V178.2z"/>
		<path class="st3" d="M212.7,166.6v11.5c-0.4,0.1-1.1,0.2-2,0.4c-0.9,0.1-1.8,0.2-2.7,0.2c-0.9,0-1.7-0.1-2.3-0.2
			c-0.7-0.1-1.2-0.4-1.7-0.8c-0.4-0.4-0.8-0.9-1-1.5c-0.2-0.6-0.3-1.5-0.3-2.5v-28.3c0-0.8,0.2-1.5,0.7-1.9c0.4-0.5,1-0.8,1.8-1.1
			c1.3-0.5,2.8-0.8,4.5-1s3.6-0.3,5.5-0.3c5.3,0,9.3,1.2,12,3.5c2.7,2.3,4,5.5,4,9.4c0,2.5-0.6,4.6-1.8,6.4
			c-1.2,1.8-2.7,3.1-4.4,4.1c1.4,2,2.7,3.8,4.1,5.5c1.3,1.7,2.4,3.3,3.2,4.7c-0.4,1.4-1.1,2.5-2.1,3.2c-1,0.7-2.2,1.1-3.4,1.1
			c-0.8,0-1.6-0.1-2.2-0.3c-0.6-0.2-1.2-0.5-1.6-0.8c-0.5-0.4-0.9-0.8-1.3-1.3c-0.4-0.5-0.7-1.1-1.1-1.7l-4.8-8.1H212.7z
			 M216.3,158.7c1.5,0,2.6-0.4,3.5-1.2c0.8-0.8,1.3-1.9,1.3-3.5c0-1.5-0.5-2.7-1.4-3.4c-0.9-0.8-2.4-1.2-4.5-1.2c-0.6,0-1,0-1.4,0.1
			c-0.3,0-0.7,0.1-1.2,0.2v9H216.3z"/>
		<path class="st3" d="M259.2,163.9c-1.7-0.6-3.2-1.2-4.6-1.8c-1.4-0.6-2.6-1.4-3.6-2.2c-1-0.9-1.8-1.9-2.3-3.2
			c-0.6-1.2-0.8-2.7-0.8-4.5c0-3.4,1.3-6.1,3.8-8.2c2.5-2,6-3.1,10.6-3.1c1.6,0,3.2,0.1,4.6,0.4c1.4,0.2,2.6,0.6,3.7,1.1
			c1,0.5,1.8,1.1,2.4,1.9c0.6,0.8,0.9,1.7,0.9,2.7s-0.2,1.9-0.7,2.7c-0.5,0.7-1,1.4-1.7,1.9c-0.8-0.6-2-1-3.4-1.5
			c-1.4-0.4-3-0.6-4.7-0.6c-1.7,0-3,0.2-3.8,0.8s-1.2,1.1-1.2,1.9c0,0.6,0.2,1.1,0.7,1.5c0.5,0.4,1.2,0.7,2.2,1.1l3.1,1
			c3.6,1.2,6.4,2.7,8.3,4.6c1.9,1.9,2.9,4.4,2.9,7.6c0,3.4-1.3,6.2-3.9,8.2c-2.6,2.1-6.4,3.2-11.3,3.2c-1.8,0-3.4-0.2-4.9-0.5
			s-2.8-0.7-4-1.3s-2-1.3-2.6-2.2c-0.6-0.9-0.9-1.8-0.9-3c0-1.2,0.3-2.1,1-3c0.7-0.8,1.4-1.4,2.1-1.9c1.1,0.9,2.4,1.6,3.9,2.3
			s3.3,1,5.1,1c1.9,0,3.2-0.3,4-0.9s1.2-1.3,1.2-2.1s-0.3-1.4-0.9-1.8c-0.6-0.4-1.5-0.8-2.6-1.2L259.2,163.9z"/>
		<path class="st3" d="M312.2,178.2c-0.4,0.1-1.1,0.2-2,0.4c-0.9,0.1-1.8,0.2-2.7,0.2s-1.7-0.1-2.3-0.2c-0.7-0.1-1.2-0.4-1.7-0.8
			c-0.5-0.4-0.8-0.9-1-1.5c-0.2-0.6-0.3-1.5-0.3-2.5v-9.4h-11.1v13.8c-0.4,0.1-1.1,0.2-2,0.4s-1.8,0.2-2.7,0.2
			c-0.9,0-1.7-0.1-2.3-0.2c-0.7-0.1-1.2-0.4-1.7-0.8c-0.5-0.4-0.8-0.9-1-1.5c-0.2-0.6-0.3-1.5-0.3-2.5V142c0.4-0.1,1.1-0.2,2-0.3
			c0.9-0.1,1.8-0.2,2.6-0.2c0.9,0,1.7,0.1,2.3,0.2c0.7,0.1,1.2,0.4,1.7,0.8c0.5,0.4,0.8,0.9,1,1.5c0.2,0.6,0.3,1.5,0.3,2.5v9.6h11.1
			v-14c0.4-0.1,1.1-0.2,2-0.3c0.9-0.1,1.8-0.2,2.6-0.2c0.9,0,1.7,0.1,2.3,0.2c0.7,0.1,1.2,0.4,1.7,0.8c0.5,0.4,0.8,0.9,1,1.5
			c0.2,0.6,0.3,1.5,0.3,2.5V178.2z"/>
		<path class="st3" d="M317.9,160.2c0-3.1,0.5-5.9,1.4-8.3c0.9-2.4,2.2-4.4,3.9-6c1.6-1.6,3.5-2.9,5.8-3.7c2.2-0.8,4.6-1.3,7.2-1.3
			s5,0.4,7.2,1.3c2.2,0.8,4.1,2.1,5.8,3.7c1.6,1.6,2.9,3.6,3.9,6c0.9,2.4,1.4,5.2,1.4,8.3s-0.5,5.9-1.4,8.3s-2.2,4.4-3.8,6.1
			c-1.6,1.6-3.6,2.9-5.8,3.7s-4.6,1.3-7.3,1.3s-5-0.4-7.3-1.3c-2.2-0.9-4.1-2.1-5.8-3.8c-1.6-1.6-2.9-3.7-3.8-6.1
			C318.4,166,317.9,163.2,317.9,160.2z M328.3,160.2c0,3.6,0.7,6.4,2.1,8.2s3.3,2.7,5.7,2.7c2.4,0,4.3-0.9,5.8-2.7
			c1.4-1.8,2.1-4.5,2.1-8.2c0-3.6-0.7-6.3-2.1-8.1c-1.4-1.8-3.3-2.7-5.7-2.7c-2.4,0-4.3,0.9-5.7,2.7
			C329,153.8,328.3,156.5,328.3,160.2z"/>
		<path class="st3" d="M370.2,178.2c-0.4,0.1-1.1,0.2-2,0.4s-1.8,0.2-2.7,0.2c-0.9,0-1.7-0.1-2.3-0.2c-0.7-0.1-1.2-0.4-1.7-0.8
			c-0.5-0.4-0.8-0.9-1-1.5c-0.2-0.6-0.3-1.5-0.3-2.5v-28.3c0-0.8,0.2-1.5,0.7-1.9c0.4-0.5,1-0.8,1.8-1.1c1.3-0.5,2.8-0.8,4.5-1
			c1.7-0.2,3.3-0.3,5-0.3c5.3,0,9.3,1.2,12.1,3.5c2.8,2.4,4.2,5.6,4.2,9.6c0,2-0.3,3.7-0.9,5.3c-0.6,1.6-1.5,2.9-2.6,4.1
			c-1.2,1.1-2.6,2-4.4,2.6s-3.8,0.9-6.2,0.9h-4.1V178.2z M373.2,158.9c1.6,0,2.8-0.4,3.7-1.2s1.3-2,1.3-3.6c0-1.5-0.5-2.7-1.4-3.5
			c-0.9-0.8-2.2-1.2-3.9-1.2c-0.6,0-1.1,0-1.5,0c-0.4,0-0.8,0.1-1.2,0.2v9.3H373.2z"/>
	</g>
	<g id="XMLID_40_">
		<circle class="st4" cx="500.8" cy="55.7" r="8.8"/>
	</g>
	<g>
		<path class="st0" d="M671.3,60.2L658,73.4c-4.2,1.6-8.5,1.2-11.2-1.5l-3.2-3.2c-4.1-4.1-2.9-11.8,2.6-17.3l0.5-0.5
			c4.9-4.9,4.9-12.9,0-17.9c-4.9-4.9-12.9-4.9-17.9,0L493.2,168.8c-4.9,4.9-4.9,12.9,0,17.9c4.9,4.9,12.9,4.9,17.9,0l34.2-34.2
			c5.5-5.5,13.3-6.7,17.3-2.6l3.2,3.2c2.7,2.7,3.1,7,1.5,11.2L543.5,188c-4.8,4.8-4.8,12.6,0,17.4l0.5,0.5c4.8,4.8,12.6,4.8,17.4,0
			l22.7-22.7c-4,4-4,10.4,0,14.4l3.5,3.5c4,4,10.4,4,14.4,0l85.5-85.5c4-4,4-10.4,0-14.4l-3.5-3.5c-4-4-10.4-4-14.4,0l19.6-19.6
			c4.8-4.8,4.8-12.6,0-17.4l-0.5-0.5C683.9,55.4,676.1,55.4,671.3,60.2z"/>
	</g>
	<g>
		<rect x="541.3" y="78" class="st4" width="120.5" height="73"/>
	</g>
	<g>
		<rect x="585.5" y="169" class="st5" width="35" height="11"/>
	</g>
	<g>
		<g>
			<path class="st3" d="M684.7,166c-0.2-0.2-0.4-0.3-0.6-0.3H520.3c-0.2,0-0.5,0.1-0.6,0.3c-0.2,0.2-0.2,0.4-0.2,0.7
				c0,0.2,2.5,15.3,21.7,15.3h122c19.2,0,21.6-15.2,21.7-15.3C684.9,166.4,684.8,166.2,684.7,166z M614.5,176.7h-24.6V171h24.6
				V176.7z"/>
		</g>
		<g>
			<path class="st3" d="M537.3,159.8H667c1.9,0,3.4-1.5,3.4-3.4V76.8c0-1.9-1.5-3.4-3.4-3.4H537.3c-1.9,0-3.4,1.5-3.4,3.4v79.7
				C534,158.3,535.5,159.8,537.3,159.8z M545.8,85.3h112.7V148H545.8C545.8,147.9,545.8,85.3,545.8,85.3z"/>
		</g>
	</g>
	<g id="XMLID_36_">
		<path class="st3" d="M636.2,98.9l-22.6,22.6c-0.8,0.8-2.3,0.8-3.1,0l0,0c-0.8-0.8-0.8-2.3,0-3.1l22.6-22.6c0.8-0.8,2.3-0.8,3.1,0
			l0,0C637,96.6,637.1,98,636.2,98.9z"/>
	</g>
	<g id="XMLID_31_">
		<path class="st3" d="M641.1,109l-14.5,14.5c-0.8,0.8-2.3,0.8-3.1,0l0,0c-0.8-0.8-0.8-2.3,0-3.1l14.5-14.5c0.8-0.8,2.3-0.8,3.1,0
			l0,0C641.9,106.8,641.9,108.2,641.1,109z"/>
	</g>
	<g id="XMLID_9_">
		<path class="st3" d="M649.6,100.5l-4.1,4.1c-0.8,0.8-2.3,0.8-3.1,0l0,0c-0.8-0.8-0.8-2.3,0-3.1l4.1-4.1c0.8-0.8,2.3-0.8,3.1,0l0,0
			C650.5,98.2,650.4,99.6,649.6,100.5z"/>
	</g>
	<g id="XMLID_6_">
		<path class="st3" d="M637,128.5l-4.1,4.1c-0.8,0.8-2.3,0.8-3.1,0l0,0c-0.8-0.8-0.8-2.3,0-3.1l4.1-4.1c0.8-0.8,2.3-0.8,3.1,0l0,0
			C637.9,126.3,637.9,127.6,637,128.5z"/>
	</g>
	<g id="XMLID_37_">
		<path class="st3" d="M636.2,98.9l-22.6,22.6c-0.8,0.8-2.3,0.8-3.1,0l0,0c-0.8-0.8-0.8-2.3,0-3.1l22.6-22.6c0.8-0.8,2.3-0.8,3.1,0
			l0,0C637,96.6,637.1,98,636.2,98.9z"/>
	</g>
	<g id="XMLID_33_">
		<path class="st3" d="M641.1,109l-14.5,14.5c-0.8,0.8-2.3,0.8-3.1,0l0,0c-0.8-0.8-0.8-2.3,0-3.1l14.5-14.5c0.8-0.8,2.3-0.8,3.1,0
			l0,0C641.9,106.8,641.9,108.2,641.1,109z"/>
	</g>
	<g id="XMLID_27_">
		<path class="st3" d="M649.6,100.5l-4.1,4.1c-0.8,0.8-2.3,0.8-3.1,0l0,0c-0.8-0.8-0.8-2.3,0-3.1l4.1-4.1c0.8-0.8,2.3-0.8,3.1,0l0,0
			C650.5,98.2,650.4,99.6,649.6,100.5z"/>
	</g>
	<g id="XMLID_7_">
		<path class="st3" d="M637,128.5l-4.1,4.1c-0.8,0.8-2.3,0.8-3.1,0l0,0c-0.8-0.8-0.8-2.3,0-3.1l4.1-4.1c0.8-0.8,2.3-0.8,3.1,0l0,0
			C637.9,126.3,637.9,127.6,637,128.5z"/>
	</g>
	<g id="XMLID_5_">
		<circle class="st4" cx="695.5" cy="140.5" r="8.8"/>
	</g>
</g>
</svg>
