<?xml version="1.0" encoding="utf-8"?>
<!-- Generator: Adobe Illustrator 23.0.3, SVG Export Plug-In . SVG Version: 6.00 Build 0)  -->
<svg version="1.1" id="Layer_1" xmlns="http://www.w3.org/2000/svg" xmlns:xlink="http://www.w3.org/1999/xlink" x="0px" y="0px"
	 viewBox="0 0 720 250" style="enable-background:new 0 0 720 250;" xml:space="preserve">
<style type="text/css">
	.st0{fill:#FF9319;}
	.st1{enable-background:new    ;}
	.st2{fill:#0F2D4E;}
	.st3{fill:#69FCDC;}
	.st4{fill:#FFFFFF;}
</style>
<g>
	<g>
		<rect class="st0" width="720" height="250"/>
	</g>
	<g class="st1">
		<path class="st2" d="M67.7,119.4c-0.7,0-1.4,0-2.2-0.1c-0.8,0-1.7-0.1-2.6-0.2c-0.9-0.1-1.8-0.3-2.7-0.5c-0.9-0.2-1.7-0.4-2.5-0.8
			c-2.1-0.8-3.2-2.3-3.2-4.4v-28c0-0.8,0.2-1.5,0.7-1.9c0.4-0.5,1-0.8,1.8-1.1c1.6-0.6,3.4-0.9,5.2-1.1c1.8-0.2,3.5-0.3,5-0.3
			c3,0,5.7,0.4,8.1,1.1c2.4,0.8,4.5,1.9,6.3,3.5c1.7,1.6,3.1,3.6,4.1,6c1,2.4,1.4,5.2,1.4,8.5c0,3.2-0.5,6-1.4,8.4
			c-0.9,2.4-2.2,4.4-3.9,6c-1.7,1.6-3.8,2.8-6.1,3.6C73.2,119,70.6,119.4,67.7,119.4z M64.5,110.6c0.4,0.1,0.9,0.1,1.6,0.2
			c0.6,0.1,1.2,0.1,1.7,0.1c1.3,0,2.5-0.2,3.6-0.6c1.1-0.4,2-1,2.8-1.9c0.8-0.8,1.4-1.9,1.8-3.3c0.4-1.3,0.7-2.9,0.7-4.8
			c0-3.6-0.8-6.3-2.4-8.1c-1.6-1.8-3.8-2.7-6.4-2.7c-0.5,0-1.1,0-1.6,0.1c-0.6,0-1.1,0.1-1.7,0.2V110.6z"/>
		<path class="st2" d="M102.8,106.6v11.5c-0.4,0.1-1.1,0.2-2,0.4c-0.9,0.1-1.8,0.2-2.7,0.2c-0.9,0-1.7-0.1-2.3-0.2
			c-0.7-0.1-1.2-0.4-1.7-0.8c-0.4-0.4-0.8-0.9-1-1.5c-0.2-0.6-0.3-1.5-0.3-2.5V85.5c0-0.8,0.2-1.5,0.7-1.9c0.4-0.5,1-0.8,1.8-1.1
			c1.3-0.5,2.8-0.8,4.5-1s3.6-0.3,5.5-0.3c5.3,0,9.3,1.2,12,3.5c2.7,2.3,4,5.5,4,9.4c0,2.5-0.6,4.6-1.8,6.4
			c-1.2,1.8-2.7,3.1-4.4,4.1c1.4,2,2.7,3.8,4.1,5.5c1.3,1.7,2.4,3.3,3.2,4.7c-0.4,1.4-1.1,2.5-2.1,3.2c-1,0.7-2.2,1.1-3.4,1.1
			c-0.8,0-1.6-0.1-2.2-0.3c-0.6-0.2-1.2-0.5-1.6-0.8c-0.5-0.4-0.9-0.8-1.3-1.3c-0.4-0.5-0.7-1.1-1.1-1.7l-4.8-8.1H102.8z
			 M106.4,98.7c1.5,0,2.6-0.4,3.5-1.2c0.8-0.8,1.3-1.9,1.3-3.5c0-1.5-0.5-2.7-1.4-3.4c-0.9-0.8-2.4-1.2-4.5-1.2c-0.6,0-1,0-1.4,0.1
			c-0.3,0-0.7,0.1-1.2,0.2v9H106.4z"/>
		<path class="st2" d="M127.8,87.6c0-1.7,0.5-3.1,1.4-4.1c1-1,2.3-1.5,3.9-1.5h19c0.3,0.4,0.5,1,0.7,1.7s0.3,1.5,0.3,2.3
			c0,1.5-0.3,2.6-0.9,3.2c-0.6,0.6-1.5,1-2.5,1h-12.1v5.6h13c0.3,0.4,0.5,1,0.7,1.7c0.2,0.7,0.3,1.5,0.3,2.2c0,1.5-0.3,2.6-0.9,3.2
			c-0.6,0.6-1.4,1-2.5,1h-10.6v6.3h14.8c0.3,0.4,0.5,1,0.7,1.7c0.2,0.7,0.3,1.5,0.3,2.3c0,1.5-0.3,2.6-0.9,3.3c-0.6,0.7-1.5,1-2.5,1
			h-16.8c-1.7,0-3-0.5-3.9-1.5c-1-1-1.4-2.4-1.4-4.1V87.6z"/>
		<path class="st2" d="M167.6,83.1c0.7-0.4,1.6-0.8,3-1.1s2.7-0.5,4-0.5c1.9,0,3.6,0.3,5.1,0.9c1.5,0.6,2.4,1.5,2.8,2.7
			c0.7,2.1,1.4,4.5,2.2,7.3c0.8,2.8,1.6,5.6,2.4,8.5c0.8,2.9,1.6,5.8,2.4,8.7c0.8,2.9,1.4,5.4,2,7.6c-0.5,0.6-1.2,1-2.1,1.3
			c-0.9,0.3-2,0.5-3.3,0.5c-0.9,0-1.7-0.1-2.3-0.2c-0.6-0.2-1.2-0.4-1.6-0.7c-0.4-0.3-0.7-0.7-1-1.3c-0.2-0.5-0.5-1.1-0.7-1.8
			l-1-4.1h-10.4c-0.3,1.2-0.6,2.4-0.9,3.7c-0.3,1.3-0.6,2.5-0.9,3.7c-0.5,0.2-1.1,0.4-1.7,0.5c-0.6,0.1-1.3,0.2-2.2,0.2
			c-2,0-3.4-0.4-4.3-1c-0.9-0.7-1.4-1.7-1.4-2.9c0-0.6,0.1-1.1,0.2-1.7c0.2-0.6,0.3-1.2,0.5-2c0.3-1.1,0.6-2.4,1.1-4
			c0.5-1.6,1-3.3,1.6-5.2c0.6-1.9,1.2-3.8,1.8-5.7c0.7-2,1.3-3.8,1.8-5.5c0.6-1.7,1.1-3.3,1.6-4.7C166.9,84.9,167.3,83.8,167.6,83.1
			z M174.5,90.9c-0.5,1.7-1.1,3.6-1.8,5.6c-0.7,2.1-1.3,4.2-1.8,6.3h7.1c-0.5-2.2-1.1-4.3-1.6-6.3c-0.6-2.1-1.1-3.9-1.5-5.5H174.5z"
			/>
		<path class="st2" d="M220.3,109.5c-0.5,0.4-1.1,0.8-1.9,1.1c-0.8,0.3-1.7,0.4-2.7,0.4c-1.4,0-2.5-0.2-3.4-0.5s-1.5-1-1.8-1.9
			c-1.1-3.5-2-6.4-2.6-8.5c-0.7-2.2-1.2-4.1-1.6-5.7H206c-0.1,2.4-0.2,4.5-0.3,6.4c-0.1,1.9-0.1,3.8-0.1,5.7s-0.1,3.7-0.1,5.6
			c-0.1,1.9-0.1,4-0.3,6.2c-0.5,0.2-1.2,0.4-2,0.5s-1.6,0.2-2.4,0.2c-1.7,0-3-0.3-3.9-0.8c-0.9-0.6-1.4-1.6-1.4-3.1l1.7-30.6
			c0.3-0.5,1-1.1,2-1.7c1-0.6,2.5-0.9,4.4-0.9c2,0,3.6,0.3,4.8,1c1.2,0.7,2,1.7,2.5,3.2c0.3,1,0.7,2.1,1.1,3.3
			c0.4,1.2,0.8,2.5,1.2,3.8c0.4,1.3,0.8,2.6,1.2,3.9c0.4,1.3,0.7,2.5,1,3.5h0.3c0.9-3.4,1.8-6.6,2.8-9.8c0.9-3.1,1.8-5.8,2.5-7.9
			c0.6-0.3,1.3-0.6,2.2-0.8s1.9-0.3,3-0.3c1.9,0,3.4,0.3,4.6,0.9c1.2,0.6,1.9,1.4,2.1,2.5c0.2,0.8,0.3,2,0.5,3.7
			c0.2,1.7,0.4,3.5,0.5,5.6c0.2,2.1,0.4,4.3,0.6,6.6c0.2,2.3,0.4,4.6,0.5,6.7c0.2,2.1,0.3,4.1,0.4,5.9s0.2,3.1,0.2,4.1
			c-0.7,0.4-1.3,0.7-2,0.9c-0.7,0.2-1.6,0.3-2.7,0.3c-1.5,0-2.7-0.3-3.7-0.8c-1-0.5-1.5-1.5-1.6-3.1c-0.2-4.4-0.4-8.3-0.4-11.8
			c-0.1-3.5-0.1-6.4-0.3-8.8h-0.3c-0.4,1.6-0.9,3.5-1.7,5.9C222.3,102.8,221.4,105.8,220.3,109.5z"/>
		<path class="st2" d="M273.3,118.2c-0.4,0.1-1.1,0.2-2,0.4c-0.9,0.1-1.8,0.2-2.7,0.2s-1.7-0.1-2.3-0.2c-0.7-0.1-1.2-0.4-1.7-0.8
			c-0.5-0.4-0.8-0.9-1-1.5c-0.2-0.6-0.3-1.5-0.3-2.5v-9.4h-11.1v13.8c-0.4,0.1-1.1,0.2-2,0.4s-1.8,0.2-2.7,0.2
			c-0.9,0-1.7-0.1-2.3-0.2c-0.7-0.1-1.2-0.4-1.7-0.8c-0.5-0.4-0.8-0.9-1-1.5c-0.2-0.6-0.3-1.5-0.3-2.5V82c0.4-0.1,1.1-0.2,2-0.3
			c0.9-0.1,1.8-0.2,2.6-0.2c0.9,0,1.7,0.1,2.3,0.2c0.7,0.1,1.2,0.4,1.7,0.8c0.5,0.4,0.8,0.9,1,1.5c0.2,0.6,0.3,1.5,0.3,2.5v9.6h11.1
			V82c0.4-0.1,1.1-0.2,2-0.3c0.9-0.1,1.8-0.2,2.6-0.2c0.9,0,1.7,0.1,2.3,0.2c0.7,0.1,1.2,0.4,1.7,0.8c0.5,0.4,0.8,0.9,1,1.5
			c0.2,0.6,0.3,1.5,0.3,2.5V118.2z"/>
		<path class="st2" d="M288.2,83.1c0.7-0.4,1.6-0.8,3-1.1s2.7-0.5,4-0.5c1.9,0,3.6,0.3,5.1,0.9c1.5,0.6,2.4,1.5,2.8,2.7
			c0.7,2.1,1.4,4.5,2.2,7.3c0.8,2.8,1.6,5.6,2.4,8.5c0.8,2.9,1.6,5.8,2.4,8.7c0.8,2.9,1.4,5.4,2,7.6c-0.5,0.6-1.2,1-2.1,1.3
			c-0.9,0.3-2,0.5-3.3,0.5c-0.9,0-1.7-0.1-2.3-0.2c-0.6-0.2-1.2-0.4-1.6-0.7c-0.4-0.3-0.7-0.7-1-1.3c-0.2-0.5-0.5-1.1-0.7-1.8
			l-1-4.1h-10.4c-0.3,1.2-0.6,2.4-0.9,3.7c-0.3,1.3-0.6,2.5-0.9,3.7c-0.5,0.2-1.1,0.4-1.7,0.5c-0.6,0.1-1.3,0.2-2.2,0.2
			c-2,0-3.4-0.4-4.3-1c-0.9-0.7-1.4-1.7-1.4-2.9c0-0.6,0.1-1.1,0.2-1.7c0.2-0.6,0.3-1.2,0.5-2c0.3-1.1,0.6-2.4,1.1-4
			c0.5-1.6,1-3.3,1.6-5.2c0.6-1.9,1.2-3.8,1.8-5.7c0.7-2,1.3-3.8,1.8-5.5c0.6-1.7,1.1-3.3,1.6-4.7C287.6,84.9,287.9,83.8,288.2,83.1
			z M295.1,90.9c-0.5,1.7-1.1,3.6-1.8,5.6c-0.7,2.1-1.3,4.2-1.8,6.3h7.1c-0.5-2.2-1.1-4.3-1.6-6.3c-0.6-2.1-1.1-3.9-1.5-5.5H295.1z"
			/>
		<path class="st2" d="M334.1,89.4c-3,0-5.2,0.9-6.8,2.8c-1.6,1.9-2.4,4.5-2.4,8c0,3.5,0.9,6.2,2.6,8c1.7,1.9,4.1,2.8,7.1,2.8
			c1.6,0,2.9-0.2,4-0.7c1.1-0.4,2.1-0.9,3.1-1.5c0.7,0.6,1.2,1.2,1.5,2c0.4,0.8,0.5,1.7,0.5,2.7c0,1.6-0.9,3-2.6,4.2s-4.4,1.7-8,1.7
			c-2.6,0-5-0.4-7.3-1.1c-2.3-0.8-4.2-1.9-5.9-3.5c-1.7-1.6-3-3.6-4-6c-1-2.4-1.5-5.3-1.5-8.7c0-3.1,0.5-5.9,1.4-8.2
			c0.9-2.4,2.2-4.4,3.9-6c1.6-1.6,3.5-2.9,5.7-3.7s4.5-1.3,7-1.3c3.5,0,6.3,0.6,8.2,1.8c1.9,1.2,2.9,2.7,2.9,4.6
			c0,1-0.2,1.9-0.7,2.7c-0.5,0.8-1.1,1.4-1.7,1.8c-1-0.7-2.1-1.3-3.2-1.7C336.9,89.6,335.6,89.4,334.1,89.4z"/>
		<path class="st2" d="M359.3,104.9v13.3c-0.4,0.1-1.1,0.2-2,0.4s-1.8,0.2-2.7,0.2c-0.9,0-1.7-0.1-2.3-0.2c-0.7-0.1-1.2-0.4-1.7-0.8
			c-0.5-0.4-0.8-0.9-1-1.5c-0.2-0.6-0.3-1.5-0.3-2.5V82c0.4-0.1,1.1-0.2,2-0.3c0.9-0.1,1.8-0.2,2.6-0.2c0.9,0,1.7,0.1,2.3,0.2
			c0.7,0.1,1.2,0.4,1.7,0.8c0.5,0.4,0.8,0.9,1,1.5c0.2,0.6,0.3,1.5,0.3,2.5V96l12-14.3c2.6,0,4.5,0.5,5.6,1.5c1.1,1,1.7,2.2,1.7,3.6
			c0,1-0.2,2-0.7,2.9c-0.5,0.9-1.3,2-2.4,3.1l-7.2,7.5c1,1.1,2,2.3,3,3.5c1.1,1.2,2.1,2.4,3.1,3.5c1,1.1,2,2.2,2.9,3.3
			c0.9,1,1.8,1.9,2.4,2.7c0,0.9-0.2,1.7-0.5,2.3c-0.3,0.7-0.7,1.3-1.2,1.7c-0.5,0.5-1.1,0.8-1.8,1.1c-0.7,0.2-1.3,0.4-2.1,0.4
			c-1.6,0-2.9-0.4-3.9-1.2c-1-0.8-2-1.8-2.9-2.9L359.3,104.9z"/>
	</g>
	<g class="st1">
		<path class="st2" d="M54.5,147.6c0-1.7,0.5-3.1,1.4-4.1c1-1,2.3-1.5,3.9-1.5h19c0.3,0.4,0.5,1,0.7,1.7s0.3,1.5,0.3,2.3
			c0,1.5-0.3,2.6-0.9,3.2c-0.6,0.6-1.5,1-2.5,1H64.2v5.6h13c0.3,0.4,0.5,1,0.7,1.7c0.2,0.7,0.3,1.5,0.3,2.2c0,1.5-0.3,2.6-0.9,3.2
			c-0.6,0.6-1.4,1-2.5,1H64.2v6.3H79c0.3,0.4,0.5,1,0.7,1.7c0.2,0.7,0.3,1.5,0.3,2.3c0,1.5-0.3,2.6-0.9,3.3c-0.6,0.7-1.5,1-2.5,1
			H59.8c-1.6,0-3-0.5-3.9-1.5c-1-1-1.4-2.4-1.4-4.1V147.6z"/>
		<path class="st2" d="M117.6,177.1c-0.5,0.6-1.3,1-2.3,1.3c-1,0.3-2.2,0.5-3.7,0.5c-1.4,0-2.8-0.2-4-0.7c-1.3-0.4-2.3-1.5-3.1-3.2
			l-5.7-12.1c-0.6-1.2-1.1-2.4-1.6-3.5c-0.5-1.1-1-2.4-1.5-3.8l-0.3,0.1c0.2,2.2,0.2,4.4,0.3,6.6c0,2.2,0,4.4,0,6.6v9.3
			c-0.4,0.1-1.1,0.2-1.9,0.4s-1.7,0.2-2.6,0.2c-0.8,0-1.6-0.1-2.2-0.2s-1.2-0.4-1.6-0.7c-0.4-0.4-0.7-0.8-1-1.5
			c-0.2-0.6-0.3-1.4-0.3-2.4v-30c0.5-0.8,1.4-1.4,2.5-1.8c1.1-0.4,2.3-0.6,3.6-0.6c1.4,0,2.8,0.2,4.1,0.7c1.3,0.5,2.3,1.5,3.1,3.2
			l5.8,12.1c0.6,1.2,1.1,2.4,1.6,3.5c0.5,1.1,1,2.4,1.5,3.8l0.3-0.1c-0.2-2.2-0.2-4.3-0.3-6.5c0-2.2-0.1-4.3-0.1-6.5V142
			c0.4-0.1,1.1-0.2,1.9-0.4c0.9-0.1,1.7-0.2,2.6-0.2c1.7,0,3,0.3,3.9,0.9s1.3,1.9,1.3,3.9V177.1z"/>
		<path class="st2" d="M123.5,150.4c-0.3-0.4-0.5-1-0.7-1.8c-0.2-0.8-0.3-1.6-0.3-2.4c0-1.6,0.3-2.7,1-3.4c0.7-0.7,1.5-1,2.6-1h25.1
			c0.3,0.4,0.5,1,0.7,1.8c0.2,0.8,0.3,1.6,0.3,2.4c0,1.6-0.3,2.7-1,3.4c-0.7,0.7-1.5,1-2.6,1h-6.4v27.7c-0.4,0.1-1.1,0.2-2,0.4
			s-1.8,0.2-2.7,0.2c-0.9,0-1.7-0.1-2.3-0.2c-0.7-0.1-1.2-0.4-1.7-0.8c-0.5-0.4-0.8-0.9-1-1.5c-0.2-0.6-0.3-1.5-0.3-2.5v-23.3H123.5
			z"/>
		<path class="st2" d="M167.1,166.6v11.5c-0.4,0.1-1.1,0.2-2,0.4c-0.9,0.1-1.8,0.2-2.7,0.2c-0.9,0-1.7-0.1-2.3-0.2
			c-0.7-0.1-1.2-0.4-1.7-0.8c-0.4-0.4-0.8-0.9-1-1.5c-0.2-0.6-0.3-1.5-0.3-2.5v-28.3c0-0.8,0.2-1.5,0.7-1.9c0.4-0.5,1-0.8,1.8-1.1
			c1.3-0.5,2.8-0.8,4.5-1s3.6-0.3,5.5-0.3c5.3,0,9.3,1.2,12,3.5c2.7,2.3,4,5.5,4,9.4c0,2.5-0.6,4.6-1.8,6.4
			c-1.2,1.8-2.7,3.1-4.4,4.1c1.4,2,2.7,3.8,4.1,5.5c1.3,1.7,2.4,3.3,3.2,4.7c-0.4,1.4-1.1,2.5-2.1,3.2c-1,0.7-2.2,1.1-3.4,1.1
			c-0.8,0-1.6-0.1-2.2-0.3c-0.6-0.2-1.2-0.5-1.6-0.8c-0.5-0.4-0.9-0.8-1.3-1.3c-0.4-0.5-0.7-1.1-1.1-1.7l-4.8-8.1H167.1z
			 M170.7,158.7c1.5,0,2.6-0.4,3.5-1.2c0.8-0.8,1.3-1.9,1.3-3.5c0-1.5-0.5-2.7-1.4-3.4c-0.9-0.8-2.4-1.2-4.5-1.2c-0.6,0-1,0-1.4,0.1
			c-0.3,0-0.7,0.1-1.2,0.2v9H170.7z"/>
		<path class="st2" d="M200,143.1c0.7-0.4,1.6-0.8,3-1.1s2.7-0.5,4-0.5c1.9,0,3.6,0.3,5.1,0.9c1.5,0.6,2.4,1.5,2.8,2.7
			c0.7,2.1,1.4,4.5,2.2,7.3c0.8,2.8,1.6,5.6,2.4,8.5c0.8,2.9,1.6,5.8,2.4,8.7c0.8,2.9,1.4,5.4,2,7.6c-0.5,0.6-1.2,1-2.1,1.3
			c-0.9,0.3-2,0.5-3.3,0.5c-0.9,0-1.7-0.1-2.3-0.2c-0.6-0.2-1.2-0.4-1.6-0.7c-0.4-0.3-0.7-0.7-1-1.3c-0.2-0.5-0.5-1.1-0.7-1.8
			l-1-4.1h-10.4c-0.3,1.2-0.6,2.4-0.9,3.7c-0.3,1.3-0.6,2.5-0.9,3.7c-0.5,0.2-1.1,0.4-1.7,0.5c-0.6,0.1-1.3,0.2-2.2,0.2
			c-2,0-3.4-0.4-4.3-1c-0.9-0.7-1.4-1.7-1.4-2.9c0-0.6,0.1-1.1,0.2-1.7c0.2-0.6,0.3-1.2,0.5-2c0.3-1.1,0.6-2.4,1.1-4
			c0.5-1.6,1-3.3,1.6-5.2c0.6-1.9,1.2-3.8,1.8-5.7c0.7-2,1.3-3.8,1.8-5.5c0.6-1.7,1.1-3.3,1.6-4.7
			C199.4,144.9,199.8,143.8,200,143.1z M206.9,150.9c-0.5,1.7-1.1,3.6-1.8,5.6c-0.7,2.1-1.3,4.2-1.8,6.3h7.1
			c-0.5-2.2-1.1-4.3-1.6-6.3c-0.6-2.1-1.1-3.9-1.5-5.5H206.9z"/>
		<path class="st2" d="M260.3,177.1c-0.5,0.6-1.3,1-2.3,1.3c-1,0.3-2.2,0.5-3.7,0.5c-1.4,0-2.8-0.2-4-0.7c-1.3-0.4-2.3-1.5-3.1-3.2
			l-5.7-12.1c-0.6-1.2-1.1-2.4-1.6-3.5c-0.5-1.1-1-2.4-1.5-3.8l-0.3,0.1c0.2,2.2,0.2,4.4,0.3,6.6c0,2.2,0,4.4,0,6.6v9.3
			c-0.4,0.1-1.1,0.2-1.9,0.4s-1.7,0.2-2.6,0.2c-0.8,0-1.6-0.1-2.2-0.2s-1.2-0.4-1.6-0.7c-0.4-0.4-0.7-0.8-1-1.5
			c-0.2-0.6-0.3-1.4-0.3-2.4v-30c0.5-0.8,1.4-1.4,2.5-1.8c1.1-0.4,2.3-0.6,3.6-0.6c1.4,0,2.8,0.2,4.1,0.7c1.3,0.5,2.3,1.5,3.1,3.2
			l5.8,12.1c0.6,1.2,1.1,2.4,1.6,3.5c0.5,1.1,1,2.4,1.5,3.8l0.3-0.1c-0.2-2.2-0.2-4.3-0.3-6.5c0-2.2-0.1-4.3-0.1-6.5V142
			c0.4-0.1,1.1-0.2,1.9-0.4c0.9-0.1,1.7-0.2,2.6-0.2c1.7,0,3,0.3,3.9,0.9s1.3,1.9,1.3,3.9V177.1z"/>
		<path class="st2" d="M285.6,149.4c-3,0-5.2,0.9-6.8,2.8c-1.6,1.9-2.4,4.5-2.4,8c0,3.5,0.9,6.2,2.6,8c1.7,1.9,4.1,2.8,7.1,2.8
			c1.6,0,2.9-0.2,4-0.7c1.1-0.4,2.1-0.9,3.1-1.5c0.7,0.6,1.2,1.2,1.5,2c0.4,0.8,0.5,1.7,0.5,2.7c0,1.6-0.9,3-2.6,4.2s-4.4,1.7-8,1.7
			c-2.6,0-5-0.4-7.3-1.1c-2.3-0.8-4.2-1.9-5.9-3.5c-1.7-1.6-3-3.6-4-6c-1-2.4-1.5-5.3-1.5-8.7c0-3.1,0.5-5.9,1.4-8.2
			c0.9-2.4,2.2-4.4,3.9-6c1.6-1.6,3.5-2.9,5.7-3.7s4.5-1.3,7-1.3c3.5,0,6.3,0.6,8.2,1.8c1.9,1.2,2.9,2.7,2.9,4.6
			c0,1-0.2,1.9-0.7,2.7c-0.5,0.8-1.1,1.4-1.7,1.8c-1-0.7-2.1-1.3-3.2-1.7C288.4,149.6,287.1,149.4,285.6,149.4z"/>
		<path class="st2" d="M300.6,147.6c0-1.7,0.5-3.1,1.4-4.1c1-1,2.3-1.5,3.9-1.5h19c0.3,0.4,0.5,1,0.7,1.7s0.3,1.5,0.3,2.3
			c0,1.5-0.3,2.6-0.9,3.2c-0.6,0.6-1.5,1-2.5,1h-12.1v5.6h13c0.3,0.4,0.5,1,0.7,1.7c0.2,0.7,0.3,1.5,0.3,2.2c0,1.5-0.3,2.6-0.9,3.2
			c-0.6,0.6-1.4,1-2.5,1h-10.6v6.3h14.8c0.3,0.4,0.5,1,0.7,1.7c0.2,0.7,0.3,1.5,0.3,2.3c0,1.5-0.3,2.6-0.9,3.3c-0.6,0.7-1.5,1-2.5,1
			H306c-1.7,0-3-0.5-3.9-1.5c-1-1-1.4-2.4-1.4-4.1V147.6z"/>
	</g>
	<g id="XMLID_64_">
		<circle class="st3" cx="514.8" cy="99.7" r="8.8"/>
	</g>
	<g>
		<path class="st4" d="M671.3,60.2L658,73.4c-4.2,1.6-8.5,1.2-11.2-1.5l-3.2-3.2c-4.1-4.1-2.9-11.8,2.6-17.3l0.5-0.5
			c4.9-4.9,4.9-12.9,0-17.9c-4.9-4.9-12.9-4.9-17.9,0L493.2,168.8c-4.9,4.9-4.9,12.9,0,17.9c4.9,4.9,12.9,4.9,17.9,0l34.2-34.2
			c5.5-5.5,13.3-6.7,17.3-2.6l3.2,3.2c2.7,2.7,3.1,7,1.5,11.2L543.5,188c-4.8,4.8-4.8,12.6,0,17.4l0.5,0.5c4.8,4.8,12.6,4.8,17.4,0
			l22.7-22.7c-4,4-4,10.4,0,14.4l3.5,3.5c4,4,10.4,4,14.4,0l85.5-85.5c4-4,4-10.4,0-14.4l-3.5-3.5c-4-4-10.4-4-14.4,0l19.6-19.6
			c4.8-4.8,4.8-12.6,0-17.4l-0.5-0.5C683.9,55.4,676.1,55.4,671.3,60.2z"/>
	</g>
	<g id="XMLID_63_">
		<circle class="st3" cx="687.5" cy="137.5" r="8.8"/>
	</g>
	<g>
		<path class="st3" d="M675,164.5c0-12.4-10.1-22.5-22.5-22.5c-0.2,0-0.3,0-0.5,0c0.3-1.9,0.5-3.8,0.5-5.8
			c0-19.5-15.8-35.3-35.3-35.3c-8.5,0-16.3,3-22.3,8c-0.5,0.3-1,0.5-1.6,0.8c-3.3-2.7-7.5-4.3-12.1-4.3c-10.6,0-19.3,8.6-19.3,19.3
			c0,1,0.1,2,0.2,3c-2.5-0.7-5.2-1.1-7.9-1.1c-16.7,0-30.2,13.5-30.2,30.2c0,14.7,10.5,26.9,24.4,29.6c1.1,0.4,2.4,0.6,3.6,0.6
			h103.3c2.6,0,4.9-0.8,6.9-2.2C669.8,181.2,675,173.5,675,164.5z"/>
		<path class="st2" d="M655.3,193H552c-1.8,0-3.6-0.3-5.2-0.8c-16.7-3.5-28.8-18.3-28.8-35.4c0-20,16.2-36.2,36.2-36.2
			c0.7,0,1.3,0,2,0.1c1.9-12,12.4-21.3,25-21.3c4.3,0,8.5,1.1,12.1,3.1c6.9-4.9,15.2-7.6,23.9-7.6c22.8,0,41.3,18.5,41.3,41.3
			c0,0.1,0,0.3,0,0.4c12.8,2.8,22.5,14.2,22.5,27.9c0,11-6,20.7-15.8,25.5C662.2,192,658.9,193,655.3,193z M554.2,132.6
			c-13.3,0-24.2,10.9-24.2,24.2c0,11.5,8.2,21.5,19.5,23.7l0.5,0.1l0.4,0.2c0.4,0.1,1,0.2,1.6,0.2h103.3c1.3,0,2.4-0.4,3.5-1.1
			l0.4-0.3l0.5-0.2c5.8-2.7,9.4-8.4,9.4-14.9c0-9.1-7.4-16.5-16.5-16.5H645l1.1-6.9c0.3-1.8,0.4-3.4,0.4-4.9
			c0-16.2-13.1-29.3-29.3-29.3c-6.8,0-13.3,2.3-18.5,6.6l-0.4,0.3L598,114c-0.6,0.4-1.1,0.6-1.5,0.8c-0.1,0.1-0.3,0.1-0.5,0.2
			l-3.5,1.7l-3-2.5c-2.4-1.9-5.2-2.9-8.3-2.9c-7.3,0-13.3,6-13.3,13.3c0,0.7,0.1,1.5,0.2,2.4l0.9,8.7l-8.5-2.4
			C558.4,132.9,556.3,132.6,554.2,132.6z"/>
	</g>
	<g>
		<g>
			<path class="st4" d="M668.4,149.5c-4.8,0-9.3-1.9-12.7-5.2c-3.4-3.4-5.3-7.9-5.3-12.7c0-1.3-1.1-2.4-2.4-2.4
				c-1.3,0-2.4,1.1-2.4,2.4c0,4.8-1.9,9.3-5.3,12.7c-3.4,3.4-7.9,5.2-12.7,5.2c-1.3,0-2.4,1.1-2.4,2.4c0,1.3,1.1,2.4,2.4,2.4
				c9.9,0,18,8,18,17.9c0,1.3,1.1,2.4,2.4,2.4c1.3,0,2.4-1.1,2.4-2.4c0-9.9,8.1-17.9,18-17.9c1.3,0,2.4-1.1,2.4-2.4
				C670.7,150.5,669.7,149.5,668.4,149.5z"/>
		</g>
		<g>
			<path class="st4" d="M631.7,124.4c-2.7,0-5.2-1-7-2.9c-1.9-1.9-2.9-4.4-2.9-7c0-0.7-0.6-1.3-1.3-1.3s-1.3,0.6-1.3,1.3
				c0,2.6-1,5.1-2.9,7s-4.4,2.9-7,2.9c-0.7,0-1.3,0.6-1.3,1.3c0,0.7,0.6,1.3,1.3,1.3c5.5,0,10,4.5,10,9.9c0,0.7,0.6,1.3,1.3,1.3
				s1.3-0.6,1.3-1.3c0-5.5,4.5-9.9,10-9.9c0.7,0,1.3-0.6,1.3-1.3C633,125,632.4,124.4,631.7,124.4z"/>
		</g>
	</g>
</g>
</svg>
