<?xml version="1.0" encoding="utf-8"?>
<!-- Generator: Adobe Illustrator 23.0.3, SVG Export Plug-In . SVG Version: 6.00 Build 0)  -->
<svg version="1.1" id="Layer_1" xmlns="http://www.w3.org/2000/svg" xmlns:xlink="http://www.w3.org/1999/xlink" x="0px" y="0px"
	 viewBox="0 0 720 1280" style="enable-background:new 0 0 720 1280;" xml:space="preserve">
<style type="text/css">
	.st0{fill:#BDDCDF;}
	.st1{enable-background:new    ;}
	.st2{fill:#0F2D4E;}
	.st3{fill:#996480;}
	.st4{fill:#FBA2CC;}
	.st5{fill:#B27495;}
	.st6{fill:#FFFBF5;stroke:#0F2D4E;stroke-width:8;stroke-miterlimit:10;}
	.st7{fill:#FFFFFF;}
</style>
<rect x="1" class="st0" width="720" height="1280"/>
<g>
	<g class="st1">
		<g>
			<path class="st2" d="M574.6,1045.6c-0.5,0.5-1.1,0.8-2,1.1c-0.9,0.2-1.9,0.4-3.2,0.4c-1.2,0-2.4-0.2-3.5-0.6
				c-1.1-0.4-2-1.2-2.7-2.6l-4.9-10.1c-0.5-1-1-2-1.4-2.9c-0.4-0.9-0.8-2-1.3-3.2h-0.3c0.1,1.8,0.2,3.6,0.2,5.5c0,1.9,0,3.7,0,5.5
				v7.8c-0.4,0.1-0.9,0.2-1.7,0.3c-0.8,0.1-1.5,0.2-2.2,0.2c-0.7,0-1.4,0-2-0.2c-0.6-0.1-1-0.3-1.4-0.6c-0.4-0.3-0.6-0.7-0.9-1.2
				c-0.2-0.5-0.3-1.2-0.3-2v-25c0.5-0.7,1.2-1.2,2.1-1.5c1-0.3,2-0.5,3.1-0.5c1.2,0,2.4,0.2,3.5,0.6c1.1,0.4,2,1.3,2.7,2.6l5,10.1
				c0.5,1,0.9,2,1.3,2.9c0.4,0.9,0.8,2,1.3,3.2l0.2-0.1c-0.1-1.8-0.2-3.6-0.2-5.4c0-1.8-0.1-3.6-0.1-5.4v-8.1
				c0.4-0.1,0.9-0.2,1.7-0.3c0.8-0.1,1.5-0.2,2.2-0.2c1.5,0,2.6,0.3,3.3,0.8c0.8,0.5,1.2,1.6,1.2,3.2v25.7H574.6z"/>
		</g>
		<g>
			<path class="st2" d="M581.1,1021c0-1.4,0.4-2.6,1.2-3.4c0.8-0.8,2-1.2,3.4-1.2h16.5c0.2,0.4,0.4,0.8,0.6,1.5
				c0.2,0.6,0.3,1.2,0.3,1.9c0,1.3-0.3,2.2-0.8,2.7c-0.6,0.5-1.3,0.8-2.2,0.8h-10.5v4.7h11.2c0.2,0.4,0.4,0.8,0.6,1.4
				c0.2,0.6,0.3,1.2,0.3,1.9c0,1.3-0.3,2.2-0.8,2.7s-1.2,0.8-2.1,0.8h-9.2v5.2h12.9c0.2,0.4,0.4,0.8,0.6,1.5
				c0.2,0.6,0.3,1.2,0.3,1.9c0,1.3-0.3,2.2-0.8,2.7s-1.3,0.8-2.2,0.8h-14.6c-1.4,0-2.6-0.4-3.4-1.2c-0.8-0.8-1.2-2-1.2-3.4V1021
				H581.1z"/>
		</g>
		<g>
			<path class="st2" d="M606.9,1020.1c0.2-0.5,0.4-0.9,0.7-1.4c0.3-0.5,0.7-0.9,1.1-1.3c0.5-0.4,1-0.7,1.6-0.9
				c0.6-0.2,1.3-0.4,2-0.4c1,0,1.8,0.2,2.5,0.7s1.5,1.3,2.2,2.5l3.9,6l5.8-8.5c0.3-0.1,0.6-0.3,1.1-0.4c0.5-0.1,1-0.2,1.4-0.2
				c1.5,0,2.7,0.4,3.6,1.1c0.9,0.7,1.3,1.6,1.3,2.7c0,0.9-0.2,1.8-0.7,2.5c-0.5,0.7-1.1,1.6-2,2.7l-5.2,6.3l8.2,11.7
				c-0.3,1.2-0.8,2.2-1.7,2.9s-2.1,1.1-3.6,1.1c-1,0-1.8-0.2-2.5-0.7c-0.7-0.5-1.4-1.3-2.2-2.5l-4-6.4l-6.3,9.5
				c-0.3,0-0.5,0.1-0.8,0.1c-0.2,0-0.5,0-0.7,0c-1.9,0-3.3-0.4-4.2-1.2c-0.9-0.8-1.3-1.7-1.3-2.8c0-1,0.2-1.8,0.6-2.5
				c0.4-0.7,1-1.6,1.8-2.5l5.2-6.8L606.9,1020.1z"/>
		</g>
		<g>
			<path class="st2" d="M637.9,1023.4c-0.2-0.4-0.5-0.9-0.7-1.5c-0.2-0.6-0.3-1.3-0.3-2c0-1.3,0.3-2.2,0.9-2.8
				c0.6-0.6,1.3-0.9,2.3-0.9h21.8c0.2,0.4,0.4,0.9,0.6,1.5c0.2,0.6,0.3,1.3,0.3,2c0,1.3-0.3,2.2-0.9,2.8c-0.6,0.6-1.3,0.9-2.3,0.9
				h-5.5v23.1c-0.4,0.1-0.9,0.2-1.7,0.3c-0.8,0.1-1.6,0.2-2.3,0.2c-0.7,0-1.4-0.1-2-0.2c-0.6-0.1-1.1-0.3-1.5-0.6
				c-0.4-0.3-0.7-0.7-0.9-1.2s-0.3-1.2-0.3-2.1v-19.4L637.9,1023.4L637.9,1023.4z"/>
		</g>
	</g>
</g>
<polygon class="st3" points="480.9,516.8 -35.9,1140.7 -215.4,1013.3 265.4,425 "/>
<polygon class="st4" points="644.1,623.5 7,1422.4 -169.8,1300.4 442.5,520 "/>
<polygon class="st5" points="282.4,431.2 -16.6,796.6 -193,674.1 91,314.7 "/>
<path class="st6" d="M581.9,654H137.6C99.2,654,68,622.8,68,584.4V370.1c0-38.5,31.2-69.6,69.6-69.6h444.2
	c38.5,0,69.6,31.2,69.6,69.6v214.2C651.5,622.8,620.3,654,581.9,654z"/>
<g>
	<path class="st2" d="M104.8,179.9c-0.7,0.2-1.9,0.4-3.5,0.6c-1.6,0.2-3.1,0.3-4.6,0.3c-1.5,0-2.9-0.1-4.1-0.4
		c-1.2-0.2-2.1-0.6-2.9-1.2c-0.8-0.6-1.4-1.4-1.8-2.5c-0.4-1.1-0.6-2.5-0.6-4.2v-52.8c0.7-0.1,1.9-0.3,3.5-0.5
		c1.6-0.2,3.1-0.4,4.6-0.4c1.5,0,2.9,0.1,4.1,0.4c1.2,0.2,2.1,0.6,2.9,1.2c0.8,0.6,1.4,1.4,1.8,2.5c0.4,1.1,0.6,2.5,0.6,4.2V179.9z"
		/>
	<path class="st2" d="M147.3,149.5c0-2.1-0.6-3.6-1.8-4.6c-1.2-1-2.8-1.4-4.8-1.4c-1.3,0-2.7,0.2-4,0.5c-1.3,0.3-2.4,0.8-3.3,1.5
		v34.7c-0.7,0.2-1.7,0.4-3.2,0.6c-1.4,0.2-2.9,0.3-4.5,0.3c-1.5,0-2.8-0.1-3.9-0.3c-1.2-0.2-2.2-0.6-3-1.2c-0.8-0.6-1.4-1.4-1.9-2.4
		c-0.4-1-0.6-2.4-0.6-4.1v-30c0-1.8,0.4-3.3,1.1-4.4c0.8-1.1,1.8-2.2,3.2-3.1c2.3-1.6,5.1-2.9,8.5-3.9c3.4-1,7.2-1.5,11.5-1.5
		c7.5,0,13.3,1.6,17.4,5c4.1,3.3,6.1,7.9,6.1,13.8v31.3c-0.7,0.2-1.7,0.4-3.2,0.6s-2.9,0.3-4.4,0.3c-1.5,0-2.8-0.1-4-0.3
		c-1.2-0.2-2.2-0.6-3-1.2c-0.8-0.6-1.4-1.4-1.8-2.4c-0.4-1-0.7-2.4-0.7-4.1V149.5z"/>
	<path class="st2" d="M215.8,165.8c0,5.1-1.9,9-5.7,11.9s-9.4,4.3-16.8,4.3c-2.8,0-5.4-0.2-7.8-0.6c-2.4-0.4-4.5-1-6.2-1.9
		s-3-1.9-4-3.1c-1-1.3-1.5-2.8-1.5-4.5c0-1.6,0.3-3,1-4.1c0.7-1.1,1.5-2,2.4-2.8c1.9,1.1,4.1,2,6.6,2.9c2.5,0.8,5.4,1.2,8.7,1.2
		c2.1,0,3.7-0.3,4.8-0.9s1.7-1.4,1.7-2.4c0-0.9-0.4-1.7-1.2-2.2c-0.8-0.5-2.1-1-4-1.3l-3-0.6c-5.8-1.1-10.1-2.9-13-5.4
		c-2.8-2.4-4.2-5.9-4.2-10.4c0-2.5,0.5-4.7,1.6-6.7s2.6-3.7,4.5-5c1.9-1.3,4.2-2.4,7-3.1c2.7-0.7,5.7-1.1,9-1.1c2.5,0,4.8,0.2,7,0.6
		c2.2,0.4,4,0.9,5.6,1.6c1.6,0.7,2.9,1.7,3.8,2.9c0.9,1.2,1.4,2.5,1.4,4.1c0,1.5-0.3,2.9-0.8,4c-0.6,1.1-1.3,2-2.2,2.8
		c-0.5-0.3-1.3-0.7-2.4-1.1c-1.1-0.4-2.2-0.7-3.5-1c-1.3-0.3-2.6-0.5-3.9-0.8c-1.3-0.2-2.5-0.3-3.5-0.3c-2.2,0-3.9,0.2-5.1,0.8
		c-1.2,0.5-1.8,1.3-1.8,2.4c0,0.7,0.3,1.3,1,1.8c0.7,0.5,1.9,0.9,3.8,1.3l3.1,0.7c6.4,1.5,11,3.5,13.7,6
		C214.4,158.4,215.8,161.8,215.8,165.8z"/>
	<path class="st2" d="M241,163.6c0,1.7,0.5,3,1.6,3.7c1.1,0.7,2.7,1.1,4.7,1.1c1,0,2-0.1,3.1-0.2c1.1-0.2,2-0.4,2.8-0.6
		c0.6,0.7,1.1,1.5,1.5,2.4c0.4,0.9,0.6,2,0.6,3.2c0,2.5-0.9,4.6-2.8,6.2s-5.2,2.4-10,2.4c-5.9,0-10.4-1.3-13.5-4
		c-3.2-2.7-4.8-7-4.8-13V122c0.7-0.2,1.8-0.4,3.1-0.7c1.4-0.2,2.8-0.3,4.4-0.3c2.9,0,5.2,0.5,6.8,1.5c1.6,1,2.5,3.2,2.5,6.5v6.4
		h13.1c0.4,0.7,0.8,1.6,1.2,2.8c0.4,1.1,0.5,2.3,0.5,3.6c0,2.3-0.5,4-1.5,5c-1,1-2.4,1.6-4.2,1.6H241V163.6z"/>
	<path class="st2" d="M281,180.2c-0.7,0.2-1.7,0.4-3.2,0.6c-1.4,0.2-2.9,0.3-4.5,0.3c-1.5,0-2.8-0.1-3.9-0.3c-1.2-0.2-2.2-0.6-3-1.2
		c-0.8-0.6-1.4-1.4-1.9-2.4c-0.4-1-0.6-2.4-0.6-4.1v-30c0-1.5,0.3-2.8,0.8-3.9c0.6-1.1,1.4-2.1,2.5-3c1.1-0.9,2.4-1.6,4-2.4
		c1.6-0.7,3.2-1.3,5-1.8c1.8-0.5,3.7-1,5.6-1.2c1.9-0.3,3.9-0.5,5.8-0.5c3.2,0,5.7,0.6,7.6,1.9c1.9,1.2,2.8,3.2,2.8,6
		c0,0.9-0.1,1.9-0.4,2.8c-0.3,0.9-0.6,1.7-1,2.5c-1.4,0-2.8,0.1-4.3,0.2c-1.5,0.1-2.9,0.3-4.3,0.6c-1.4,0.3-2.7,0.6-4,0.9
		c-1.2,0.3-2.3,0.6-3.1,1V180.2z"/>
	<path class="st2" d="M305.1,132.4c0.7-0.2,1.7-0.4,3.1-0.6s2.9-0.3,4.5-0.3c1.5,0,2.8,0.1,4,0.3c1.2,0.2,2.2,0.6,3,1.2
		c0.8,0.6,1.4,1.4,1.8,2.4c0.4,1,0.7,2.4,0.7,4.1V161c0,2.7,0.7,4.7,2,5.8c1.3,1.2,3.3,1.8,5.8,1.8c1.5,0,2.8-0.1,3.8-0.4
		c1-0.3,1.7-0.5,2.2-0.8v-35c0.7-0.2,1.7-0.4,3.2-0.6c1.4-0.2,2.9-0.3,4.4-0.3c1.5,0,2.8,0.1,4,0.3c1.2,0.2,2.2,0.6,3,1.2
		c0.8,0.6,1.4,1.4,1.8,2.4c0.4,1,0.7,2.4,0.7,4.1v30.4c0,3.3-1.4,5.8-4.2,7.5c-2.3,1.5-5.1,2.6-8.3,3.4c-3.2,0.8-6.8,1.1-10.5,1.1
		c-3.6,0-6.9-0.4-10-1.2c-3-0.8-5.7-2-7.9-3.7c-2.2-1.7-3.9-3.8-5.1-6.5c-1.2-2.6-1.8-5.8-1.8-9.5V132.4z"/>
	<path class="st2" d="M390.6,143.6c-1.7,0-3.2,0.3-4.8,0.8c-1.5,0.5-2.8,1.3-3.9,2.4c-1.1,1-2,2.3-2.7,3.8c-0.7,1.5-1,3.3-1,5.4
		c0,4.1,1.2,7.2,3.5,9.3c2.4,2.1,5.2,3.1,8.7,3.1c2,0,3.7-0.2,5.2-0.7c1.5-0.5,2.8-1,3.9-1.5c1.3,0.9,2.3,2,3,3.1
		c0.7,1.1,1,2.4,1,3.9c0,2.7-1.3,4.9-3.9,6.4c-2.6,1.5-6.2,2.2-10.8,2.2c-4.2,0-8-0.6-11.4-1.9s-6.3-3-8.8-5.2
		c-2.4-2.2-4.3-4.9-5.7-8.1c-1.3-3.1-2-6.6-2-10.4c0-4.4,0.7-8.2,2.2-11.5c1.4-3.3,3.4-6,5.8-8.2c2.5-2.1,5.3-3.7,8.6-4.8
		c3.2-1.1,6.6-1.6,10.2-1.6c4.8,0,8.5,0.9,11.1,2.6c2.6,1.7,3.9,4,3.9,6.7c0,1.3-0.3,2.4-0.9,3.5s-1.3,2-2.1,2.9
		c-1.1-0.5-2.5-1.1-4.1-1.6C394.2,143.9,392.5,143.6,390.6,143.6z"/>
	<path class="st2" d="M429.1,163.6c0,1.7,0.5,3,1.6,3.7c1.1,0.7,2.7,1.1,4.7,1.1c1,0,2-0.1,3.1-0.2c1.1-0.2,2-0.4,2.8-0.6
		c0.6,0.7,1.1,1.5,1.5,2.4c0.4,0.9,0.6,2,0.6,3.2c0,2.5-0.9,4.6-2.8,6.2s-5.2,2.4-10,2.4c-5.9,0-10.4-1.3-13.5-4
		c-3.2-2.7-4.8-7-4.8-13V122c0.7-0.2,1.8-0.4,3.1-0.7c1.4-0.2,2.8-0.3,4.4-0.3c2.9,0,5.2,0.5,6.8,1.5c1.6,1,2.5,3.2,2.5,6.5v6.4
		h13.1c0.4,0.7,0.8,1.6,1.2,2.8c0.4,1.1,0.5,2.3,0.5,3.6c0,2.3-0.5,4-1.5,5c-1,1-2.4,1.6-4.2,1.6h-9.1V163.6z"/>
	<path class="st2" d="M451.7,118.2c0-2.5,0.9-4.7,2.5-6.4c1.7-1.7,4-2.6,6.8-2.6c2.8,0,5.1,0.9,6.8,2.6c1.7,1.7,2.6,3.9,2.6,6.4
		c0,2.5-0.9,4.7-2.6,6.4c-1.7,1.7-3.9,2.6-6.8,2.6c-2.8,0-5-0.9-6.8-2.6C452.6,122.9,451.7,120.8,451.7,118.2z M469.5,180.2
		c-0.7,0.1-1.8,0.3-3.2,0.6c-1.4,0.2-2.9,0.3-4.3,0.3c-1.5,0-2.8-0.1-4-0.3c-1.2-0.2-2.1-0.6-3-1.2c-0.8-0.6-1.4-1.4-1.8-2.4
		c-0.4-1-0.7-2.4-0.7-4.1v-40.7c0.7-0.1,1.8-0.3,3.2-0.6c1.4-0.2,2.9-0.3,4.4-0.3c1.5,0,2.8,0.1,4,0.3c1.2,0.2,2.1,0.6,2.9,1.2
		c0.8,0.6,1.4,1.4,1.9,2.4c0.4,1,0.6,2.4,0.6,4.1V180.2z"/>
	<path class="st2" d="M530.6,156c0,4.1-0.6,7.8-1.9,11c-1.3,3.2-3,6-5.3,8.1c-2.3,2.2-5,3.9-8.2,5s-6.8,1.7-10.7,1.7
		c-3.9,0-7.5-0.6-10.7-1.8c-3.2-1.2-5.9-2.9-8.2-5.1c-2.3-2.2-4.1-4.9-5.3-8.1c-1.3-3.2-1.9-6.8-1.9-10.8c0-3.9,0.6-7.5,1.9-10.7
		c1.3-3.2,3-5.9,5.3-8.1c2.3-2.2,5.1-4,8.2-5.1c3.2-1.2,6.8-1.8,10.7-1.8c3.9,0,7.5,0.6,10.7,1.9c3.2,1.2,6,3,8.2,5.2
		c2.3,2.2,4.1,4.9,5.3,8.1C530,148.6,530.6,152.2,530.6,156z M495.6,156c0,4.1,0.8,7.2,2.3,9.3c1.6,2.2,3.8,3.2,6.6,3.2
		c2.8,0,4.9-1.1,6.4-3.3s2.2-5.3,2.2-9.3s-0.8-7.1-2.3-9.2c-1.5-2.2-3.7-3.2-6.5-3.2s-5,1.1-6.5,3.2
		C496.4,148.9,495.6,152,495.6,156z"/>
	<path class="st2" d="M569.7,149.5c0-2.1-0.6-3.6-1.8-4.6c-1.2-1-2.8-1.4-4.8-1.4c-1.3,0-2.7,0.2-4,0.5c-1.3,0.3-2.4,0.8-3.3,1.5
		v34.7c-0.7,0.2-1.7,0.4-3.2,0.6c-1.4,0.2-2.9,0.3-4.5,0.3c-1.5,0-2.8-0.1-3.9-0.3c-1.2-0.2-2.2-0.6-3-1.2c-0.8-0.6-1.4-1.4-1.9-2.4
		c-0.4-1-0.6-2.4-0.6-4.1v-30c0-1.8,0.4-3.3,1.1-4.4c0.8-1.1,1.8-2.2,3.2-3.1c2.3-1.6,5.1-2.9,8.5-3.9c3.4-1,7.2-1.5,11.5-1.5
		c7.5,0,13.3,1.6,17.4,5c4.1,3.3,6.1,7.9,6.1,13.8v31.3c-0.7,0.2-1.7,0.4-3.2,0.6s-2.9,0.3-4.4,0.3c-1.5,0-2.8-0.1-4-0.3
		c-1.2-0.2-2.2-0.6-3-1.2c-0.8-0.6-1.4-1.4-1.8-2.4c-0.4-1-0.7-2.4-0.7-4.1V149.5z"/>
	<path class="st2" d="M638.2,165.8c0,5.1-1.9,9-5.7,11.9s-9.4,4.3-16.8,4.3c-2.8,0-5.4-0.2-7.8-0.6c-2.4-0.4-4.5-1-6.2-1.9
		s-3-1.9-4-3.1c-1-1.3-1.5-2.8-1.5-4.5c0-1.6,0.3-3,1-4.1c0.7-1.1,1.5-2,2.4-2.8c1.9,1.1,4.1,2,6.6,2.9c2.5,0.8,5.4,1.2,8.7,1.2
		c2.1,0,3.7-0.3,4.8-0.9s1.7-1.4,1.7-2.4c0-0.9-0.4-1.7-1.2-2.2c-0.8-0.5-2.1-1-4-1.3l-3-0.6c-5.8-1.1-10.1-2.9-13-5.4
		c-2.8-2.4-4.2-5.9-4.2-10.4c0-2.5,0.5-4.7,1.6-6.7s2.6-3.7,4.5-5c1.9-1.3,4.2-2.4,7-3.1c2.7-0.7,5.7-1.1,9-1.1c2.5,0,4.8,0.2,7,0.6
		c2.2,0.4,4,0.9,5.6,1.6c1.6,0.7,2.9,1.7,3.8,2.9c0.9,1.2,1.4,2.5,1.4,4.1c0,1.5-0.3,2.9-0.8,4c-0.6,1.1-1.3,2-2.2,2.8
		c-0.5-0.3-1.3-0.7-2.4-1.1c-1.1-0.4-2.2-0.7-3.5-1c-1.3-0.3-2.6-0.5-3.9-0.8c-1.3-0.2-2.5-0.3-3.5-0.3c-2.2,0-3.9,0.2-5.1,0.8
		c-1.2,0.5-1.8,1.3-1.8,2.4c0,0.7,0.3,1.3,1,1.8c0.7,0.5,1.9,0.9,3.8,1.3l3.1,0.7c6.4,1.5,11,3.5,13.7,6
		C636.9,158.4,638.2,161.8,638.2,165.8z"/>
</g>
<g>
	<g class="st1">
		<path class="st2" d="M122.2,375.8c-3.6,0-6.3,1.1-8.3,3.3c-1.9,2.2-2.9,5.3-2.9,9.3c0,4.1,1.1,7.2,3.2,9.4c2.1,2.2,5,3.3,8.6,3.3
			c1.9,0,3.5-0.3,4.9-0.8c1.3-0.5,2.6-1.1,3.8-1.8c0.8,0.7,1.4,1.4,1.9,2.3c0.4,0.9,0.7,2,0.7,3.2c0,1.9-1.1,3.5-3.2,4.9
			c-2.1,1.3-5.4,2-9.7,2c-3.1,0-6.1-0.4-8.8-1.3c-2.8-0.9-5.2-2.3-7.2-4.1c-2.1-1.8-3.7-4.2-4.9-7c-1.2-2.8-1.8-6.2-1.8-10.1
			c0-3.6,0.6-6.8,1.7-9.6c1.1-2.8,2.7-5.1,4.7-7c2-1.9,4.3-3.4,7-4.3c2.7-1,5.5-1.5,8.5-1.5c4.3,0,7.6,0.7,10,2.1
			c2.4,1.4,3.5,3.2,3.5,5.4c0,1.2-0.3,2.3-0.9,3.1c-0.6,0.9-1.3,1.6-2.1,2.1c-1.2-0.8-2.5-1.5-3.9-2
			C125.6,376.1,124,375.8,122.2,375.8z"/>
		<path class="st2" d="M173.2,409.6c-0.5,0.1-1.2,0.3-2.2,0.4c-1,0.1-2,0.2-3.1,0.2c-1,0-1.9-0.1-2.8-0.2c-0.8-0.1-1.5-0.4-2.1-0.8
			c-0.6-0.4-1-1-1.3-1.7c-0.3-0.7-0.5-1.7-0.5-2.8v-15.5c0-1.9-0.5-3.3-1.4-4c-1-0.8-2.1-1.2-3.5-1.2c-0.9,0-1.8,0.1-2.7,0.3
			c-0.8,0.2-1.5,0.5-2,0.8v24.5c-0.5,0.1-1.2,0.3-2.2,0.4c-1,0.1-2,0.2-3.1,0.2c-1,0-1.9-0.1-2.8-0.2c-0.8-0.1-1.5-0.4-2.1-0.8
			c-0.6-0.4-1-1-1.3-1.7c-0.3-0.7-0.5-1.7-0.5-2.8V364c0.5-0.1,1.3-0.2,2.3-0.4c1-0.2,2-0.2,3-0.2c1,0,1.9,0.1,2.8,0.2
			c0.8,0.1,1.5,0.4,2.1,0.8c0.6,0.4,1,1,1.3,1.7c0.3,0.7,0.5,1.7,0.5,2.8v6.9c0.6-0.2,1.5-0.5,2.8-0.8c1.2-0.3,2.6-0.5,4.1-0.5
			c4.6,0,8.2,1.2,10.8,3.5s3.9,5.8,3.9,10.3V409.6z"/>
		<path class="st2" d="M215.8,392.6c0,2.9-0.4,5.5-1.3,7.7c-0.9,2.3-2.1,4.2-3.7,5.7s-3.5,2.7-5.8,3.5s-4.7,1.2-7.5,1.2
			c-2.8,0-5.2-0.4-7.5-1.3c-2.2-0.8-4.2-2-5.8-3.6c-1.6-1.6-2.9-3.5-3.7-5.7c-0.9-2.2-1.3-4.8-1.3-7.6c0-2.8,0.4-5.2,1.3-7.5
			c0.9-2.2,2.1-4.1,3.7-5.7c1.6-1.6,3.5-2.8,5.8-3.6c2.2-0.8,4.7-1.3,7.5-1.3c2.8,0,5.2,0.4,7.5,1.3c2.2,0.9,4.2,2.1,5.8,3.6
			c1.6,1.6,2.9,3.5,3.7,5.7C215.4,387.5,215.8,389.9,215.8,392.6z M191.3,392.6c0,2.8,0.5,5,1.6,6.5c1.1,1.5,2.6,2.3,4.6,2.3
			s3.5-0.8,4.5-2.3c1-1.5,1.6-3.7,1.6-6.5c0-2.8-0.5-5-1.6-6.5c-1.1-1.5-2.6-2.3-4.6-2.3c-2,0-3.5,0.8-4.5,2.3
			C191.8,387.7,191.3,389.8,191.3,392.6z"/>
		<path class="st2" d="M256.8,392.6c0,2.9-0.4,5.5-1.3,7.7c-0.9,2.3-2.1,4.2-3.7,5.7s-3.5,2.7-5.8,3.5s-4.7,1.2-7.5,1.2
			c-2.8,0-5.2-0.4-7.5-1.3c-2.2-0.8-4.2-2-5.8-3.6c-1.6-1.6-2.9-3.5-3.7-5.7c-0.9-2.2-1.3-4.8-1.3-7.6c0-2.8,0.4-5.2,1.3-7.5
			c0.9-2.2,2.1-4.1,3.7-5.7c1.6-1.6,3.5-2.8,5.8-3.6c2.2-0.8,4.7-1.3,7.5-1.3c2.8,0,5.2,0.4,7.5,1.3c2.2,0.9,4.2,2.1,5.8,3.6
			c1.6,1.6,2.9,3.5,3.7,5.7C256.4,387.5,256.8,389.9,256.8,392.6z M232.3,392.6c0,2.8,0.5,5,1.6,6.5c1.1,1.5,2.6,2.3,4.6,2.3
			s3.5-0.8,4.5-2.3c1-1.5,1.6-3.7,1.6-6.5c0-2.8-0.5-5-1.6-6.5c-1.1-1.5-2.6-2.3-4.6-2.3c-2,0-3.5,0.8-4.5,2.3
			C232.9,387.7,232.3,389.8,232.3,392.6z"/>
		<path class="st2" d="M291.3,399.5c0,3.5-1.3,6.3-4,8.3c-2.7,2-6.6,3-11.8,3c-2,0-3.8-0.1-5.5-0.4c-1.7-0.3-3.1-0.7-4.3-1.3
			c-1.2-0.6-2.1-1.3-2.8-2.2c-0.7-0.9-1-1.9-1-3.1c0-1.1,0.2-2.1,0.7-2.8c0.5-0.8,1-1.4,1.7-1.9c1.4,0.7,2.9,1.4,4.7,2
			c1.8,0.6,3.8,0.9,6.1,0.9c1.4,0,2.6-0.2,3.3-0.6s1.2-1,1.2-1.7c0-0.7-0.3-1.2-0.8-1.5c-0.6-0.4-1.5-0.7-2.8-0.9l-2.1-0.4
			c-4.1-0.8-7.1-2-9.1-3.7c-2-1.7-3-4.1-3-7.3c0-1.7,0.4-3.3,1.1-4.7c0.7-1.4,1.8-2.6,3.1-3.5c1.4-0.9,3-1.7,4.9-2.2
			c1.9-0.5,4-0.8,6.3-0.8c1.7,0,3.3,0.1,4.9,0.4c1.5,0.3,2.8,0.6,4,1.2c1.1,0.5,2,1.2,2.7,2c0.7,0.8,1,1.8,1,2.9
			c0,1.1-0.2,2-0.6,2.8c-0.4,0.8-0.9,1.4-1.5,1.9c-0.4-0.2-0.9-0.5-1.7-0.7c-0.7-0.3-1.6-0.5-2.4-0.7c-0.9-0.2-1.8-0.4-2.7-0.5
			c-0.9-0.1-1.7-0.2-2.5-0.2c-1.5,0-2.7,0.2-3.6,0.5c-0.8,0.3-1.3,0.9-1.3,1.6c0,0.5,0.2,0.9,0.7,1.3c0.5,0.3,1.4,0.6,2.7,0.9
			l2.2,0.5c4.5,1,7.7,2.4,9.6,4.2C290.4,394.3,291.3,396.7,291.3,399.5z"/>
		<path class="st2" d="M315.4,410.8c-2.8,0-5.3-0.4-7.7-1.2c-2.4-0.8-4.4-1.9-6.2-3.5s-3.1-3.5-4.1-5.8c-1-2.3-1.5-5.1-1.5-8.2
			c0-3.1,0.5-5.7,1.5-7.9c1-2.2,2.3-4,4-5.5c1.6-1.4,3.5-2.5,5.6-3.2c2.1-0.7,4.2-1,6.4-1c2.5,0,4.7,0.4,6.8,1.1
			c2,0.7,3.8,1.8,5.2,3.1c1.5,1.3,2.6,2.9,3.4,4.7c0.8,1.8,1.2,3.8,1.2,6c0,1.6-0.4,2.8-1.3,3.6c-0.9,0.8-2.1,1.4-3.7,1.6l-17.3,2.6
			c0.5,1.5,1.6,2.7,3.1,3.5c1.6,0.8,3.4,1.2,5.5,1.2c1.9,0,3.7-0.2,5.4-0.7c1.7-0.5,3.1-1.1,4.2-1.7c0.7,0.5,1.4,1.1,1.9,2
			c0.5,0.8,0.8,1.7,0.8,2.7c0,2.1-1,3.7-2.9,4.7c-1.5,0.8-3.2,1.3-5,1.6C318.8,410.6,317,410.8,315.4,410.8z M313.5,383.3
			c-1.1,0-2.1,0.2-2.9,0.6c-0.8,0.4-1.5,0.9-2,1.4c-0.5,0.6-0.9,1.2-1.2,2c-0.3,0.7-0.4,1.5-0.5,2.2l12-2c-0.1-0.9-0.7-1.9-1.5-2.8
			C316.5,383.7,315.2,383.3,313.5,383.3z"/>
		<path class="st2" d="M369,384c-1.2,0-2.3,0.2-3.3,0.6c-1,0.4-2,0.9-2.7,1.6c-0.8,0.7-1.4,1.6-1.9,2.7c-0.5,1.1-0.7,2.3-0.7,3.8
			c0,2.9,0.8,5.1,2.5,6.5c1.7,1.4,3.7,2.2,6.1,2.2c1.4,0,2.6-0.2,3.6-0.5c1-0.3,1.9-0.7,2.7-1.1c0.9,0.7,1.6,1.4,2.1,2.1
			c0.5,0.8,0.7,1.7,0.7,2.8c0,1.9-0.9,3.4-2.7,4.4c-1.8,1-4.3,1.6-7.6,1.6c-2.9,0-5.6-0.4-8-1.3c-2.4-0.9-4.4-2.1-6.1-3.6
			c-1.7-1.6-3-3.4-4-5.6c-0.9-2.2-1.4-4.6-1.4-7.3c0-3.1,0.5-5.8,1.5-8.1c1-2.3,2.4-4.2,4.1-5.7c1.7-1.5,3.7-2.6,6-3.4
			c2.3-0.7,4.7-1.1,7.2-1.1c3.4,0,6,0.6,7.8,1.8c1.8,1.2,2.7,2.8,2.7,4.7c0,0.9-0.2,1.7-0.6,2.5s-0.9,1.4-1.5,2
			c-0.8-0.4-1.8-0.7-2.9-1.1S370.3,384,369,384z"/>
		<path class="st2" d="M398.1,374.6c2.5,0,4.8,0.3,6.9,0.8c2.1,0.5,3.8,1.3,5.3,2.3c1.5,1.1,2.6,2.4,3.4,4c0.8,1.6,1.2,3.5,1.2,5.7
			v15.7c0,1.2-0.3,2.2-1,3c-0.7,0.8-1.5,1.4-2.4,2c-3,1.8-7.3,2.7-12.8,2.7c-2.5,0-4.7-0.2-6.7-0.7s-3.7-1.2-5.1-2.1
			c-1.4-0.9-2.5-2.1-3.3-3.6c-0.8-1.4-1.2-3.1-1.2-5c0-3.2,1-5.7,2.9-7.4c1.9-1.7,4.9-2.8,8.9-3.2l9.2-1v-0.5c0-1.4-0.6-2.3-1.8-2.9
			c-1.2-0.6-2.9-0.9-5.1-0.9c-1.8,0-3.5,0.2-5.2,0.6c-1.7,0.4-3.2,0.8-4.5,1.4c-0.6-0.4-1.1-1.1-1.5-1.9c-0.4-0.9-0.6-1.8-0.6-2.7
			c0-1.2,0.3-2.2,0.9-2.9c0.6-0.7,1.5-1.3,2.7-1.9c1.4-0.5,3-0.9,4.8-1.1C394.7,374.7,396.5,374.6,398.1,374.6z M398.6,402.1
			c0.8,0,1.7-0.1,2.6-0.2c1-0.2,1.7-0.4,2.1-0.7v-5.6l-5,0.4c-1.3,0.1-2.4,0.4-3.2,0.8c-0.8,0.5-1.3,1.2-1.3,2.1
			c0,0.9,0.4,1.7,1.1,2.3C395.7,401.8,396.9,402.1,398.6,402.1z"/>
		<path class="st2" d="M434.1,409.6c-0.5,0.1-1.2,0.3-2.2,0.4c-1,0.1-2,0.2-3.1,0.2c-1,0-1.9-0.1-2.8-0.2c-0.8-0.1-1.5-0.4-2.1-0.8
			c-0.6-0.4-1-1-1.3-1.7c-0.3-0.7-0.5-1.7-0.5-2.8v-21c0-1.1,0.2-2,0.6-2.8c0.4-0.8,1-1.5,1.7-2.1c0.7-0.6,1.7-1.2,2.8-1.6
			c1.1-0.5,2.3-0.9,3.5-1.3c1.3-0.4,2.6-0.7,3.9-0.9s2.7-0.3,4.1-0.3c2.2,0,4,0.4,5.3,1.3c1.3,0.9,2,2.3,2,4.2
			c0,0.7-0.1,1.3-0.3,1.9c-0.2,0.6-0.4,1.2-0.7,1.7c-1,0-2,0-3,0.1c-1,0.1-2,0.2-3,0.4c-1,0.2-1.9,0.4-2.8,0.6
			c-0.9,0.2-1.6,0.5-2.2,0.7V409.6z"/>
		<path class="st2" d="M467.6,410.8c-2.8,0-5.3-0.4-7.7-1.2s-4.4-1.9-6.2-3.5s-3.1-3.5-4.1-5.8c-1-2.3-1.5-5.1-1.5-8.2
			c0-3.1,0.5-5.7,1.5-7.9c1-2.2,2.3-4,4-5.5c1.6-1.4,3.5-2.5,5.6-3.2c2.1-0.7,4.2-1,6.4-1c2.5,0,4.7,0.4,6.8,1.1
			c2,0.7,3.8,1.8,5.2,3.1c1.5,1.3,2.6,2.9,3.4,4.7c0.8,1.8,1.2,3.8,1.2,6c0,1.6-0.4,2.8-1.3,3.6c-0.9,0.8-2.1,1.4-3.7,1.6l-17.3,2.6
			c0.5,1.5,1.6,2.7,3.2,3.5c1.6,0.8,3.4,1.2,5.5,1.2c1.9,0,3.7-0.2,5.4-0.7c1.7-0.5,3.1-1.1,4.2-1.7c0.7,0.5,1.4,1.1,1.9,2
			c0.5,0.8,0.8,1.7,0.8,2.7c0,2.1-1,3.7-2.9,4.7c-1.5,0.8-3.2,1.3-5,1.6C471,410.6,469.2,410.8,467.6,410.8z M465.6,383.3
			c-1.1,0-2.1,0.2-2.9,0.6c-0.8,0.4-1.5,0.9-2,1.4c-0.5,0.6-0.9,1.2-1.2,2c-0.3,0.7-0.4,1.5-0.5,2.2l12-2c-0.1-0.9-0.7-1.9-1.5-2.8
			C468.7,383.7,467.4,383.3,465.6,383.3z"/>
		<path class="st2" d="M488.2,375.6c0-2.4,0.4-4.4,1.2-6.1c0.8-1.7,1.9-3.1,3.3-4.2c1.4-1.1,3-1.9,4.9-2.4c1.9-0.5,3.9-0.8,6.1-0.8
			c3.5,0,6,0.5,7.6,1.4c1.6,0.9,2.5,2.5,2.5,4.7c0,0.9-0.2,1.8-0.6,2.5c-0.4,0.7-0.8,1.3-1.3,1.7c-0.9-0.2-1.8-0.4-2.8-0.6
			c-1-0.2-2.1-0.2-3.3-0.2c-2,0-3.6,0.3-4.7,1c-1.1,0.7-1.7,1.9-1.7,3.5v2.2h11.5c0.3,0.5,0.5,1.2,0.8,1.9c0.3,0.8,0.4,1.6,0.4,2.6
			c0,1.6-0.4,2.8-1.1,3.5c-0.7,0.7-1.7,1.1-2.9,1.1h-8.1v22.2c-0.5,0.1-1.2,0.3-2.2,0.4c-1,0.1-2,0.2-3.1,0.2c-1,0-1.9-0.1-2.8-0.2
			s-1.5-0.4-2.1-0.8c-0.6-0.4-1-1-1.3-1.7c-0.3-0.7-0.5-1.7-0.5-2.8V375.6z"/>
		<path class="st2" d="M517.4,376.1c0.5-0.1,1.2-0.3,2.2-0.4c1-0.1,2-0.2,3.1-0.2c1,0,1.9,0.1,2.8,0.2c0.8,0.1,1.5,0.4,2.1,0.8
			s1,1,1.3,1.7c0.3,0.7,0.5,1.7,0.5,2.8v15.1c0,1.9,0.5,3.3,1.4,4.1c0.9,0.8,2.3,1.2,4.1,1.2c1.1,0,1.9-0.1,2.6-0.3
			c0.7-0.2,1.2-0.4,1.6-0.6v-24.5c0.5-0.1,1.2-0.3,2.2-0.4c1-0.1,2-0.2,3.1-0.2c1,0,1.9,0.1,2.8,0.2c0.8,0.1,1.5,0.4,2.1,0.8
			c0.6,0.4,1,1,1.3,1.7c0.3,0.7,0.5,1.7,0.5,2.8v21.3c0,2.3-1,4.1-2.9,5.2c-1.6,1-3.6,1.8-5.8,2.3c-2.3,0.5-4.7,0.8-7.4,0.8
			c-2.5,0-4.8-0.3-7-0.8c-2.1-0.6-4-1.4-5.5-2.6c-1.5-1.2-2.7-2.7-3.6-4.5c-0.8-1.8-1.3-4.1-1.3-6.7V376.1z"/>
		<path class="st2" d="M570.3,409.6c-0.5,0.1-1.3,0.2-2.3,0.4c-1,0.2-2,0.2-3,0.2s-1.9-0.1-2.8-0.2c-0.8-0.1-1.5-0.4-2.1-0.8
			c-0.6-0.4-1-1-1.3-1.7c-0.3-0.7-0.5-1.7-0.5-2.8V364c0.5-0.1,1.3-0.2,2.3-0.4c1-0.2,2-0.2,3-0.2c1,0,1.9,0.1,2.8,0.2
			s1.5,0.4,2.1,0.8c0.6,0.4,1,1,1.3,1.7c0.3,0.7,0.5,1.7,0.5,2.8V409.6z"/>
		<path class="st2" d="M589.9,409.6c-0.5,0.1-1.3,0.2-2.3,0.4c-1,0.2-2,0.2-3,0.2s-1.9-0.1-2.8-0.2c-0.8-0.1-1.5-0.4-2.1-0.8
			c-0.6-0.4-1-1-1.3-1.7c-0.3-0.7-0.5-1.7-0.5-2.8V364c0.5-0.1,1.3-0.2,2.3-0.4c1-0.2,2-0.2,3-0.2c1,0,1.9,0.1,2.8,0.2
			s1.5,0.4,2.1,0.8c0.6,0.4,1,1,1.3,1.7c0.3,0.7,0.5,1.7,0.5,2.8V409.6z"/>
		<path class="st2" d="M602.7,401c-0.5-1.2-1.1-2.5-1.6-3.9c-0.6-1.4-1.2-3.1-1.8-5c-0.6-1.9-1.3-4-2-6.4c-0.7-2.4-1.4-5.2-2.1-8.3
			c0.7-0.7,1.5-1.2,2.6-1.7c1.1-0.5,2.3-0.7,3.6-0.7c1.6,0,3,0.3,4.1,1c1.1,0.7,1.9,1.9,2.4,3.8l5.5,19.2h0.3
			c0.6-1.6,1.1-3.3,1.6-5.2c0.5-1.9,1.1-3.8,1.6-5.8c0.5-2,1-4,1.4-5.9c0.4-2,0.8-3.9,1.2-5.8c1.7-0.9,3.5-1.3,5.5-1.3
			c1.6,0,3,0.4,4.1,1.1c1.1,0.7,1.6,1.9,1.6,3.6c0,1.3-0.2,2.7-0.5,4.4c-0.3,1.7-0.8,3.4-1.3,5.3c-0.5,1.9-1.2,3.8-1.9,5.8
			c-0.7,2-1.5,3.9-2.3,5.8c-0.8,1.9-1.6,3.7-2.5,5.4c-0.8,1.7-1.7,3.2-2.5,4.6c-1.3,2.3-2.5,4.2-3.6,5.6c-1.1,1.4-2.2,2.6-3.2,3.4
			c-1,0.8-2.1,1.4-3.1,1.7c-1,0.3-2.1,0.5-3.2,0.5c-2,0-3.5-0.6-4.8-1.8c-1.2-1.2-1.9-2.7-2.2-4.6c1.5-1.2,3-2.5,4.5-3.9
			c1.5-1.4,2.8-2.9,4.1-4.4c-0.8-0.2-1.6-0.8-2.6-1.6C604.8,405,603.8,403.4,602.7,401z"/>
		<path class="st2" d="M111.6,478c0,1.2,0.4,2.1,1.2,2.6c0.8,0.5,1.9,0.8,3.3,0.8c0.7,0,1.4-0.1,2.2-0.2c0.7-0.1,1.4-0.3,2-0.5
			c0.4,0.5,0.8,1.1,1.1,1.7c0.3,0.6,0.5,1.4,0.5,2.3c0,1.8-0.7,3.2-2,4.3s-3.7,1.7-7,1.7c-4.1,0-7.3-0.9-9.5-2.8
			c-2.2-1.9-3.3-4.9-3.3-9.1v-30c0.5-0.1,1.2-0.3,2.2-0.5c1-0.2,2-0.2,3-0.2c2.1,0,3.7,0.4,4.8,1.1c1.1,0.7,1.7,2.3,1.7,4.6v4.5h9.2
			c0.3,0.5,0.5,1.2,0.8,1.9c0.3,0.8,0.4,1.6,0.4,2.6c0,1.6-0.4,2.8-1.1,3.5c-0.7,0.7-1.7,1.1-2.9,1.1h-6.4V478z"/>
		<path class="st2" d="M162.5,472.6c0,2.9-0.4,5.5-1.3,7.7c-0.9,2.3-2.1,4.2-3.7,5.7s-3.5,2.7-5.8,3.5s-4.7,1.2-7.5,1.2
			c-2.8,0-5.2-0.4-7.5-1.3c-2.2-0.8-4.2-2-5.8-3.6c-1.6-1.6-2.9-3.5-3.7-5.7c-0.9-2.2-1.3-4.8-1.3-7.6c0-2.8,0.4-5.2,1.3-7.5
			c0.9-2.2,2.1-4.1,3.7-5.7c1.6-1.6,3.5-2.8,5.8-3.6c2.2-0.8,4.7-1.3,7.5-1.3c2.8,0,5.2,0.4,7.5,1.3c2.2,0.9,4.2,2.1,5.8,3.6
			c1.6,1.6,2.9,3.5,3.7,5.7C162,467.5,162.5,469.9,162.5,472.6z M138,472.6c0,2.8,0.5,5,1.6,6.5c1.1,1.5,2.6,2.3,4.6,2.3
			s3.5-0.8,4.5-2.3c1-1.5,1.6-3.7,1.6-6.5c0-2.8-0.5-5-1.6-6.5c-1.1-1.5-2.6-2.3-4.6-2.3c-2,0-3.5,0.8-4.5,2.3
			C138.5,467.7,138,469.8,138,472.6z"/>
		<path class="st2" d="M201.7,488.6c-0.7,0.6-1.5,1-2.7,1.4s-2.5,0.5-4,0.5c-1.9,0-3.6-0.3-5-0.8c-1.4-0.5-2.3-1.3-2.8-2.3
			c-0.5-1.1-1.1-2.9-1.8-5.3c-0.7-2.4-1.3-5.1-2-8c-0.7-2.9-1.3-5.8-1.9-8.8c-0.6-3-1-5.6-1.4-7.9c0.7-0.7,1.5-1.2,2.6-1.7
			c1.1-0.5,2.3-0.7,3.6-0.7c1.6,0,3,0.4,4,1.1c1,0.7,1.7,2,1.9,3.7c0.5,3.5,0.9,6.5,1.2,8.8c0.3,2.3,0.6,4.2,0.8,5.7
			c0.2,1.5,0.4,2.6,0.5,3.4c0.1,0.8,0.2,1.4,0.3,1.9h0.3c0.1-0.7,0.4-1.8,0.7-3.3c0.4-1.4,0.8-3,1.2-4.9c0.5-1.8,1-3.8,1.5-5.9
			c0.5-2.1,1-4.2,1.5-6.3c0.9-0.5,1.9-0.9,2.8-1.2c0.9-0.3,2-0.4,3.4-0.4c1.6,0,3,0.3,4.2,0.8c1.2,0.5,1.9,1.3,2.2,2.4
			c0.6,2.1,1.1,4,1.6,6c0.5,1.9,1,3.7,1.4,5.4c0.4,1.7,0.8,3.1,1.1,4.4c0.3,1.3,0.6,2.3,0.7,3h0.4c0.5-3.6,1-7.3,1.5-11.2
			c0.5-3.9,0.9-7.8,1.4-11.8c0.8-0.5,1.7-0.9,2.7-1.1c0.9-0.2,1.9-0.4,2.8-0.4c1.6,0,3,0.4,4.1,1.1c1.1,0.7,1.6,1.9,1.6,3.6
			c0,0.7-0.1,1.9-0.4,3.4c-0.2,1.5-0.5,3.2-0.9,5c-0.4,1.9-0.8,3.8-1.3,5.9c-0.5,2.1-1,4-1.5,6c-0.5,1.9-1,3.6-1.4,5.2
			c-0.4,1.5-0.8,2.7-1.2,3.6c-0.7,0.6-1.7,1-3,1.4c-1.4,0.4-2.8,0.5-4.3,0.5c-3.9,0-6.2-1-6.9-2.9c-0.3-0.8-0.6-1.9-1-3.2
			c-0.4-1.3-0.9-2.7-1.3-4.2c-0.5-1.5-0.9-3.1-1.3-4.8c-0.4-1.7-0.8-3.3-1-4.8c-0.3,1.6-0.7,3.3-1.2,5.1c-0.5,1.8-0.9,3.5-1.4,5.1
			c-0.5,1.7-0.9,3.2-1.4,4.5C202.2,486.7,201.9,487.8,201.7,488.6z"/>
		<path class="st2" d="M237.4,446.2c0-1.8,0.6-3.3,1.8-4.5c1.2-1.2,2.8-1.8,4.7-1.8s3.5,0.6,4.7,1.8c1.2,1.2,1.8,2.7,1.8,4.5
			c0,1.8-0.6,3.3-1.8,4.5c-1.2,1.2-2.8,1.8-4.7,1.8s-3.5-0.6-4.7-1.8C238,449.5,237.4,448,237.4,446.2z M249.8,489.6
			c-0.5,0.1-1.3,0.2-2.3,0.4c-1,0.2-2,0.2-3,0.2c-1,0-1.9-0.1-2.8-0.2c-0.8-0.1-1.5-0.4-2.1-0.8c-0.6-0.4-1-1-1.3-1.7
			c-0.3-0.7-0.5-1.7-0.5-2.8v-28.5c0.5-0.1,1.3-0.2,2.3-0.4c1-0.2,2-0.2,3-0.2c1,0,1.9,0.1,2.8,0.2c0.8,0.1,1.5,0.4,2.1,0.8
			s1,1,1.3,1.7c0.3,0.7,0.5,1.7,0.5,2.8V489.6z"/>
		<path class="st2" d="M278.9,468.1c0-1.4-0.4-2.5-1.2-3.2c-0.8-0.7-1.9-1-3.3-1c-0.9,0-1.9,0.1-2.8,0.3c-0.9,0.2-1.7,0.6-2.3,1.1
			v24.3c-0.5,0.1-1.2,0.3-2.2,0.4c-1,0.1-2,0.2-3.1,0.2c-1,0-1.9-0.1-2.8-0.2c-0.8-0.1-1.5-0.4-2.1-0.8c-0.6-0.4-1-1-1.3-1.7
			c-0.3-0.7-0.5-1.7-0.5-2.8v-21c0-1.3,0.3-2.3,0.8-3.1c0.5-0.8,1.3-1.5,2.2-2.2c1.6-1.1,3.6-2,6-2.7c2.4-0.7,5.1-1,8-1
			c5.3,0,9.3,1.2,12.2,3.5c2.8,2.3,4.3,5.5,4.3,9.6v21.9c-0.5,0.1-1.2,0.3-2.2,0.4c-1,0.1-2,0.2-3.1,0.2c-1,0-1.9-0.1-2.8-0.2
			c-0.8-0.1-1.5-0.4-2.1-0.8c-0.6-0.4-1-1-1.3-1.7c-0.3-0.7-0.5-1.7-0.5-2.8V468.1z"/>
		<path class="st2" d="M347.4,472.6c0,2.9-0.4,5.5-1.3,7.7c-0.9,2.3-2.1,4.2-3.7,5.7s-3.5,2.7-5.8,3.5s-4.7,1.2-7.5,1.2
			c-2.8,0-5.2-0.4-7.5-1.3c-2.2-0.8-4.2-2-5.8-3.6c-1.6-1.6-2.9-3.5-3.7-5.7c-0.9-2.2-1.3-4.8-1.3-7.6c0-2.8,0.4-5.2,1.3-7.5
			c0.9-2.2,2.1-4.1,3.7-5.7c1.6-1.6,3.5-2.8,5.8-3.6c2.2-0.8,4.7-1.3,7.5-1.3c2.8,0,5.2,0.4,7.5,1.3c2.2,0.9,4.2,2.1,5.8,3.6
			c1.6,1.6,2.9,3.5,3.7,5.7C347,467.5,347.4,469.9,347.4,472.6z M322.9,472.6c0,2.8,0.5,5,1.6,6.5c1.1,1.5,2.6,2.3,4.6,2.3
			s3.5-0.8,4.5-2.3c1-1.5,1.6-3.7,1.6-6.5c0-2.8-0.5-5-1.6-6.5c-1.1-1.5-2.6-2.3-4.6-2.3c-2,0-3.5,0.8-4.5,2.3
			C323.4,467.7,322.9,469.8,322.9,472.6z"/>
		<path class="st2" d="M375.1,488.7c-0.7,0.5-1.6,0.9-2.9,1.3c-1.3,0.3-2.7,0.5-4.3,0.5c-1.8,0-3.4-0.2-4.7-0.7
			c-1.3-0.5-2.3-1.2-2.8-2.2c-0.4-0.8-0.9-1.9-1.5-3.3c-0.6-1.4-1.2-3-1.9-4.8c-0.7-1.8-1.3-3.6-2-5.6c-0.7-2-1.4-4-2-6
			s-1.2-3.9-1.7-5.7c-0.5-1.8-0.9-3.4-1.3-4.8c0.7-0.7,1.5-1.2,2.6-1.7c1.1-0.5,2.3-0.7,3.6-0.7c1.6,0,3,0.3,4,1
			c1,0.7,1.8,1.9,2.3,3.8l2.7,10.7c0.5,2.1,1,4,1.5,5.7c0.5,1.7,0.8,3,1,4h0.3c0.9-3.5,1.8-7.3,2.8-11.5c1-4.2,1.9-8.3,2.7-12.4
			c0.8-0.4,1.7-0.7,2.7-1c1-0.2,2-0.4,2.9-0.4c1.6,0,3,0.4,4.1,1.1c1.1,0.7,1.7,1.9,1.7,3.6c0,0.7-0.2,1.8-0.5,3.3
			c-0.4,1.4-0.8,3-1.3,4.8c-0.5,1.8-1.2,3.7-1.9,5.7c-0.7,2-1.5,4-2.2,5.9c-0.7,1.9-1.5,3.7-2.2,5.4
			C376.3,486.3,375.6,487.7,375.1,488.7z"/>
		<path class="st2" d="M408.1,490.8c-2.8,0-5.3-0.4-7.7-1.2s-4.4-1.9-6.2-3.5s-3.1-3.5-4.1-5.8c-1-2.3-1.5-5.1-1.5-8.2
			c0-3.1,0.5-5.7,1.5-7.9c1-2.2,2.3-4,4-5.5c1.6-1.4,3.5-2.5,5.6-3.2c2.1-0.7,4.2-1,6.4-1c2.5,0,4.7,0.4,6.8,1.1
			c2,0.7,3.8,1.8,5.2,3.1c1.5,1.3,2.6,2.9,3.4,4.7c0.8,1.8,1.2,3.8,1.2,6c0,1.6-0.4,2.8-1.3,3.6c-0.9,0.8-2.1,1.4-3.7,1.6l-17.3,2.6
			c0.5,1.5,1.6,2.7,3.2,3.5c1.6,0.8,3.4,1.2,5.5,1.2c1.9,0,3.7-0.2,5.4-0.7c1.7-0.5,3.1-1.1,4.2-1.7c0.7,0.5,1.4,1.1,1.9,2
			c0.5,0.8,0.8,1.7,0.8,2.7c0,2.1-1,3.7-2.9,4.7c-1.5,0.8-3.2,1.3-5,1.6C411.5,490.6,409.7,490.8,408.1,490.8z M406.1,463.3
			c-1.1,0-2.1,0.2-2.9,0.6c-0.8,0.4-1.5,0.9-2,1.4c-0.5,0.6-0.9,1.2-1.2,2c-0.3,0.7-0.4,1.5-0.5,2.2l12-2c-0.1-0.9-0.7-1.9-1.5-2.8
			C409.2,463.7,407.9,463.3,406.1,463.3z"/>
		<path class="st2" d="M440.4,489.6c-0.5,0.1-1.2,0.3-2.2,0.4c-1,0.1-2,0.2-3.1,0.2c-1,0-1.9-0.1-2.8-0.2c-0.8-0.1-1.5-0.4-2.1-0.8
			c-0.6-0.4-1-1-1.3-1.7c-0.3-0.7-0.5-1.7-0.5-2.8v-21c0-1.1,0.2-2,0.6-2.8c0.4-0.8,1-1.5,1.7-2.1c0.7-0.6,1.7-1.2,2.8-1.6
			c1.1-0.5,2.3-0.9,3.5-1.3c1.3-0.4,2.6-0.7,3.9-0.9s2.7-0.3,4.1-0.3c2.2,0,4,0.4,5.3,1.3c1.3,0.9,2,2.3,2,4.2
			c0,0.7-0.1,1.3-0.3,1.9c-0.2,0.6-0.4,1.2-0.7,1.7c-1,0-2,0-3,0.1c-1,0.1-2,0.2-3,0.4c-1,0.2-1.9,0.4-2.8,0.6
			c-0.9,0.2-1.6,0.5-2.2,0.7V489.6z"/>
		<path class="st2" d="M105,561c-0.5-1.2-1.1-2.5-1.6-3.9c-0.6-1.4-1.2-3.1-1.8-5c-0.6-1.9-1.3-4-2-6.4c-0.7-2.4-1.4-5.2-2.1-8.3
			c0.7-0.7,1.5-1.2,2.6-1.7c1.1-0.5,2.3-0.7,3.6-0.7c1.6,0,3,0.3,4.1,1c1.1,0.7,1.9,1.9,2.4,3.8l5.5,19.2h0.3
			c0.6-1.6,1.1-3.3,1.6-5.2c0.5-1.9,1.1-3.8,1.6-5.8c0.5-2,1-4,1.4-5.9c0.4-2,0.8-3.9,1.2-5.8c1.7-0.9,3.5-1.3,5.5-1.3
			c1.6,0,3,0.4,4.1,1.1c1.1,0.7,1.6,1.9,1.6,3.6c0,1.3-0.2,2.7-0.5,4.4c-0.3,1.7-0.8,3.4-1.3,5.3c-0.5,1.9-1.2,3.8-1.9,5.8
			c-0.7,2-1.5,3.9-2.3,5.8c-0.8,1.9-1.6,3.7-2.4,5.4c-0.8,1.7-1.7,3.2-2.5,4.6c-1.3,2.3-2.5,4.2-3.6,5.6c-1.1,1.4-2.2,2.6-3.2,3.4
			c-1,0.8-2.1,1.4-3.1,1.7c-1,0.3-2.1,0.5-3.2,0.5c-2,0-3.5-0.6-4.8-1.8c-1.2-1.2-1.9-2.7-2.2-4.5c1.5-1.2,3-2.5,4.5-3.9
			c1.5-1.4,2.8-2.9,4.1-4.4c-0.8-0.2-1.6-0.8-2.6-1.6C107.1,565,106.1,563.4,105,561z"/>
		<path class="st2" d="M173.1,552.6c0,2.9-0.4,5.5-1.3,7.7c-0.9,2.3-2.1,4.2-3.7,5.7s-3.5,2.7-5.8,3.5s-4.7,1.2-7.5,1.2
			c-2.8,0-5.2-0.4-7.5-1.3c-2.2-0.8-4.2-2-5.8-3.6c-1.6-1.6-2.9-3.5-3.7-5.7c-0.9-2.2-1.3-4.8-1.3-7.6c0-2.8,0.4-5.2,1.3-7.5
			c0.9-2.2,2.1-4.1,3.7-5.7c1.6-1.6,3.5-2.8,5.8-3.6c2.2-0.8,4.7-1.3,7.5-1.3c2.8,0,5.2,0.4,7.5,1.3c2.2,0.9,4.2,2.1,5.8,3.6
			c1.6,1.6,2.9,3.5,3.7,5.7C172.7,547.5,173.1,549.9,173.1,552.6z M148.6,552.6c0,2.8,0.5,5,1.6,6.5c1.1,1.5,2.6,2.3,4.6,2.3
			s3.5-0.8,4.5-2.3c1-1.5,1.6-3.7,1.6-6.5c0-2.8-0.5-5-1.6-6.5c-1.1-1.5-2.6-2.3-4.6-2.3c-2,0-3.5,0.8-4.5,2.3
			C149.1,547.7,148.6,549.8,148.6,552.6z"/>
		<path class="st2" d="M178.9,536.1c0.5-0.1,1.2-0.3,2.2-0.4c1-0.1,2-0.2,3.1-0.2c1,0,1.9,0.1,2.8,0.2c0.8,0.1,1.5,0.4,2.1,0.8
			s1,1,1.3,1.7c0.3,0.7,0.5,1.7,0.5,2.8v15.1c0,1.9,0.5,3.3,1.4,4.1c0.9,0.8,2.3,1.2,4.1,1.2c1.1,0,1.9-0.1,2.6-0.3
			c0.7-0.2,1.2-0.4,1.6-0.6v-24.5c0.5-0.1,1.2-0.3,2.2-0.4c1-0.1,2-0.2,3.1-0.2c1,0,1.9,0.1,2.8,0.2c0.8,0.1,1.5,0.4,2.1,0.8
			s1,1,1.3,1.7c0.3,0.7,0.5,1.7,0.5,2.8v21.3c0,2.3-1,4.1-2.9,5.2c-1.6,1-3.6,1.8-5.8,2.3c-2.3,0.5-4.7,0.8-7.4,0.8
			c-2.5,0-4.8-0.3-7-0.8c-2.1-0.6-4-1.4-5.5-2.6c-1.5-1.2-2.7-2.7-3.6-4.5c-0.8-1.8-1.3-4.1-1.3-6.7V536.1z"/>
		<path class="st2" d="M231.6,569.6c-0.5,0.1-1.2,0.3-2.2,0.4c-1,0.1-2,0.2-3.1,0.2c-1,0-1.9-0.1-2.8-0.2c-0.8-0.1-1.5-0.4-2.1-0.8
			s-1-1-1.3-1.7c-0.3-0.7-0.5-1.7-0.5-2.8v-21c0-1.1,0.2-2,0.6-2.8c0.4-0.8,1-1.5,1.7-2.1c0.7-0.6,1.7-1.2,2.8-1.6
			c1.1-0.5,2.3-0.9,3.5-1.3c1.3-0.4,2.6-0.7,3.9-0.9c1.4-0.2,2.7-0.3,4.1-0.3c2.2,0,4,0.4,5.3,1.3c1.3,0.9,2,2.3,2,4.2
			c0,0.7-0.1,1.3-0.3,1.9c-0.2,0.6-0.4,1.2-0.7,1.7c-1,0-2,0-3,0.1c-1,0.1-2,0.2-3,0.4c-1,0.2-1.9,0.4-2.8,0.6
			c-0.9,0.2-1.6,0.5-2.2,0.7V569.6z"/>
		<path class="st2" d="M278.7,534.6c1.9,0,3.8,0.3,5.6,0.8c1.8,0.5,3.4,1.3,4.8,2.4c1.4-0.9,3-1.7,4.7-2.3c1.8-0.6,3.9-0.9,6.3-0.9
			c1.8,0,3.5,0.2,5.2,0.7c1.7,0.5,3.2,1.2,4.6,2.2c1.3,1,2.4,2.3,3.2,4c0.8,1.7,1.2,3.7,1.2,6.1v22c-0.5,0.1-1.2,0.3-2.2,0.4
			c-1,0.1-2,0.2-3.1,0.2c-1,0-1.9-0.1-2.8-0.2c-0.8-0.1-1.5-0.4-2.1-0.8s-1-1-1.3-1.7c-0.3-0.7-0.5-1.7-0.5-2.8v-16.7
			c0-1.4-0.4-2.4-1.2-3c-0.8-0.6-1.9-0.9-3.2-0.9c-0.7,0-1.4,0.2-2.1,0.5c-0.7,0.3-1.3,0.6-1.7,0.9c0,0.2,0.1,0.4,0.1,0.5
			c0,0.2,0,0.3,0,0.5v23.3c-0.5,0.1-1.3,0.3-2.3,0.4c-1,0.1-2,0.2-3,0.2c-1,0-1.9-0.1-2.8-0.2c-0.8-0.1-1.5-0.4-2.1-0.8
			s-1-1-1.3-1.7c-0.3-0.7-0.5-1.7-0.5-2.8v-16.7c0-1.4-0.4-2.4-1.3-3c-0.9-0.6-1.9-0.9-3.1-0.9c-0.8,0-1.6,0.1-2.2,0.4
			c-0.6,0.3-1.1,0.5-1.5,0.7v24.6c-0.5,0.1-1.2,0.3-2.2,0.4c-1,0.1-2,0.2-3.1,0.2c-1,0-1.9-0.1-2.8-0.2c-0.8-0.1-1.5-0.4-2.1-0.8
			s-1-1-1.3-1.7c-0.3-0.7-0.5-1.7-0.5-2.8v-21.1c0-1.3,0.3-2.3,0.8-3c0.5-0.7,1.3-1.4,2.2-2.1c1.6-1.1,3.6-2,5.9-2.7
			C273.7,534.9,276.2,534.6,278.7,534.6z"/>
		<path class="st2" d="M335.6,534.6c2.5,0,4.8,0.3,6.9,0.8c2.1,0.5,3.8,1.3,5.3,2.3c1.5,1.1,2.6,2.4,3.4,4c0.8,1.6,1.2,3.5,1.2,5.7
			v15.7c0,1.2-0.3,2.2-1,3c-0.7,0.8-1.5,1.4-2.4,2c-3,1.8-7.3,2.7-12.8,2.7c-2.5,0-4.7-0.2-6.7-0.7c-2-0.5-3.7-1.2-5.1-2.1
			c-1.4-0.9-2.5-2.1-3.3-3.6c-0.8-1.4-1.2-3.1-1.2-5c0-3.2,1-5.7,2.9-7.4c1.9-1.7,4.9-2.8,8.9-3.2l9.2-1v-0.5c0-1.4-0.6-2.3-1.8-2.9
			c-1.2-0.6-2.9-0.9-5.1-0.9c-1.8,0-3.5,0.2-5.2,0.6c-1.7,0.4-3.2,0.8-4.5,1.4c-0.6-0.4-1.1-1.1-1.5-1.9c-0.4-0.9-0.6-1.8-0.6-2.7
			c0-1.2,0.3-2.2,0.9-2.9c0.6-0.7,1.5-1.3,2.7-1.9c1.4-0.5,3-0.9,4.8-1.1C332.3,534.7,334,534.6,335.6,534.6z M336.2,562.1
			c0.8,0,1.7-0.1,2.6-0.2c1-0.2,1.7-0.4,2.1-0.7v-5.6l-5,0.4c-1.3,0.1-2.4,0.4-3.2,0.8c-0.8,0.5-1.3,1.2-1.3,2.1
			c0,0.9,0.4,1.7,1.1,2.3C333.3,561.8,334.5,562.1,336.2,562.1z"/>
		<path class="st2" d="M381.3,548.1c0-1.4-0.4-2.5-1.2-3.2c-0.8-0.7-1.9-1-3.3-1c-0.9,0-1.9,0.1-2.8,0.3c-0.9,0.2-1.7,0.6-2.3,1.1
			v24.3c-0.5,0.1-1.2,0.3-2.2,0.4c-1,0.1-2,0.2-3.1,0.2c-1,0-1.9-0.1-2.8-0.2c-0.8-0.1-1.5-0.4-2.1-0.8c-0.6-0.4-1-1-1.3-1.7
			c-0.3-0.7-0.5-1.7-0.5-2.8v-21c0-1.3,0.3-2.3,0.8-3.1c0.5-0.8,1.3-1.5,2.2-2.2c1.6-1.1,3.6-2,6-2.7c2.4-0.7,5.1-1,8-1
			c5.3,0,9.3,1.2,12.2,3.5c2.8,2.3,4.3,5.5,4.3,9.6v21.9c-0.5,0.1-1.2,0.3-2.2,0.4c-1,0.1-2,0.2-3.1,0.2c-1,0-1.9-0.1-2.8-0.2
			c-0.8-0.1-1.5-0.4-2.1-0.8c-0.6-0.4-1-1-1.3-1.7c-0.3-0.7-0.5-1.7-0.5-2.8V548.1z"/>
		<path class="st2" d="M398.4,564c0-2,0.6-3.6,1.8-4.9c1.2-1.3,2.9-2,5-2s3.8,0.7,5,2c1.2,1.3,1.8,2.9,1.8,4.9s-0.6,3.6-1.8,4.9
			c-1.2,1.3-2.9,2-5,2s-3.8-0.7-5-2C399,567.6,398.4,565.9,398.4,564z"/>
	</g>
	<g class="st1">
	</g>
</g>
<g id="dY5ABS.tif">
	<g>
		<g>
			<g>
				<path class="st2" d="M511,1068c-1.2,0-2.3-0.7-2.8-1.9c-0.3-0.7-0.8-2-0.8-76.1c0-74.2,0.5-75.4,0.8-76.1
					c0.5-1.1,1.6-1.9,2.8-1.9c1.3,0,1.6,0,42,27.3c22.1,15,47.7,32.3,63.5,43.2c3,2,5.9,4.3,5.9,7.5c0,3.2-2.9,5.5-5.8,7.5
					c-14,9.6-40,27.3-62,42.2C512.6,1068,512.3,1068,511,1068z"/>
				<path class="st2" d="M511,915c1,0,71.9,48,103.8,70c6.1,4.2,6.1,5.9,0,10.1C587,1014.2,512,1065,511,1065
					C510.2,1063.1,510.2,916.9,511,915 M511,909c-2.4,0-4.6,1.5-5.6,3.8c-0.6,1.4-0.7,1.7-0.9,26.2c-0.1,13.6-0.1,31.7-0.1,51.1
					c0,19.4,0.1,37.5,0.1,51.1c0.2,24.4,0.3,24.8,0.9,26.2c0.9,2.3,3.1,3.7,5.6,3.7c2.2,0,2.2,0,16.1-9.2
					c7.1-4.7,17.2-11.5,29.2-19.6c22.3-15.1,47.8-32.4,62-42.2c2.7-1.8,7.1-4.9,7.1-10c0-5.1-4.5-8.1-7.2-10
					c-15.9-10.9-41.4-28.3-63.6-43.3c-11.5-7.8-21.3-14.3-28.2-18.9C513.2,909,513.2,909,511,909L511,909z"/>
			</g>
		</g>
	</g>
</g>
<g>
	<g class="st1">
		<path class="st7" d="M571.6,1044.6c-0.5,0.5-1.1,0.8-2,1.1c-0.9,0.2-1.9,0.4-3.2,0.4c-1.2,0-2.4-0.2-3.5-0.6
			c-1.1-0.4-2-1.2-2.7-2.6l-4.9-10.1c-0.5-1-1-2-1.4-2.9c-0.4-0.9-0.8-2-1.3-3.2h-0.3c0.1,1.8,0.2,3.6,0.2,5.5c0,1.9,0,3.7,0,5.5
			v7.8c-0.4,0.1-0.9,0.2-1.7,0.3c-0.8,0.1-1.5,0.2-2.2,0.2c-0.7,0-1.4,0-2-0.2c-0.6-0.1-1-0.3-1.4-0.6c-0.4-0.3-0.6-0.7-0.9-1.2
			c-0.2-0.5-0.3-1.2-0.3-2v-25c0.5-0.7,1.2-1.2,2.1-1.5c1-0.3,2-0.5,3.1-0.5c1.2,0,2.4,0.2,3.5,0.6c1.1,0.4,2,1.3,2.7,2.6l5,10.1
			c0.5,1,0.9,2,1.3,2.9c0.4,0.9,0.8,2,1.3,3.2l0.2-0.1c-0.1-1.8-0.2-3.6-0.2-5.4c0-1.8-0.1-3.6-0.1-5.4v-8.1
			c0.4-0.1,0.9-0.2,1.7-0.3c0.8-0.1,1.5-0.2,2.2-0.2c1.5,0,2.6,0.3,3.3,0.8c0.8,0.5,1.2,1.6,1.2,3.2v25.7H571.6z"/>
		<path class="st7" d="M578.1,1020c0-1.4,0.4-2.6,1.2-3.4c0.8-0.8,2-1.2,3.4-1.2h16.5c0.2,0.4,0.4,0.8,0.6,1.5
			c0.2,0.6,0.3,1.2,0.3,1.9c0,1.3-0.3,2.2-0.8,2.7c-0.6,0.5-1.3,0.8-2.2,0.8h-10.5v4.7h11.2c0.2,0.4,0.4,0.8,0.6,1.4
			c0.2,0.6,0.3,1.2,0.3,1.9c0,1.3-0.3,2.2-0.8,2.7s-1.2,0.8-2.1,0.8h-9.2v5.2h12.9c0.2,0.4,0.4,0.8,0.6,1.5c0.2,0.6,0.3,1.2,0.3,1.9
			c0,1.3-0.3,2.2-0.8,2.7s-1.3,0.8-2.2,0.8h-14.6c-1.4,0-2.6-0.4-3.4-1.2c-0.8-0.8-1.2-2-1.2-3.4V1020H578.1z"/>
		<path class="st7" d="M603.9,1019.1c0.2-0.5,0.4-0.9,0.7-1.4c0.3-0.5,0.7-0.9,1.1-1.3c0.5-0.4,1-0.7,1.6-0.9c0.6-0.2,1.3-0.4,2-0.4
			c1,0,1.8,0.2,2.5,0.7s1.5,1.3,2.2,2.5l3.9,6l5.8-8.5c0.3-0.1,0.6-0.3,1.1-0.4c0.5-0.1,1-0.2,1.4-0.2c1.5,0,2.7,0.4,3.6,1.1
			c0.9,0.7,1.3,1.6,1.3,2.7c0,0.9-0.2,1.8-0.7,2.5c-0.5,0.7-1.1,1.6-2,2.7l-5.2,6.3l8.2,11.7c-0.3,1.2-0.8,2.2-1.7,2.9
			s-2.1,1.1-3.6,1.1c-1,0-1.8-0.2-2.5-0.7c-0.7-0.5-1.4-1.3-2.2-2.5l-4-6.4l-6.3,9.5c-0.3,0-0.5,0.1-0.8,0.1c-0.2,0-0.5,0-0.7,0
			c-1.9,0-3.3-0.4-4.2-1.2c-0.9-0.8-1.3-1.7-1.3-2.8c0-1,0.2-1.8,0.6-2.5c0.4-0.7,1-1.6,1.8-2.5l5.2-6.8L603.9,1019.1z"/>
		<path class="st7" d="M634.9,1022.4c-0.2-0.4-0.5-0.9-0.7-1.5c-0.2-0.6-0.3-1.3-0.3-2c0-1.3,0.3-2.2,0.9-2.8
			c0.6-0.6,1.3-0.9,2.3-0.9h21.8c0.2,0.4,0.4,0.9,0.6,1.5c0.2,0.6,0.3,1.3,0.3,2c0,1.3-0.3,2.2-0.9,2.8c-0.6,0.6-1.3,0.9-2.3,0.9
			h-5.5v23.1c-0.4,0.1-0.9,0.2-1.7,0.3c-0.8,0.1-1.6,0.2-2.3,0.2c-0.7,0-1.4-0.1-2-0.2c-0.6-0.1-1.1-0.3-1.5-0.6
			c-0.4-0.3-0.7-0.7-0.9-1.2s-0.3-1.2-0.3-2.1v-19.4L634.9,1022.4L634.9,1022.4z"/>
	</g>
</g>
</svg>
