<?xml version="1.0" encoding="utf-8"?>
<!-- Generator: Adobe Illustrator 23.0.3, SVG Export Plug-In . SVG Version: 6.00 Build 0)  -->
<svg version="1.1" xmlns="http://www.w3.org/2000/svg" xmlns:xlink="http://www.w3.org/1999/xlink" x="0px" y="0px"
	 viewBox="0 0 720 517" style="enable-background:new 0 0 720 517;" xml:space="preserve">
<style type="text/css">
	.st0{fill:#F9C7E1;}
	.st1{fill:#CC99CC;}
</style>
<g id="Layer_1">
	<path class="st0" d="M63.2,120.8c20.7-13.3,47.2-13.3,55-13.3h488.6c56.4,0,102.2,37.9,102.2,84.6v216.3
		c0,46.7-45.8,84.6-102.2,84.6H118.1c-56.4,0-102.2-37.9-102.2-84.6V192.1C15.9,162.1,34.8,135.8,63.2,120.8"/>
</g>
<g id="Layer_2">
	<path class="st1" d="M116.3,492.9h490.5c31.3,0,59.3-11.5,78.1-29.7c-18.7,15.7-44.7,25.5-73.5,25.5H121
		c-56.6,0-102.6-37.6-102.6-84.1v-215c0-20.8,9.2-39.8,24.4-54.4c-18,15.1-29,35.8-29,58.6v215C13.8,455.3,59.7,492.9,116.3,492.9z"
		/>
</g>
</svg>
