<?xml version="1.0" encoding="utf-8"?>
<!-- Generator: Adobe Illustrator 23.0.2, SVG Export Plug-In . SVG Version: 6.00 Build 0)  -->
<svg version="1.1" id="Layer_1" xmlns="http://www.w3.org/2000/svg" xmlns:xlink="http://www.w3.org/1999/xlink" x="0px" y="0px"
	 viewBox="0 0 335 356" style="enable-background:new 0 0 335 356;" xml:space="preserve">
<style type="text/css">
	.st0{fill:none;stroke:#111111;stroke-width:8;stroke-miterlimit:10;}
</style>
<g>
	
		<image style="overflow:visible;enable-background:new    ;" width="1003" height="967" xlink:href="46F5E28F5909FF3A.png"  transform="matrix(0.2524 0 0 0.2524 34.3289 45.4825)">
	</image>
	<path class="st0" d="M62.9,195.5c0,0-29.2-38.5-25-71.3s33.8-26.2,38-30.6c4.2-4.4,16.9-72.1,65.4-35c0,0,29.5,15.3,52.8-6.6
		s46.4,35,54.9,43.7s38,19.7,38,41.5s-17,43.8-12.8,56.9s19,70-6.3,83.1s-57,8.7-80.2,2.2c-23.2-6.6-61.2,13.1-71.7,13.1
		s-61.2-14.4-59.1-45S66.9,209.5,62.9,195.5z"/>
</g>
</svg>
