<?xml version="1.0" encoding="utf-8"?>
<!-- Generator: Adobe Illustrator 23.0.3, SVG Export Plug-In . SVG Version: 6.00 Build 0)  -->
<svg version="1.1" id="Layer_1" xmlns="http://www.w3.org/2000/svg" xmlns:xlink="http://www.w3.org/1999/xlink" x="0px" y="0px"
	 viewBox="0 0 720 1280" style="enable-background:new 0 0 720 1280;" xml:space="preserve">
<style type="text/css">
	.st0{fill:url(#SVGID_1_);}
	.st1{clip-path:url(#SVGID_3_);fill:#79ABB2;}
	.st2{clip-path:url(#SVGID_5_);fill:#FBA2CC;}
	.st3{clip-path:url(#SVGID_7_);fill:#996480;}
	.st4{clip-path:url(#SVGID_9_);fill:#B27495;}
	.st5{clip-path:url(#SVGID_11_);fill:#99D8E4;}
	.st6{clip-path:url(#SVGID_13_);fill:#587C7F;}
	.st7{fill:#FFFFFF;}
	.st8{font-family:'BalooBhaijaan-Regular';}
	.st9{font-size:270.5429px;}
	.st10{font-size:177.3275px;}
	.st11{font-size:212.8875px;}
	.st12{font-size:139.5372px;}
	.st13{fill:#0F2D4E;}
	.st14{font-size:100px;}
	.st15{font-size:45px;}
</style>
<g>
	
		<linearGradient id="SVGID_1_" gradientUnits="userSpaceOnUse" x1="-103.8818" y1="87.1672" x2="823.8818" y2="1192.8328" gradientTransform="matrix(1 0 0 -1 0 1280)">
		<stop  offset="1.343419e-03" style="stop-color:#FFDA90"/>
		<stop  offset="0.663" style="stop-color:#FBCDC9"/>
		<stop  offset="1" style="stop-color:#F9C7E1"/>
	</linearGradient>
	<rect class="st0" width="720" height="1280"/>
	<g>
		<g>
			<defs>
				<rect id="SVGID_2_" width="720" height="1280"/>
			</defs>
			<clipPath id="SVGID_3_">
				<use xlink:href="#SVGID_2_"  style="overflow:visible;"/>
			</clipPath>
			<polygon class="st1" points="363.2,774.2 792.3,1223.3 697.7,1315.2 277.4,882.3 376.2,857.2 			"/>
		</g>
		<g>
			<defs>
				<rect id="SVGID_4_" width="720" height="1280"/>
			</defs>
			<clipPath id="SVGID_5_">
				<use xlink:href="#SVGID_4_"  style="overflow:visible;"/>
			</clipPath>
			<polygon class="st2" points="521.1,248.8 -25.1,979.4 -176.7,867.9 348.3,154.2 421.1,285.2 			"/>
		</g>
		<g>
			<defs>
				<rect id="SVGID_6_" width="720" height="1280"/>
			</defs>
			<clipPath id="SVGID_7_">
				<use xlink:href="#SVGID_6_"  style="overflow:visible;"/>
			</clipPath>
			<polygon class="st3" points="364,325 -68.5,903.9 -169.5,829.1 234,284.3 283,340 305,292 			"/>
		</g>
		<g>
			<defs>
				<rect id="SVGID_8_" width="720" height="1280"/>
			</defs>
			<clipPath id="SVGID_9_">
				<use xlink:href="#SVGID_8_"  style="overflow:visible;"/>
			</clipPath>
			<polygon class="st4" points="211,372 -45.3,706.2 -196.6,594.2 46.9,265.5 129.4,374.3 			"/>
		</g>
		<g>
			<defs>
				<rect id="SVGID_10_" width="720" height="1280"/>
			</defs>
			<clipPath id="SVGID_11_">
				<use xlink:href="#SVGID_10_"  style="overflow:visible;"/>
			</clipPath>
			<polygon class="st5" points="397,906 890.3,1419.9 957.3,1356.2 492.5,861.2 458.8,912.9 446.4,878 			"/>
		</g>
		<g>
			<defs>
				<rect id="SVGID_12_" width="720" height="1280"/>
			</defs>
			<clipPath id="SVGID_13_">
				<use xlink:href="#SVGID_12_"  style="overflow:visible;"/>
			</clipPath>
			<polygon class="st6" points="624.5,833.8 914.3,1139.3 819.7,1231.2 532.9,936.5 627.4,901.2 			"/>
		</g>
	</g>
	<text transform="matrix(0.9415 -0.337 0.337 0.9415 84.5068 426.717)" class="st7 st8 st9">U</text>
	<text transform="matrix(0.9415 -0.337 0.337 0.9415 253.6 366.1916)" class="st7 st8 st10">w</text>
	<text transform="matrix(0.9415 -0.337 0.337 0.9415 385.6926 318.9106)" class="st7 st8 st9">U</text>
	<text transform="matrix(0.9773 0.2117 -0.2117 0.9773 233.2372 874.1991)" class="st7 st8 st11">O</text>
	<text transform="matrix(0.9773 0.2117 -0.2117 0.9773 379.5394 905.8906)" class="st7 st8 st12">w</text>
	<text transform="matrix(0.9773 0.2117 -0.2117 0.9773 487.3352 929.2411)" class="st7 st8 st11">O</text>
	<text transform="matrix(1 0 0 1 294.4009 657.3247)" class="st13 st8 st14">OR</text>
	<path class="st13" d="M122.2,69.5c3.9,5.1,8.2,10.2,9.3,10.9c0.4,0.3,1.4,1.3,2.1,2.1c0.7,0.9,1.6,1.8,1.9,2.1
		c0.3,0.3,0.4,1.2,0.2,2.6c-0.2,1.2-0.2,2.3-0.1,2.5c0.1,0.2,0.1,0.7,0,1.1s-0.2,1.9-0.2,3.3s0,2.8-0.1,3c-0.2,0.4,2.1,3,6.3,7.3
		c1.4,1.4,3.6,3.7,4.9,5.2c1.4,1.5,2.7,2.7,2.9,2.8c0.4,0.1,0.9-0.4,1.8-1.7c0.7-1,1.6-1.9,2-2c1.2,0.4,1.3,1.7,1.7,3.3
		c0.3,2,1.3,6.3,1.6,6.7c0.1,0.1,0.2,0.7,0.3,1.3c1,2.4,2.8,7.3,0.1,6.9c-0.1,0.1-1.7-0.6-3.3-1.5c-3.3-1.8-6.8-2.9-10.2-3.9
		c-0.4,0.1-0.8-0.1-1.2-0.6c-0.5-0.7-0.4-0.9,1.4-2.8l1.9-2l-1-1.2c-0.6-0.6-1.6-1.9-2.3-2.7c-0.7-0.8-1.8-2.1-2.5-2.7
		c-0.7-0.7-2-2.3-3-3.6c-1-1.3-2.2-2.7-2.6-3.1c-2-2.1-3.3-3.2-3.5-3c-0.1,0.1-2.1,0.2-4.3,0.2c-3.1,0-4.2-0.1-4.6-0.6
		c-0.3-0.3-0.9-1-1.4-1.6c-0.5-0.5-1.5-1.7-2.3-2.6s-1.6-1.8-1.9-2.1c-0.3-0.3-1.1-1.3-1.9-2.2c-0.7-0.9-1.5-1.9-1.7-2
		c-0.2-0.2-1.4-1.3-2.7-2.6c-2-1.4-5.3-5-3.3-5c2.8-0.4,6.7-0.8,9.2-1.3c0.2-0.3,0.7-0.8,1.2-1.1c1-0.6,0.9-0.4,1.8-7.6
		C119.6,66.5,119.7,66.2,122.2,69.5L122.2,69.5z M120.5,71c-0.3,0.3-0.5,0.9-0.4,1.1c0.1,0.1,0,1.4-0.2,2.8s-0.3,3.2-0.3,4
		s0.1,1.6,0.2,1.7c1,1.1,2.7,2.6,3,2.9c0.5,0.4,0.8-1.7,0.9-6.1l0.1-2.9l-1.4-1.8c-0.8-1-1.5-1.8-1.6-1.8
		C120.7,70.8,120.6,70.9,120.5,71L120.5,71z M108.7,82.6c-0.2,0.1,0.3,0.8,1.1,1.5c1.2,1.1,2.3,1.7,3.7,1.9c2.2,0.3,5.8,0.7,6,0.5
		c0.1-0.1-0.5-1.1-1.3-2.3l-1.5-2.2l-2.7,0.1C111.3,82.2,109,82.4,108.7,82.6L108.7,82.6z M118.4,81.6c-0.4-0.1,1.9,2.8,4.5,5.6
		c1.5,1.6,3.6,4,4.6,5.3c3,3.8,4,4.9,13,14.7c1.3,1.4,3.1,3.6,4,4.7c0.9,1.2,2.1,2.5,2.6,3c1.2,1.1,1.1,1.9-0.7,3.5
		c-1.9,1.9-2.1,1.2,2.5,3c0.9,0.3,2.6,1,3.8,1.6c2.7,1.4,3.1,1.5,3.1,0.2c0-1-1.4-6-1.9-6.6c-0.1-0.2-0.3-1.2-0.4-2.1
		c-0.1-0.9-0.3-1.8-0.4-2c-0.1-0.2-0.1-0.5,0-0.8c0.1-0.2-0.2,0-0.6,0.4c-0.5,0.4-1,1.2-1.2,1.8c-0.5,1.3-1.3,1.6-2.1,0.8
		c-0.4-0.3-0.8-0.7-1-0.8c-0.6-0.3-7.8-7.8-8.6-8.9c-0.4-0.6-1.8-2.1-3.2-3.5c-2.2-2.2-4.6-4.8-7.2-7.8c-0.5-0.6-1.4-1.7-2-2.3
		c-0.5-0.6-1.8-2.2-2.8-3.5C122.8,85.7,118.9,81.7,118.4,81.6L118.4,81.6z M125.7,77l-0.3,1.2c-0.2,0.6-0.2,1.3-0.1,1.4
		s0,1.1-0.1,2.2c-0.1,2.1-0.1,2.7-0.3,3.8c0,0.2,2.4,2.6,3.1,3.2c0.1,0.1,0.1-0.3,0-0.9c-0.1-0.5,0-2.4,0.3-4.2
		c0.5-3.1,0.3-4.2-0.9-5.2c-0.1-0.1-0.6-0.5-0.9-0.9L125.7,77z M114.8,88.4c-0.2,0.1-0.1,0.2,0.1,0.5s0.7,0.9,1.1,1.1
		c0.4,0.3,0.9,0.9,1.3,1.4c0.5,0.6,1,0.9,2.8,1c1.2,0.1,2.6,0.1,3.1,0s1.1,0,1.4,0c0.3,0.1,0.2,0-0.1-0.3c-0.3-0.2-1-1.1-1.7-2.1
		c-1.2-1.7-1.2-1.7-2.7-1.6c-0.8,0.1-1.6,0.1-1.7,0s-1.1-0.2-2.1-0.1C115.4,88.4,115,88.4,114.8,88.4L114.8,88.4z M130.6,82.2
		c-0.3-0.1-1,2.9-0.9,3.9c0,0.5,0,1.6,0,2.6c-0.1,1.8,0,1.9,1.7,4.3c1,1.4,1.9,2.4,2,2.4c0.2-0.1,0.4-2.1,0.4-4.3
		c0-3.4-0.1-5.4-0.2-5.5c-0.1-0.1-0.7-0.8-1.5-1.7C131.5,83,130.8,82.2,130.6,82.2L130.6,82.2z M119.6,94.5
		c-0.2,0.1,1.1,1.8,2.2,2.7c0.6,0.5,1.4,0.9,1.9,0.9c2.8-0.1,4.4-0.1,5,0.1c0.3,0.1,0.6,0.1,0.7-0.1c0.1-0.5-3.1-4.2-3.4-4
		c-0.1,0.1-1.6,0.2-3.3,0.2C121.1,94.4,119.7,94.5,119.6,94.5L119.6,94.5z"/>
	<path class="st13" d="M556.7,196c-1,0.1-1.4,3.5-0.7,6.6c0.4,1.7-1.4,2.2-4.9,3.9c-2.4,1.2-3,1.7-2.7,2.6c0.3,0.9,1.3,1.4,3.9,1.9
		l4,1.1l0.5,1.1c0.3,0.6,0,2.5,0.5,3.6c0.3,3.9,2,3.7,3.6,0.8l2-3.8l1,0.3c0.6,0.1,1.2,0.3,1.4,0.3s1.2,0.3,2.3,0.6
		c1.2,0.3,2.3,0.4,2.7,0.2c0.3-0.2,0.4-0.3,0.5-0.5c0-0.2-0.1-0.5-0.3-0.9c-0.3-0.6-0.8-1.5-1.3-2c-1.9-2.2-3-3.8-3.1-4.2
		c-0.1-0.3,0.3-1.6,0.9-2.9c0.5-1.3,1-2.6,1.1-3c0.1-0.3,0.3-0.9,0.4-1.1c0.5-1.2-0.5-1.3-3.3-0.3s-2.8,1-3.9,0.2
		c-0.6-0.4-1.3-1-1.4-1.3C558.9,197.8,557,196,556.7,196L556.7,196z"/>
	<path class="st13" d="M574.7,706.8c-0.1,0-0.2,0.3-0.4,0.8c-0.1,0.5-0.3,3.7-0.3,6.9c0,4.5-0.2,6-0.5,6c-2-1.8-3.4-3.4-4.9-4.9
		c-1.4-1.3-4.6-3.7-5-3.7c-0.2,0,0.5,0.9,1.7,2c2.4,2.1,5.6,6.4,6.6,8.1c-0.5,0.9,0,2,1.4,3.1c0.5,0.4,0.9,1.1,0.9,1.6
		s0.2,1.5,0.5,2.3s0.6,1.8,0.7,2.3c0.1,0.5,0.4,1.7,0.8,2.6c0.3,0.9,0.7,2.1,0.8,2.5c0.3,1.1,2.9,4.1,4.3,4.8c3,0.8,4.4-0.9,4.2-3.4
		c-0.3-2.1-0.7-4.2-1.2-5.4c-1.3-3.1-2.9-4.9-4.9-7.2c-0.3-0.4-1.2-1.5-1.7-2.6c-0.6-1.1-1.3-2.1-1.6-2.2c-0.5-0.2-0.6-1.1-0.7-6.6
		C575.2,709.2,575,706.8,574.7,706.8L574.7,706.8z M585.3,713.6c-1.3,0-1.8,0.4-3,1.7c-1.5,1.6-1.6,1.9-2.8,4.5
		c-0.7,1.7-0.6,3.6,0.3,4.1c0.8,0.5,1.4-0.2,1.4-1.6c0-1.3,2.2-5.2,3.5-6.2c1-0.8,1.3-0.9,2.4-0.5c1.3,0.5,1.9,1.5,1.9,3.7
		c0,1.2-0.2,1.5-0.8,1.6c-0.5,0.1-1.6,0.7-2.6,1.4c-1.6,1-1.8,1.3-1.8,2.4c0,1.2,1.1,2.8,1.9,2.8c0.6,0,2.8-1.8,3.2-2.5
		c0.7-1.4,1.4-2,2.4-2c1.5,0,3.4,2,4,4.2c0.6,2.5,0.6,3.3-0.3,4.3c-0.7,0.7-1,0.8-2.6,0.6c-1-0.1-2.2-0.4-2.7-0.6
		c-0.9-0.4-2-0.2-2,0.4c0,0.6,2.7,2,4.4,2.1c2.1,0.2,3.9-0.6,5.1-2.4c0.7-1,0.8-1.6,0.6-2.6c-0.6-3.6-3.4-7.6-5.5-8
		c-1.2-0.2-1.3-0.4-1.3-1.4C590.7,715.5,589,713.6,585.3,713.6L585.3,713.6z M587,724c0.1,0,0.2,0.1,0.2,0.2c0,0.4-0.4,0.8-0.8,0.8
		c-0.5,0-0.3-0.7,0.2-0.9C586.8,724,586.9,724,587,724L587,724z M558.1,726.1c-1.9,1.4-2.3,2.7-1.9,5c0.2,1,0.8,1.8,2.7,3.4
		c1.4,1.1,2.7,2,2.9,2c0.3,0,0.5,0.4,0.5,0.9c0,2.4,2.1,5.3,4.7,6.6c1.7,0.9,4.6,0.9,6,0c0.6-0.4,1.5-1.4,1.9-2.2
		c0.5-1,0.7-2.1,0.6-3.1c-0.1-2.2-0.9-2.4-1.3-0.4c-0.1,0.9-0.7,2.1-1.3,2.8c-0.9,1-1.4,1.2-2.7,1.2c-2.7,0-5.4-2.2-5.4-4.4
		c0-0.5,0.3-0.7,1.5-0.8c1.8-0.1,4.7-2,5-3.3c0.5-2.1-1.4-4.1-3.5-3.7c-1.7,0.7-3,1.9-3.9,3.2c-1.5,1.3-2.1,1.2-4.2-0.8
		c-2-1.9-2.3-3-1.2-4.4c1.6-2.1,5.4-2.4,9.7-0.9c5.5,2,6.5,1.4,1.7-1.1C565.6,724.1,561.7,724.5,558.1,726.1L558.1,726.1z
		 M576.9,725.7c3.1,3.3,7.3,7.8,6.5,11.8c-1.3,1.8-1.3,1.5-2.9,0.2c-1.3-1.5-2.5-4.1-3-6.5c-0.2-1.1-0.6-2.6-0.8-3.4
		C576.3,726.1,576.3,725.7,576.9,725.7L576.9,725.7z M569.1,732.1c1.2,0.2,1.1,0.9-0.3,1.9c-0.8,0.6-1.8,1-2.5,1h-1.2l1.6-1.5
		C567.7,732.6,568.6,732,569.1,732.1L569.1,732.1z"/>
	<path class="st13" d="M664.3,53.9c-4.5,0.1-8.8,2.5-11.2,6.6c-3.7,6.3-1.5,14.4,4.8,18.1s14.5,1.5,18.1-4.8
		c3.7-6.3,1.5-14.4-4.9-18.1c-1.6-0.9-3.3-1.5-5-1.7C665.6,53.9,664.9,53.9,664.3,53.9L664.3,53.9z M669.4,57.8c1-0.1,2,0.2,2.9,0.7
		c0.4,0.3,0.9,0.6,1.2,0.9c1,1.1,1.7,2.3,2.2,3.7c0.6,1.5,0.6,3.2,0.5,4.9c-0.1,2.5-1.2,4.3-2.7,6.7l0,0c-1.1,1.9-2.7,2.7-4.9,3.7
		c-1.3,0.4-2.6,0.6-4,0.7c-2,0-4-0.9-5.7-2l0,0c-0.1-0.1-0.3-0.2-0.4-0.3c-0.1-0.1-0.2-0.2-0.2-0.4c0-0.2,0.1-0.3,0.2-0.3
		c0.2-0.1,0.3-0.1,0.5-0.1c1.7-0.1,3.5-0.5,4.7-1.7l0,0c2.3-3.4,2.5-5.7,1.5-9.9c-0.2-1.4,0-2.8,0.6-4.1c0.6-1,1.6-1.7,2.6-2.2l0,0
		C668.7,57.9,669,57.9,669.4,57.8L669.4,57.8z M670.5,63.8c-0.3,0-0.6,0.1-0.8,0.3l0,0c-0.2,0.2-0.3,0.4-0.5,0.7
		c-0.1,0.3-0.2,0.6-0.1,0.9l0,0c0.4,0.6,0.9,1,1.5,1.2l0,0c0.4,0.1,0.7,0,0.9-0.3c0.2-0.2,0.4-0.5,0.5-0.8c0.2-0.6,0-1.4-0.5-1.8
		v-0.1l0,0l0,0l0,0C671.1,63.8,670.8,63.7,670.5,63.8L670.5,63.8z M658.5,68.2c0.3,0,0.6,0,0.8,0.1c0.6,0.3,0.7,1.1,0.5,1.7
		c-0.1,0.3-0.2,0.6-0.5,0.8c-0.2,0.2-0.5,0.3-0.8,0.2c-0.5-0.2-1.1-0.6-1.4-1.1c-0.1-0.2,0-0.5,0.1-0.7c0.1-0.3,0.3-0.5,0.5-0.7
		C658,68.3,658.2,68.2,658.5,68.2L658.5,68.2z"/>
	<path class="st13" d="M77.3,606.2c4.8-8.2,9.3-16.8,9.8-18.7c0.2-0.7,1-2.6,1.8-4.1s1.6-3.2,1.9-3.7c0.3-0.6,1.4-1.2,3.5-1.7
		c1.7-0.4,3.3-1,3.5-1.3s0.8-0.6,1.5-0.6c0.6,0,2.7-0.7,4.7-1.5c1.9-0.8,3.8-1.5,4.1-1.5c0.7,0,41-81,44.5-89.2
		c1.1-2.6,3.1-7,4.4-9.7c1.3-2.7,2.3-5.2,2.2-5.6c-0.1-0.5-1-1-3.3-1.5c-1.8-0.5-3.5-1.2-3.9-1.7c-0.1-1.9,1.6-2.7,3.5-4.2
		c2.6-1.5,7.9-5.2,8.2-5.8c0.1-0.2,0.9-0.8,1.6-1.2c2.7-2.7,8.5-7.8,9.4-4c0.2,0.2,0.1,2.6-0.2,5.4c-0.6,5.5-0.3,10.9,0.3,16.1
		c0.4,0.5,0.4,1.2-0.1,1.9c-0.7,1.1-0.9,1-4.5-0.4l-3.8-1.5l-1.1,2.1c-0.6,1.2-1.7,3.3-2.4,4.7c-0.8,1.4-1.8,3.6-2.4,4.9
		c-0.5,1.3-40,80.5-41.2,82.6s-2.5,4.5-2.8,5.2c-1.8,4-2.6,6.3-2.2,6.5c0.2,0.1,1.4,2.7,2.7,5.9c1.7,4.2,2.2,5.9,1.8,6.6
		c-0.3,0.6-0.9,1.8-1.4,2.8s-1.5,3-2.3,4.6c-0.8,1.5-1.6,3.2-1.9,3.8c-0.2,0.6-1.1,2.3-2,3.8s-1.7,3.1-1.8,3.5
		c-0.1,0.4-1.1,2.7-2.1,5.1c-0.8,3.6-3.9,10-5,7.3c-2.1-3.6-4.8-8.8-6.9-11.9c-0.5-0.1-1.4-0.6-2.1-1.1c-1.3-1-1-1-11.4,1.8
		C74.7,611.4,74.3,611.5,77.3,606.2L77.3,606.2z M80.3,607.7c0.5,0.2,1.5,0.3,1.7-0.1c0.1-0.2,1.9-0.8,3.9-1.3s4.5-1.3,5.6-1.8
		s2.1-1.1,2.1-1.2c0.9-2,2.1-5.1,2.3-5.7c0.2-0.9-2.7-0.2-8.8,2.1l-4,1.5l-1.6,3c-0.9,1.6-1.6,3.1-1.6,3.2
		C80,607.5,80.1,607.6,80.3,607.7L80.3,607.7z M102.8,617.5c0.2,0.2,0.9-0.8,1.4-2.3c0.8-2.2,1-4.1,0.6-6.1
		c-0.8-3.2-2.3-8.3-2.6-8.5c-0.1-0.1-1.2,1.3-2.4,3.1l-2.1,3.3l1.6,3.7C100.8,614.1,102.4,617.1,102.8,617.5L102.8,617.5z M96,604.7
		c0.1,0.7,2.8-4.1,5.2-9.2c1.4-3,3.5-7.2,4.7-9.3c3.5-6.2,42.5-84.6,51-102.3c1.3-2.6,3.1-6.2,4.2-8.1c1.1-1.9,2.3-4.2,2.6-5.2
		c0.8-2.3,2-2.5,5.1-1c3.7,1.6,2.8,2.2,2.7-5.1c-0.1-1.4-0.1-4.2,0.1-6.1c0.5-4.5,0.3-5.1-1.4-4.4c-1.4,0.6-7.4,5.2-8.1,6.2
		c-0.2,0.3-1.4,1.1-2.6,1.7c-1.2,0.6-2.4,1.4-2.6,1.7c-0.2,0.3-0.7,0.5-1,0.4c-0.4-0.1,0,0.2,0.9,0.6s2.3,0.7,3.1,0.7
		c2-0.1,2.9,0.9,2.3,2.5c-0.3,0.7-0.5,1.5-0.5,1.8c-0.1,0.9-44.3,91.5-45.5,93.2c-0.6,0.9-1.9,3.7-3,6.3c-1.8,4.3-4,9-6.7,14.2
		c-0.6,1.1-1.5,2.9-2,4c-0.6,1.1-2,3.7-3.3,5.8C99.2,596.5,95.9,603.9,96,604.7L96,604.7z M85.6,597.2l1.8-0.2c1-0.1,1.9-0.4,2-0.6
		c0.1-0.2,1.5-0.7,3.1-1.1c3-1,3.7-1.3,5.4-1.7c0.3-0.1,2.3-4.7,2.7-6c0-0.1-0.5,0.1-1.1,0.5c-0.7,0.4-3.3,1.3-5.9,1.9
		c-4.5,1.1-5.9,1.9-6.7,4.1c-0.1,0.3-0.4,1.1-0.7,1.8L85.6,597.2z M107.4,605.8c-0.3,0,0.4,0,0.6-0.5c0.3-0.5,0.8-1.5,1-2.1
		c0.2-0.7,0.7-1.8,1.1-2.5c0.6-1,0.6-1.9-0.3-4.4c-0.6-1.7-1.3-3.6-1.7-4.3c-0.4-0.7-0.7-1.5-0.7-1.9s-0.1-0.3-0.3,0.2
		c-0.1,0.5-1,2.1-1.9,3.5c-1.7,2.5-1.7,2.6-0.7,4.5c0.6,1.1,1,2.2,0.9,2.4c0,0.2,0.4,1.6,1,3C106.9,605,107.2,605.6,107.4,605.8
		L107.4,605.8z M90.1,587.6c-0.4-0.3,4.5-0.2,5.9-0.9c0.6-0.3,2.2-0.9,3.6-1.4c2.5-0.9,2.6-1,5-4.7c1.4-2.1,2.3-4,2.1-4.1
		c-0.3-0.2-3,0.6-6.1,1.9c-4.6,1.8-7.4,3.1-7.5,3.3s-0.8,1.5-1.6,3C90.7,586,90,587.4,90.1,587.6L90.1,587.6z M113,595.9
		c-0.1-0.3,1.8-2.5,2.5-4.6c0.4-1.1,0.5-2.5,0.2-3.1c-1.7-3.8-2.5-6.1-2.6-6.9c0-0.5-0.3-0.9-0.5-0.9c-0.7,0.1-4.1,6.6-3.6,6.9
		c0.2,0.1,1.2,2.1,2.1,4.4C112.1,594,113,596,113,595.9L113,595.9z"/>
	<text transform="matrix(1 0 0 1 81.3405 1223.8837)" class="st13 st8 st15">Made by: Augmented Alpha</text>
	
		<image style="overflow:visible;" width="1836" height="1249" xlink:href="assets/UwU.png"  transform="matrix(0.1384 3.353245e-02 -3.353245e-02 0.1384 447.6141 352.9937)">
	</image>
	
		<image style="overflow:visible;" width="607" height="1206" xlink:href="assets/OwO.png"  transform="matrix(0.183 -6.461535e-02 6.461535e-02 0.183 80.0264 897.1147)">
	</image>
</g>
</svg>
