<?xml version="1.0" encoding="utf-8"?>
<!-- Generator: Adobe Illustrator 23.0.3, SVG Export Plug-In . SVG Version: 6.00 Build 0)  -->
<svg version="1.1" id="Layer_1" xmlns="http://www.w3.org/2000/svg" xmlns:xlink="http://www.w3.org/1999/xlink" x="0px" y="0px"
	 viewBox="0 0 720 250" style="enable-background:new 0 0 720 250;" xml:space="preserve">
<style type="text/css">
	.st0{fill:#FFC107;}
	.st1{enable-background:new    ;}
	.st2{fill:#0F2D4E;}
	.st3{fill:#69FCDC;}
	.st4{fill:#FFFFFF;}
</style>
<g>
	<g>
		<rect class="st0" width="720" height="250"/>
	</g>
	<g>
		<g class="st1">
			<path class="st2" d="M73.4,117.2c-0.5,0.5-1.4,0.9-2.5,1.3c-1.1,0.4-2.4,0.5-3.7,0.5c-1.6,0-3-0.2-4.1-0.8
				c-1.2-0.5-1.9-1.2-2.4-2.1c-0.4-0.9-0.9-2.1-1.6-3.6c-0.6-1.5-1.3-3.1-1.9-4.9c-0.7-1.8-1.4-3.7-2.1-5.7c-0.7-2-1.4-4.1-2-6.1
				c-0.7-2.1-1.3-4.1-1.8-6.1s-1.1-3.9-1.5-5.6c0.5-0.6,1.3-1.1,2.3-1.5c1-0.5,2.1-0.7,3.3-0.7c1.4,0,2.6,0.3,3.5,0.9
				c0.9,0.6,1.6,1.8,2,3.5c1,3.9,2.1,7.7,3.1,11.2c1.1,3.6,2.2,7.3,3.3,11.2h0.3c1-3.8,2.1-7.9,3.2-12.3c1.1-4.4,2.1-8.9,3.1-13.3
				c0.7-0.4,1.4-0.7,2.2-0.9c0.8-0.2,1.7-0.4,2.7-0.4c1.4,0,2.6,0.3,3.6,1c1,0.7,1.5,1.8,1.5,3.3c0,0.9-0.2,2.2-0.6,3.8
				c-0.4,1.7-0.9,3.6-1.6,5.7c-0.6,2.1-1.3,4.3-2.1,6.6c-0.8,2.3-1.6,4.4-2.4,6.5c-0.8,2-1.5,3.8-2.2,5.3
				C74.3,115.5,73.8,116.6,73.4,117.2z"/>
			<path class="st2" d="M89,87.6c0-1.7,0.5-3.1,1.4-4.1c1-1,2.3-1.5,3.9-1.5h19c0.3,0.4,0.5,1,0.7,1.7s0.3,1.5,0.3,2.3
				c0,1.5-0.3,2.6-0.9,3.2c-0.6,0.6-1.5,1-2.5,1H98.7v5.6h13c0.3,0.4,0.5,1,0.7,1.7c0.2,0.7,0.3,1.5,0.3,2.2c0,1.5-0.3,2.6-0.9,3.2
				c-0.6,0.6-1.4,1-2.5,1H98.7v6.3h14.8c0.3,0.4,0.5,1,0.7,1.7c0.2,0.7,0.3,1.5,0.3,2.3c0,1.5-0.3,2.6-0.9,3.3c-0.6,0.7-1.5,1-2.5,1
				H94.3c-1.7,0-3-0.5-3.9-1.5c-1-1-1.4-2.4-1.4-4.1V87.6z"/>
			<path class="st2" d="M130.5,106.6v11.5c-0.4,0.1-1.1,0.2-2,0.4c-0.9,0.1-1.8,0.2-2.7,0.2c-0.9,0-1.7-0.1-2.3-0.2
				c-0.7-0.1-1.2-0.4-1.7-0.8c-0.4-0.4-0.8-0.9-1-1.5c-0.2-0.6-0.3-1.5-0.3-2.5V85.5c0-0.8,0.2-1.5,0.7-1.9c0.4-0.5,1-0.8,1.8-1.1
				c1.3-0.5,2.8-0.8,4.5-1s3.6-0.3,5.5-0.3c5.3,0,9.3,1.2,12,3.5c2.7,2.3,4,5.5,4,9.4c0,2.5-0.6,4.6-1.8,6.4
				c-1.2,1.8-2.7,3.1-4.4,4.1c1.4,2,2.7,3.8,4.1,5.5c1.3,1.7,2.4,3.3,3.2,4.7c-0.4,1.4-1.1,2.5-2.1,3.2c-1,0.7-2.2,1.1-3.4,1.1
				c-0.8,0-1.6-0.1-2.2-0.3c-0.6-0.2-1.2-0.5-1.6-0.8c-0.5-0.4-0.9-0.8-1.3-1.3c-0.4-0.5-0.7-1.1-1.1-1.7l-4.8-8.1H130.5z
				 M134.1,98.7c1.5,0,2.6-0.4,3.5-1.2c0.8-0.8,1.3-1.9,1.3-3.5c0-1.5-0.5-2.7-1.4-3.4c-0.9-0.8-2.4-1.2-4.5-1.2c-0.6,0-1,0-1.4,0.1
				c-0.3,0-0.7,0.1-1.2,0.2v9H134.1z"/>
			<path class="st2" d="M165.5,103.9c-1.7-0.6-3.2-1.2-4.6-1.8c-1.4-0.6-2.6-1.4-3.6-2.2c-1-0.9-1.8-1.9-2.3-3.2
				c-0.6-1.2-0.8-2.7-0.8-4.5c0-3.4,1.3-6.1,3.8-8.2c2.5-2,6-3.1,10.6-3.1c1.6,0,3.2,0.1,4.6,0.4c1.4,0.2,2.6,0.6,3.7,1.1
				c1,0.5,1.8,1.1,2.4,1.9c0.6,0.8,0.9,1.7,0.9,2.7s-0.2,1.9-0.7,2.7c-0.5,0.7-1,1.4-1.7,1.9c-0.8-0.6-2-1-3.4-1.5
				c-1.4-0.4-3-0.6-4.7-0.6c-1.7,0-3,0.2-3.8,0.8s-1.2,1.1-1.2,1.9c0,0.6,0.2,1.1,0.7,1.5c0.5,0.4,1.2,0.7,2.2,1.1l3.1,1
				c3.6,1.2,6.4,2.7,8.3,4.6c1.9,1.9,2.9,4.4,2.9,7.6c0,3.4-1.3,6.2-3.9,8.2c-2.6,2.1-6.4,3.2-11.3,3.2c-1.8,0-3.4-0.2-4.9-0.5
				s-2.8-0.7-4-1.3s-2-1.3-2.6-2.2c-0.6-0.9-0.9-1.8-0.9-3c0-1.2,0.3-2.1,1-3c0.7-0.8,1.4-1.4,2.1-1.9c1.1,0.9,2.4,1.6,3.9,2.3
				s3.3,1,5.1,1c1.9,0,3.2-0.3,4-0.9s1.2-1.3,1.2-2.1s-0.3-1.4-0.9-1.8c-0.6-0.4-1.5-0.8-2.6-1.2L165.5,103.9z"/>
			<path class="st2" d="M197.3,118.2c-0.4,0.1-1.1,0.2-2,0.4s-1.8,0.2-2.7,0.2c-0.9,0-1.7-0.1-2.3-0.2c-0.7-0.1-1.2-0.4-1.7-0.8
				c-0.5-0.4-0.8-0.9-1-1.5c-0.2-0.6-0.3-1.5-0.3-2.5V82c0.4-0.1,1.1-0.2,2-0.3c0.9-0.1,1.8-0.2,2.6-0.2c0.9,0,1.7,0.1,2.3,0.2
				c0.7,0.1,1.2,0.4,1.7,0.8c0.5,0.4,0.8,0.9,1,1.5c0.2,0.6,0.3,1.5,0.3,2.5V118.2z"/>
			<path class="st2" d="M203.1,100.2c0-3.1,0.5-5.9,1.4-8.3c0.9-2.4,2.2-4.4,3.9-6c1.6-1.6,3.5-2.9,5.8-3.7c2.2-0.8,4.6-1.3,7.2-1.3
				s5,0.4,7.2,1.3c2.2,0.8,4.1,2.1,5.8,3.7c1.6,1.6,2.9,3.6,3.9,6c0.9,2.4,1.4,5.2,1.4,8.3s-0.5,5.9-1.4,8.3s-2.2,4.4-3.8,6.1
				c-1.6,1.6-3.6,2.9-5.8,3.7s-4.6,1.3-7.3,1.3s-5-0.4-7.3-1.3c-2.2-0.9-4.1-2.1-5.8-3.8c-1.6-1.6-2.9-3.7-3.8-6.1
				C203.6,106,203.1,103.2,203.1,100.2z M213.5,100.2c0,3.6,0.7,6.4,2.1,8.2s3.3,2.7,5.7,2.7c2.4,0,4.3-0.9,5.8-2.7
				c1.4-1.8,2.1-4.5,2.1-8.2c0-3.6-0.7-6.3-2.1-8.1c-1.4-1.8-3.3-2.7-5.7-2.7c-2.4,0-4.3,0.9-5.7,2.7
				C214.2,93.8,213.5,96.5,213.5,100.2z"/>
			<path class="st2" d="M276.9,117.1c-0.5,0.6-1.3,1-2.3,1.3c-1,0.3-2.2,0.5-3.7,0.5c-1.4,0-2.8-0.2-4-0.7c-1.3-0.4-2.3-1.5-3.1-3.2
				l-5.7-12.1c-0.6-1.2-1.1-2.4-1.6-3.5c-0.5-1.1-1-2.4-1.5-3.8l-0.3,0.1c0.2,2.2,0.2,4.4,0.3,6.6c0,2.2,0,4.4,0,6.6v9.3
				c-0.4,0.1-1.1,0.2-1.9,0.4s-1.7,0.2-2.6,0.2c-0.8,0-1.6-0.1-2.2-0.2s-1.2-0.4-1.6-0.7c-0.4-0.4-0.7-0.8-1-1.5
				c-0.2-0.6-0.3-1.4-0.3-2.4v-30c0.5-0.8,1.4-1.4,2.5-1.8c1.1-0.4,2.3-0.6,3.6-0.6c1.4,0,2.8,0.2,4.1,0.7c1.3,0.5,2.3,1.5,3.1,3.2
				l5.8,12.1c0.6,1.2,1.1,2.4,1.6,3.5c0.5,1.1,1,2.4,1.5,3.8l0.3-0.1c-0.2-2.2-0.2-4.3-0.3-6.5c0-2.2-0.1-4.3-0.1-6.5V82
				c0.4-0.1,1.1-0.2,1.9-0.4c0.9-0.1,1.7-0.2,2.6-0.2c1.7,0,3,0.3,3.9,0.9s1.3,1.9,1.3,3.9V117.1z"/>
			<path class="st2" d="M303.3,83.1c0.7-0.4,1.6-0.8,3-1.1s2.7-0.5,4-0.5c1.9,0,3.6,0.3,5.1,0.9c1.5,0.6,2.4,1.5,2.8,2.7
				c0.7,2.1,1.4,4.5,2.2,7.3c0.8,2.8,1.6,5.6,2.4,8.5c0.8,2.9,1.6,5.8,2.4,8.7c0.8,2.9,1.4,5.4,2,7.6c-0.5,0.6-1.2,1-2.1,1.3
				c-0.9,0.3-2,0.5-3.3,0.5c-0.9,0-1.7-0.1-2.3-0.2c-0.6-0.2-1.2-0.4-1.6-0.7c-0.4-0.3-0.7-0.7-1-1.3c-0.2-0.5-0.5-1.1-0.7-1.8
				l-1-4.1h-10.4c-0.3,1.2-0.6,2.4-0.9,3.7c-0.3,1.3-0.6,2.5-0.9,3.7c-0.5,0.2-1.1,0.4-1.7,0.5c-0.6,0.1-1.3,0.2-2.2,0.2
				c-2,0-3.4-0.4-4.3-1c-0.9-0.7-1.4-1.7-1.4-2.9c0-0.6,0.1-1.1,0.2-1.7c0.2-0.6,0.3-1.2,0.5-2c0.3-1.1,0.6-2.4,1.1-4
				c0.5-1.6,1-3.3,1.6-5.2c0.6-1.9,1.2-3.8,1.8-5.7c0.7-2,1.3-3.8,1.8-5.5c0.6-1.7,1.1-3.3,1.6-4.7C302.7,84.9,303,83.8,303.3,83.1z
				 M310.2,90.9c-0.5,1.7-1.1,3.6-1.8,5.6c-0.7,2.1-1.3,4.2-1.8,6.3h7.1c-0.5-2.2-1.1-4.3-1.6-6.3c-0.6-2.1-1.1-3.9-1.5-5.5H310.2z"
				/>
			<path class="st2" d="M337.3,118.6c-1.7,0-3-0.5-3.9-1.5c-1-1-1.4-2.4-1.4-4.1V82c0.4-0.1,1.1-0.2,2-0.3c0.9-0.1,1.8-0.2,2.6-0.2
				c0.9,0,1.7,0.1,2.3,0.2c0.7,0.1,1.2,0.4,1.7,0.8c0.5,0.4,0.8,0.9,1,1.5c0.2,0.6,0.3,1.5,0.3,2.5v23.7h13.2c0.3,0.4,0.5,1,0.7,1.8
				s0.3,1.5,0.3,2.3c0,1.6-0.3,2.7-1,3.4c-0.7,0.7-1.5,1-2.6,1H337.3z"/>
			<path class="st2" d="M371.6,118.2c-0.4,0.1-1.1,0.2-2,0.4s-1.8,0.2-2.7,0.2c-0.9,0-1.7-0.1-2.3-0.2c-0.7-0.1-1.2-0.4-1.7-0.8
				c-0.5-0.4-0.8-0.9-1-1.5c-0.2-0.6-0.3-1.5-0.3-2.5V85.5c0-0.8,0.2-1.5,0.7-1.9c0.4-0.5,1-0.8,1.8-1.1c1.3-0.5,2.8-0.8,4.5-1
				c1.7-0.2,3.3-0.3,5-0.3c5.3,0,9.3,1.2,12.1,3.5c2.8,2.4,4.2,5.6,4.2,9.6c0,2-0.3,3.7-0.9,5.3c-0.6,1.6-1.5,2.9-2.6,4.1
				c-1.2,1.1-2.6,2-4.4,2.6s-3.8,0.9-6.2,0.9h-4.1V118.2z M374.6,98.9c1.6,0,2.8-0.4,3.7-1.2s1.3-2,1.3-3.6c0-1.5-0.5-2.7-1.4-3.5
				c-0.9-0.8-2.2-1.2-3.9-1.2c-0.6,0-1.1,0-1.5,0c-0.4,0-0.8,0.1-1.2,0.2v9.3H374.6z"/>
			<path class="st2" d="M426.1,118.2c-0.4,0.1-1.1,0.2-2,0.4c-0.9,0.1-1.8,0.2-2.7,0.2s-1.7-0.1-2.3-0.2c-0.7-0.1-1.2-0.4-1.7-0.8
				c-0.5-0.4-0.8-0.9-1-1.5c-0.2-0.6-0.3-1.5-0.3-2.5v-9.4H405v13.8c-0.4,0.1-1.1,0.2-2,0.4s-1.8,0.2-2.7,0.2
				c-0.9,0-1.7-0.1-2.3-0.2c-0.7-0.1-1.2-0.4-1.7-0.8c-0.5-0.4-0.8-0.9-1-1.5c-0.2-0.6-0.3-1.5-0.3-2.5V82c0.4-0.1,1.1-0.2,2-0.3
				c0.9-0.1,1.8-0.2,2.6-0.2c0.9,0,1.7,0.1,2.3,0.2c0.7,0.1,1.2,0.4,1.7,0.8c0.5,0.4,0.8,0.9,1,1.5c0.2,0.6,0.3,1.5,0.3,2.5v9.6
				h11.1V82c0.4-0.1,1.1-0.2,2-0.3c0.9-0.1,1.8-0.2,2.6-0.2c0.9,0,1.7,0.1,2.3,0.2c0.7,0.1,1.2,0.4,1.7,0.8c0.5,0.4,0.8,0.9,1,1.5
				c0.2,0.6,0.3,1.5,0.3,2.5V118.2z"/>
			<path class="st2" d="M441,83.1c0.7-0.4,1.6-0.8,3-1.1s2.7-0.5,4-0.5c1.9,0,3.6,0.3,5.1,0.9c1.5,0.6,2.4,1.5,2.8,2.7
				c0.7,2.1,1.4,4.5,2.2,7.3c0.8,2.8,1.6,5.6,2.4,8.5c0.8,2.9,1.6,5.8,2.4,8.7c0.8,2.9,1.4,5.4,2,7.6c-0.5,0.6-1.2,1-2.1,1.3
				c-0.9,0.3-2,0.5-3.3,0.5c-0.9,0-1.7-0.1-2.3-0.2c-0.6-0.2-1.2-0.4-1.6-0.7c-0.4-0.3-0.7-0.7-1-1.3c-0.2-0.5-0.5-1.1-0.7-1.8
				l-1-4.1h-10.4c-0.3,1.2-0.6,2.4-0.9,3.7c-0.3,1.3-0.6,2.5-0.9,3.7c-0.5,0.2-1.1,0.4-1.7,0.5c-0.6,0.1-1.3,0.2-2.2,0.2
				c-2,0-3.4-0.4-4.3-1c-0.9-0.7-1.4-1.7-1.4-2.9c0-0.6,0.1-1.1,0.2-1.7c0.2-0.6,0.3-1.2,0.5-2c0.3-1.1,0.6-2.4,1.1-4
				c0.5-1.6,1-3.3,1.6-5.2c0.6-1.9,1.2-3.8,1.8-5.7c0.7-2,1.3-3.8,1.8-5.5c0.6-1.7,1.1-3.3,1.6-4.7C440.4,84.9,440.8,83.8,441,83.1z
				 M448,90.9c-0.5,1.7-1.1,3.6-1.8,5.6c-0.7,2.1-1.3,4.2-1.8,6.3h7.1c-0.5-2.2-1.1-4.3-1.6-6.3c-0.6-2.1-1.1-3.9-1.5-5.5H448z"/>
		</g>
		<g class="st1">
			<path class="st2" d="M52.5,147.6c0-1.7,0.5-3.1,1.4-4.1c1-1,2.3-1.5,3.9-1.5h19c0.3,0.4,0.5,1,0.7,1.7s0.3,1.5,0.3,2.3
				c0,1.5-0.3,2.6-0.9,3.2c-0.6,0.6-1.5,1-2.5,1H62.3v5.6h13c0.3,0.4,0.5,1,0.7,1.7c0.2,0.7,0.3,1.5,0.3,2.2c0,1.5-0.3,2.6-0.9,3.2
				c-0.6,0.6-1.4,1-2.5,1H62.3v6.3H77c0.3,0.4,0.5,1,0.7,1.7c0.2,0.7,0.3,1.5,0.3,2.3c0,1.5-0.3,2.6-0.9,3.3c-0.6,0.7-1.5,1-2.5,1
				H57.8c-1.6,0-3-0.5-3.9-1.5c-1-1-1.4-2.4-1.4-4.1V147.6z"/>
			<path class="st2" d="M115.6,177.1c-0.5,0.6-1.3,1-2.3,1.3c-1,0.3-2.2,0.5-3.7,0.5c-1.4,0-2.8-0.2-4-0.7c-1.3-0.4-2.3-1.5-3.1-3.2
				l-5.7-12.1c-0.6-1.2-1.1-2.4-1.6-3.5c-0.5-1.1-1-2.4-1.5-3.8l-0.3,0.1c0.2,2.2,0.2,4.4,0.3,6.6c0,2.2,0,4.4,0,6.6v9.3
				c-0.4,0.1-1.1,0.2-1.9,0.4s-1.7,0.2-2.6,0.2c-0.8,0-1.6-0.1-2.2-0.2s-1.2-0.4-1.6-0.7c-0.4-0.4-0.7-0.8-1-1.5
				c-0.2-0.6-0.3-1.4-0.3-2.4v-30c0.5-0.8,1.4-1.4,2.5-1.8c1.1-0.4,2.3-0.6,3.6-0.6c1.4,0,2.8,0.2,4.1,0.7c1.3,0.5,2.3,1.5,3.1,3.2
				l5.8,12.1c0.6,1.2,1.1,2.4,1.6,3.5c0.5,1.1,1,2.4,1.5,3.8l0.3-0.1c-0.2-2.2-0.2-4.3-0.3-6.5c0-2.2-0.1-4.3-0.1-6.5V142
				c0.4-0.1,1.1-0.2,1.9-0.4c0.9-0.1,1.7-0.2,2.6-0.2c1.7,0,3,0.3,3.9,0.9s1.3,1.9,1.3,3.9V177.1z"/>
			<path class="st2" d="M121.5,150.4c-0.3-0.4-0.5-1-0.7-1.8c-0.2-0.8-0.3-1.6-0.3-2.4c0-1.6,0.3-2.7,1-3.4c0.7-0.7,1.5-1,2.6-1
				h25.1c0.3,0.4,0.5,1,0.7,1.8c0.2,0.8,0.3,1.6,0.3,2.4c0,1.6-0.3,2.7-1,3.4c-0.7,0.7-1.5,1-2.6,1h-6.4v27.7
				c-0.4,0.1-1.1,0.2-2,0.4s-1.8,0.2-2.7,0.2c-0.9,0-1.7-0.1-2.3-0.2c-0.7-0.1-1.2-0.4-1.7-0.8c-0.5-0.4-0.8-0.9-1-1.5
				c-0.2-0.6-0.3-1.5-0.3-2.5v-23.3H121.5z"/>
			<path class="st2" d="M165.1,166.6v11.5c-0.4,0.1-1.1,0.2-2,0.4c-0.9,0.1-1.8,0.2-2.7,0.2c-0.9,0-1.7-0.1-2.3-0.2
				c-0.7-0.1-1.2-0.4-1.7-0.8c-0.4-0.4-0.8-0.9-1-1.5c-0.2-0.6-0.3-1.5-0.3-2.5v-28.3c0-0.8,0.2-1.5,0.7-1.9c0.4-0.5,1-0.8,1.8-1.1
				c1.3-0.5,2.8-0.8,4.5-1s3.6-0.3,5.5-0.3c5.3,0,9.3,1.2,12,3.5c2.7,2.3,4,5.5,4,9.4c0,2.5-0.6,4.6-1.8,6.4
				c-1.2,1.8-2.7,3.1-4.4,4.1c1.4,2,2.7,3.8,4.1,5.5c1.3,1.7,2.4,3.3,3.2,4.7c-0.4,1.4-1.1,2.5-2.1,3.2c-1,0.7-2.2,1.1-3.4,1.1
				c-0.8,0-1.6-0.1-2.2-0.3c-0.6-0.2-1.2-0.5-1.6-0.8c-0.5-0.4-0.9-0.8-1.3-1.3c-0.4-0.5-0.7-1.1-1.1-1.7l-4.8-8.1H165.1z
				 M168.7,158.7c1.5,0,2.6-0.4,3.5-1.2c0.8-0.8,1.3-1.9,1.3-3.5c0-1.5-0.5-2.7-1.4-3.4c-0.9-0.8-2.4-1.2-4.5-1.2
				c-0.6,0-1,0-1.4,0.1c-0.3,0-0.7,0.1-1.2,0.2v9H168.7z"/>
			<path class="st2" d="M198,143.1c0.7-0.4,1.6-0.8,3-1.1s2.7-0.5,4-0.5c1.9,0,3.6,0.3,5.1,0.9c1.5,0.6,2.4,1.5,2.8,2.7
				c0.7,2.1,1.4,4.5,2.2,7.3c0.8,2.8,1.6,5.6,2.4,8.5c0.8,2.9,1.6,5.8,2.4,8.7c0.8,2.9,1.4,5.4,2,7.6c-0.5,0.6-1.2,1-2.1,1.3
				c-0.9,0.3-2,0.5-3.3,0.5c-0.9,0-1.7-0.1-2.3-0.2c-0.6-0.2-1.2-0.4-1.6-0.7c-0.4-0.3-0.7-0.7-1-1.3c-0.2-0.5-0.5-1.1-0.7-1.8
				l-1-4.1h-10.4c-0.3,1.2-0.6,2.4-0.9,3.7c-0.3,1.3-0.6,2.5-0.9,3.7c-0.5,0.2-1.1,0.4-1.7,0.5c-0.6,0.1-1.3,0.2-2.2,0.2
				c-2,0-3.4-0.4-4.3-1c-0.9-0.7-1.4-1.7-1.4-2.9c0-0.6,0.1-1.1,0.2-1.7c0.2-0.6,0.3-1.2,0.5-2c0.3-1.1,0.6-2.4,1.1-4
				c0.5-1.6,1-3.3,1.6-5.2c0.6-1.9,1.2-3.8,1.8-5.7c0.7-2,1.3-3.8,1.8-5.5c0.6-1.7,1.1-3.3,1.6-4.7
				C197.4,144.9,197.8,143.8,198,143.1z M204.9,150.9c-0.5,1.7-1.1,3.6-1.8,5.6c-0.7,2.1-1.3,4.2-1.8,6.3h7.1
				c-0.5-2.2-1.1-4.3-1.6-6.3c-0.6-2.1-1.1-3.9-1.5-5.5H204.9z"/>
			<path class="st2" d="M258.3,177.1c-0.5,0.6-1.3,1-2.3,1.3c-1,0.3-2.2,0.5-3.7,0.5c-1.4,0-2.8-0.2-4-0.7c-1.3-0.4-2.3-1.5-3.1-3.2
				l-5.7-12.1c-0.6-1.2-1.1-2.4-1.6-3.5c-0.5-1.1-1-2.4-1.5-3.8l-0.3,0.1c0.2,2.2,0.2,4.4,0.3,6.6c0,2.2,0,4.4,0,6.6v9.3
				c-0.4,0.1-1.1,0.2-1.9,0.4s-1.7,0.2-2.6,0.2c-0.8,0-1.6-0.1-2.2-0.2s-1.2-0.4-1.6-0.7c-0.4-0.4-0.7-0.8-1-1.5
				c-0.2-0.6-0.3-1.4-0.3-2.4v-30c0.5-0.8,1.4-1.4,2.5-1.8c1.1-0.4,2.3-0.6,3.6-0.6c1.4,0,2.8,0.2,4.1,0.7c1.3,0.5,2.3,1.5,3.1,3.2
				l5.8,12.1c0.6,1.2,1.1,2.4,1.6,3.5c0.5,1.1,1,2.4,1.5,3.8l0.3-0.1c-0.2-2.2-0.2-4.3-0.3-6.5c0-2.2-0.1-4.3-0.1-6.5V142
				c0.4-0.1,1.1-0.2,1.9-0.4c0.9-0.1,1.7-0.2,2.6-0.2c1.7,0,3,0.3,3.9,0.9s1.3,1.9,1.3,3.9V177.1z"/>
			<path class="st2" d="M283.6,149.4c-3,0-5.2,0.9-6.8,2.8c-1.6,1.9-2.4,4.5-2.4,8c0,3.5,0.9,6.2,2.6,8c1.7,1.9,4.1,2.8,7.1,2.8
				c1.6,0,2.9-0.2,4-0.7c1.1-0.4,2.1-0.9,3.1-1.5c0.7,0.6,1.2,1.2,1.5,2c0.4,0.8,0.5,1.7,0.5,2.7c0,1.6-0.9,3-2.6,4.2
				s-4.4,1.7-8,1.7c-2.6,0-5-0.4-7.3-1.1c-2.3-0.8-4.2-1.9-5.9-3.5c-1.7-1.6-3-3.6-4-6c-1-2.4-1.5-5.3-1.5-8.7
				c0-3.1,0.5-5.9,1.4-8.2c0.9-2.4,2.2-4.4,3.9-6c1.6-1.6,3.5-2.9,5.7-3.7s4.5-1.3,7-1.3c3.5,0,6.3,0.6,8.2,1.8
				c1.9,1.2,2.9,2.7,2.9,4.6c0,1-0.2,1.9-0.7,2.7c-0.5,0.8-1.1,1.4-1.7,1.8c-1-0.7-2.1-1.3-3.2-1.7
				C286.4,149.6,285.1,149.4,283.6,149.4z"/>
			<path class="st2" d="M298.6,147.6c0-1.7,0.5-3.1,1.4-4.1c1-1,2.3-1.5,3.9-1.5h19c0.3,0.4,0.5,1,0.7,1.7s0.3,1.5,0.3,2.3
				c0,1.5-0.3,2.6-0.9,3.2c-0.6,0.6-1.5,1-2.5,1h-12.1v5.6h13c0.3,0.4,0.5,1,0.7,1.7c0.2,0.7,0.3,1.5,0.3,2.2c0,1.5-0.3,2.6-0.9,3.2
				c-0.6,0.6-1.4,1-2.5,1h-10.6v6.3h14.8c0.3,0.4,0.5,1,0.7,1.7c0.2,0.7,0.3,1.5,0.3,2.3c0,1.5-0.3,2.6-0.9,3.3
				c-0.6,0.7-1.5,1-2.5,1H304c-1.7,0-3-0.5-3.9-1.5c-1-1-1.4-2.4-1.4-4.1V147.6z"/>
		</g>
	</g>
	<g id="XMLID_62_">
		<circle class="st3" cx="575.8" cy="56.7" r="8.8"/>
	</g>
	<g>
		<path class="st4" d="M671.3,60.2L658,73.4c-4.2,1.6-8.5,1.2-11.2-1.5l-3.2-3.2c-4.1-4.1-2.9-11.8,2.6-17.3l0.5-0.5
			c4.9-4.9,4.9-12.9,0-17.9c-4.9-4.9-12.9-4.9-17.9,0L493.2,168.8c-4.9,4.9-4.9,12.9,0,17.9c4.9,4.9,12.9,4.9,17.9,0l34.2-34.2
			c5.5-5.5,13.3-6.7,17.3-2.6l3.2,3.2c2.7,2.7,3.1,7,1.5,11.2L543.5,188c-4.8,4.8-4.8,12.6,0,17.4l0.5,0.5c4.8,4.8,12.6,4.8,17.4,0
			l22.7-22.7c-4,4-4,10.4,0,14.4l3.5,3.5c4,4,10.4,4,14.4,0l85.5-85.5c4-4,4-10.4,0-14.4l-3.5-3.5c-4-4-10.4-4-14.4,0l19.6-19.6
			c4.8-4.8,4.8-12.6,0-17.4l-0.5-0.5C683.9,55.4,676.1,55.4,671.3,60.2z"/>
	</g>
	<g id="XMLID_41_">
		<circle class="st3" cx="662.5" cy="113.5" r="8.8"/>
	</g>
	<g>
		<polygon class="st3" points="597.9,182.1 665.3,182.1 631.6,123.7 		"/>
	</g>
	<g>
		<polygon class="st3" points="570.4,159.3 604.1,100.9 536.6,100.9 		"/>
	</g>
	<g>
		<path class="st2" d="M610.4,97.2c-0.4-0.8-1.2-1.2-2.1-1.2h-75.9c-0.9,0-1.7,0.5-2.1,1.2c-0.2,0.4-0.3,0.8-0.3,1.2
			c0,0.4,0.1,0.8,0.3,1.2l38,65.8c0.4,0.8,1.2,1.2,2.1,1.2c0.9,0,1.7-0.5,2.1-1.2l38-65.8C610.9,98.9,610.9,98,610.4,97.2z
			 M570.4,159.3l-33.7-58.4h67.4L570.4,159.3z"/>
		<path class="st2" d="M570.4,169.1c-1.9,0-3.5-0.9-4.3-2.5l-38-65.9c-0.4-0.7-0.6-1.5-0.6-2.3c0-0.8,0.2-1.6,0.6-2.3l0.1-0.1
			c0.9-1.5,2.5-2.5,4.3-2.5h75.9c1.9,0,3.5,0.9,4.3,2.5c0.9,1.5,0.9,3.4,0.1,4.9l-38,65.8C573.8,168.2,572.2,169.1,570.4,169.1z
			 M541,103.4l29.4,50.9l29.4-50.9H541z M608.2,98.3C608.2,98.3,608.2,98.3,608.2,98.3L608.2,98.3z"/>
	</g>
	<g>
		<path class="st2" d="M633.8,117.6c-0.9-1.5-3.4-1.5-4.2,0l-38,65.8c-0.4,0.8-0.4,1.7,0,2.5s1.2,1.2,2.1,1.2h75.9
			c0.9,0,1.7-0.5,2.1-1.2c0.4-0.8,0.4-1.7,0-2.5L633.8,117.6z M597.9,182.1l33.7-58.4l33.7,58.4H597.9z"/>
		<path class="st2" d="M669.6,189.6h-75.9c-1.9,0-3.5-1-4.3-2.6c-0.8-1.5-0.8-3.2,0-4.7l0.1-0.1l38-65.8c0.8-1.4,2.3-2.3,4.1-2.4
			c1.8,0,3.5,0.9,4.4,2.3l0,0l38,65.9c0.8,1.5,0.8,3.2,0,4.7l-0.1,0.1C673,188.7,671.4,189.6,669.6,189.6z M602.2,179.6H661
			l-29.4-50.9L602.2,179.6z M631.8,118.8L631.8,118.8C631.8,118.8,631.8,118.8,631.8,118.8L631.8,118.8z"/>
	</g>
</g>
</svg>
